MonaSans-ExpandedBlackItalic.ufo
<glyph name="exclam" format="2">
  <advance width="283"/>
  <unicode hex="0021"/>
  <outline>
    <contour>
      <point x="82" y="232" type="line"/>
      <point x="184" y="232" type="line"/>
      <point x="285" y="484" type="line"/>
      <point x="336" y="729" type="line"/>
      <point x="135" y="729" type="line"/>
      <point x="84" y="484" type="line"/>
    </contour>
    <contour>
      <point x="97" y="-10" type="curve" smooth="yes"/>
      <point x="178" y="-10"/>
      <point x="224" y="26"/>
      <point x="224" y="90" type="curve" smooth="yes"/>
      <point x="224" y="141"/>
      <point x="183" y="175"/>
      <point x="111" y="175" type="curve" smooth="yes"/>
      <point x="30" y="175"/>
      <point x="-16" y="139"/>
      <point x="-16" y="75" type="curve" smooth="yes"/>
      <point x="-16" y="24"/>
      <point x="25" y="-10"/>
    </contour>
  </outline>
</glyph>
<glyph name="numbersign" format="2">
  <advance width="740"/>
  <unicode hex="0023"/>
  <outline>
    <contour>
      <point x="89" y="0" type="line"/>
      <point x="251" y="0" type="line"/>
      <point x="285" y="166" type="line"/>
      <point x="411" y="166" type="line"/>
      <point x="377" y="0" type="line"/>
      <point x="539" y="0" type="line"/>
      <point x="573" y="166" type="line"/>
      <point x="704" y="166" type="line"/>
      <point x="732" y="302" type="line"/>
      <point x="601" y="302" type="line"/>
      <point x="628" y="430" type="line"/>
      <point x="759" y="430" type="line"/>
      <point x="787" y="566" type="line"/>
      <point x="656" y="566" type="line"/>
      <point x="689" y="729" type="line"/>
      <point x="527" y="729" type="line"/>
      <point x="494" y="566" type="line"/>
      <point x="368" y="566" type="line"/>
      <point x="401" y="729" type="line"/>
      <point x="239" y="729" type="line"/>
      <point x="206" y="566" type="line"/>
      <point x="75" y="566" type="line"/>
      <point x="47" y="430" type="line"/>
      <point x="178" y="430" type="line"/>
      <point x="151" y="302" type="line"/>
      <point x="20" y="302" type="line"/>
      <point x="-8" y="166" type="line"/>
      <point x="123" y="166" type="line"/>
    </contour>
    <contour>
      <point x="313" y="302" type="line"/>
      <point x="340" y="430" type="line"/>
      <point x="466" y="430" type="line"/>
      <point x="439" y="302" type="line"/>
    </contour>
  </outline>
</glyph>
<glyph name="dollar" format="2">
  <advance width="734"/>
  <unicode hex="0024"/>
  <outline>
    <contour>
      <point x="359" y="7" type="curve" smooth="yes"/>
      <point x="587" y="7"/>
      <point x="710" y="94"/>
      <point x="710" y="250" type="curve" smooth="yes"/>
      <point x="710" y="392"/>
      <point x="609" y="435"/>
      <point x="443" y="461" type="curve" smooth="yes"/>
      <point x="348" y="476"/>
      <point x="318" y="485"/>
      <point x="318" y="518" type="curve" smooth="yes"/>
      <point x="318" y="550"/>
      <point x="347" y="569"/>
      <point x="404" y="569" type="curve" smooth="yes"/>
      <point x="462" y="569"/>
      <point x="506" y="547"/>
      <point x="509" y="507" type="curve"/>
      <point x="737" y="507" type="line"/>
      <point x="737" y="633"/>
      <point x="609" y="723"/>
      <point x="408" y="723" type="curve" smooth="yes"/>
      <point x="226" y="723"/>
      <point x="77" y="646"/>
      <point x="77" y="483" type="curve" smooth="yes"/>
      <point x="77" y="372"/>
      <point x="159" y="307"/>
      <point x="336" y="277" type="curve" smooth="yes"/>
      <point x="442" y="259"/>
      <point x="471" y="250"/>
      <point x="471" y="219" type="curve" smooth="yes"/>
      <point x="471" y="185"/>
      <point x="445" y="163"/>
      <point x="373" y="163" type="curve" smooth="yes"/>
      <point x="283" y="163"/>
      <point x="244" y="198"/>
      <point x="246" y="242" type="curve"/>
      <point x="11" y="242" type="line"/>
      <point x="5" y="100"/>
      <point x="133" y="7"/>
    </contour>
    <contour>
      <point x="206" y="-85" type="line"/>
      <point x="356" y="-85" type="line"/>
      <point x="390" y="82" type="line"/>
      <point x="240" y="82" type="line"/>
    </contour>
    <contour>
      <point x="357" y="646" type="line"/>
      <point x="507" y="646" type="line"/>
      <point x="542" y="815" type="line"/>
      <point x="392" y="815" type="line"/>
    </contour>
  </outline>
</glyph>
<glyph name="percent" format="2">
  <advance width="1062"/>
  <unicode hex="0025"/>
  <outline>
    <contour>
      <point x="141" y="0" type="line"/>
      <point x="315" y="0" type="line"/>
      <point x="970" y="729" type="line"/>
      <point x="796" y="729" type="line"/>
    </contour>
    <contour>
      <point x="284" y="343" type="curve" smooth="yes"/>
      <point x="415" y="343"/>
      <point x="503" y="423"/>
      <point x="503" y="545" type="curve" smooth="yes"/>
      <point x="503" y="652"/>
      <point x="429" y="729"/>
      <point x="298" y="729" type="curve" smooth="yes"/>
      <point x="168" y="729"/>
      <point x="80" y="649"/>
      <point x="80" y="527" type="curve" smooth="yes"/>
      <point x="80" y="420"/>
      <point x="154" y="343"/>
    </contour>
    <contour>
      <point x="286" y="466" type="curve" smooth="yes"/>
      <point x="259" y="466"/>
      <point x="240" y="483"/>
      <point x="240" y="518" type="curve" smooth="yes"/>
      <point x="240" y="576"/>
      <point x="258" y="606"/>
      <point x="297" y="606" type="curve" smooth="yes"/>
      <point x="324" y="606"/>
      <point x="343" y="589"/>
      <point x="343" y="554" type="curve" smooth="yes"/>
      <point x="343" y="496"/>
      <point x="325" y="466"/>
    </contour>
    <contour>
      <point x="800" y="-8" type="curve" smooth="yes"/>
      <point x="931" y="-8"/>
      <point x="1019" y="72"/>
      <point x="1019" y="194" type="curve" smooth="yes"/>
      <point x="1019" y="301"/>
      <point x="945" y="378"/>
      <point x="814" y="378" type="curve" smooth="yes"/>
      <point x="684" y="378"/>
      <point x="596" y="298"/>
      <point x="596" y="176" type="curve" smooth="yes"/>
      <point x="596" y="69"/>
      <point x="670" y="-8"/>
    </contour>
    <contour>
      <point x="802" y="115" type="curve" smooth="yes"/>
      <point x="775" y="115"/>
      <point x="756" y="132"/>
      <point x="756" y="167" type="curve" smooth="yes"/>
      <point x="756" y="225"/>
      <point x="774" y="255"/>
      <point x="813" y="255" type="curve" smooth="yes"/>
      <point x="840" y="255"/>
      <point x="859" y="238"/>
      <point x="859" y="203" type="curve" smooth="yes"/>
      <point x="859" y="145"/>
      <point x="841" y="115"/>
    </contour>
  </outline>
</glyph>
<glyph name="ampersand" format="2">
  <advance width="784"/>
  <unicode hex="0026"/>
  <outline>
    <contour>
      <point x="608" y="-12" type="curve" smooth="yes"/>
      <point x="638" y="-12"/>
      <point x="682" y="-7"/>
      <point x="710" y="5" type="curve"/>
      <point x="742" y="158" type="line"/>
      <point x="727" y="154"/>
      <point x="713" y="152"/>
      <point x="698" y="152" type="curve" smooth="yes"/>
      <point x="657" y="152"/>
      <point x="614" y="164"/>
      <point x="555" y="232" type="curve" smooth="yes"/>
      <point x="380" y="433" type="line" smooth="yes"/>
      <point x="353" y="464"/>
      <point x="339" y="489"/>
      <point x="339" y="519" type="curve" smooth="yes"/>
      <point x="339" y="555"/>
      <point x="363" y="579"/>
      <point x="399" y="579" type="curve" smooth="yes"/>
      <point x="425" y="579"/>
      <point x="443" y="561"/>
      <point x="443" y="534" type="curve" smooth="yes"/>
      <point x="443" y="495"/>
      <point x="402" y="465"/>
      <point x="346" y="443" type="curve"/>
      <point x="419" y="353" type="line"/>
      <point x="549" y="391"/>
      <point x="624" y="462"/>
      <point x="624" y="561" type="curve" smooth="yes"/>
      <point x="624" y="662"/>
      <point x="547" y="739"/>
      <point x="412" y="739" type="curve" smooth="yes"/>
      <point x="244" y="739"/>
      <point x="139" y="644"/>
      <point x="139" y="506" type="curve" smooth="yes"/>
      <point x="139" y="438"/>
      <point x="165" y="372"/>
      <point x="260" y="263" type="curve" smooth="yes"/>
      <point x="388" y="116" type="line" smooth="yes"/>
      <point x="471" y="21"/>
      <point x="530" y="-12"/>
    </contour>
    <contour>
      <point x="197" y="-10" type="curve" smooth="yes"/>
      <point x="302" y="-10"/>
      <point x="395" y="26"/>
      <point x="447" y="79" type="curve"/>
      <point x="348" y="185" type="line"/>
      <point x="331" y="166"/>
      <point x="302" y="154"/>
      <point x="270" y="154" type="curve" smooth="yes"/>
      <point x="236" y="154"/>
      <point x="213" y="177"/>
      <point x="213" y="211" type="curve" smooth="yes"/>
      <point x="213" y="247"/>
      <point x="237" y="273"/>
      <point x="272" y="290" type="curve"/>
      <point x="197" y="391" type="line"/>
      <point x="75" y="359"/>
      <point x="-6" y="277"/>
      <point x="-6" y="170" type="curve" smooth="yes"/>
      <point x="-6" y="59"/>
      <point x="76" y="-10"/>
    </contour>
    <contour>
      <point x="575" y="175" type="line"/>
      <point x="606" y="199"/>
      <point x="632" y="228"/>
      <point x="658" y="258" type="curve"/>
      <point x="741" y="258" type="line"/>
      <point x="750" y="400" type="line"/>
      <point x="565" y="400" type="line"/>
      <point x="556" y="368" type="line"/>
      <point x="530" y="328"/>
      <point x="506" y="294"/>
      <point x="489" y="281" type="curve"/>
    </contour>
  </outline>
</glyph>
<glyph name="quotesingle" format="2">
  <advance width="219"/>
  <unicode hex="0027"/>
  <anchor x="-49" y="0" name="#entry"/>
  <anchor x="200" y="0" name="#exit"/>
  <outline>
    <contour>
      <point x="95" y="410" type="line"/>
      <point x="181" y="410" type="line"/>
      <point x="267" y="600" type="line"/>
      <point x="294" y="729" type="line"/>
      <point x="116" y="729" type="line"/>
      <point x="89" y="600" type="line"/>
    </contour>
  </outline>
</glyph>
<glyph name="parenleft" format="2">
  <advance width="417"/>
  <unicode hex="0028"/>
  <outline>
    <contour>
      <point x="146" y="-167" type="curve"/>
      <point x="304" y="-167" type="line"/>
      <point x="224" y="-47"/>
      <point x="192" y="144"/>
      <point x="225" y="312" type="curve" smooth="yes"/>
      <point x="263" y="511"/>
      <point x="384" y="703"/>
      <point x="528" y="793" type="curve"/>
      <point x="338" y="793" type="line"/>
      <point x="189" y="709"/>
      <point x="65" y="525"/>
      <point x="28" y="331" type="curve" smooth="yes"/>
      <point x="-9" y="140"/>
      <point x="38" y="-59"/>
    </contour>
  </outline>
</glyph>
<glyph name="asterisk" format="2">
  <advance width="287"/>
  <unicode hex="002A"/>
  <outline>
    <contour>
      <point x="142" y="443" type="line"/>
      <point x="217" y="443" type="line"/>
      <point x="226" y="485" type="line"/>
      <point x="222" y="546" type="line"/>
      <point x="259" y="501" type="line"/>
      <point x="292" y="481" type="line"/>
      <point x="342" y="547" type="line"/>
      <point x="311" y="567" type="line"/>
      <point x="253" y="586" type="line"/>
      <point x="318" y="604" type="line"/>
      <point x="358" y="625" type="line"/>
      <point x="334" y="690" type="line"/>
      <point x="294" y="670" type="line"/>
      <point x="238" y="625" type="line"/>
      <point x="268" y="687" type="line"/>
      <point x="276" y="729" type="line"/>
      <point x="200" y="729" type="line"/>
      <point x="191" y="687" type="line"/>
      <point x="195" y="625" type="line"/>
      <point x="158" y="670" type="line"/>
      <point x="125" y="690" type="line"/>
      <point x="75" y="625" type="line"/>
      <point x="106" y="604" type="line"/>
      <point x="164" y="586" type="line"/>
      <point x="99" y="567" type="line"/>
      <point x="59" y="547" type="line"/>
      <point x="82" y="481" type="line"/>
      <point x="123" y="501" type="line"/>
      <point x="178" y="546" type="line"/>
      <point x="151" y="485" type="line"/>
    </contour>
  </outline>
</glyph>
<glyph name="plus" format="2">
  <advance width="720"/>
  <unicode hex="002B"/>
  <outline>
    <contour>
      <point x="230" y="98" type="line"/>
      <point x="415" y="98" type="line"/>
      <point x="451" y="274" type="line"/>
      <point x="620" y="274" type="line"/>
      <point x="657" y="448" type="line"/>
      <point x="488" y="448" type="line"/>
      <point x="525" y="624" type="line"/>
      <point x="341" y="624" type="line"/>
      <point x="304" y="448" type="line"/>
      <point x="136" y="448" type="line"/>
      <point x="99" y="274" type="line"/>
      <point x="267" y="274" type="line"/>
    </contour>
  </outline>
</glyph>
<glyph name="comma" format="2">
  <advance width="267"/>
  <unicode hex="002C"/>
  <anchor x="-11" y="0" name="#entry"/>
  <anchor x="265" y="0" name="#exit"/>
  <anchor x="188" y="554" name="top"/>
  <outline>
    <contour>
      <point x="-80" y="-167" type="curve"/>
      <point x="62" y="-167" type="line"/>
      <point x="148" y="-106"/>
      <point x="210" y="-11"/>
      <point x="210" y="64" type="curve" smooth="yes"/>
      <point x="210" y="131"/>
      <point x="168" y="175"/>
      <point x="91" y="175" type="curve" smooth="yes"/>
      <point x="16" y="175"/>
      <point x="-27" y="137"/>
      <point x="-27" y="79" type="curve" smooth="yes"/>
      <point x="-27" y="29"/>
      <point x="10" y="-4"/>
      <point x="76" y="-4" type="curve" smooth="yes"/>
      <point x="93" y="-4"/>
      <point x="106" y="-2"/>
      <point x="115" y="1" type="curve"/>
      <point x="102" y="22" type="line"/>
      <point x="75" y="-33"/>
      <point x="7" y="-104"/>
    </contour>
  </outline>
</glyph>
<glyph name="hyphen" format="2">
  <advance width="414"/>
  <unicode hex="002D"/>
  <outline>
    <contour>
      <point x="12" y="187" type="line"/>
      <point x="366" y="187" type="line"/>
      <point x="402" y="355" type="line"/>
      <point x="47" y="355" type="line"/>
    </contour>
  </outline>
</glyph>
<glyph name="period" format="2">
  <advance width="264"/>
  <unicode hex="002E"/>
  <anchor x="-77" y="0" name="#entry"/>
  <anchor x="229" y="0" name="#exit"/>
  <anchor x="110" y="175" name="_top"/>
  <anchor x="188" y="554" name="top"/>
  <outline>
    <contour>
      <point x="86" y="-10" type="curve" smooth="yes"/>
      <point x="167" y="-10"/>
      <point x="213" y="26"/>
      <point x="213" y="90" type="curve" smooth="yes"/>
      <point x="213" y="141"/>
      <point x="172" y="175"/>
      <point x="100" y="175" type="curve" smooth="yes"/>
      <point x="19" y="175"/>
      <point x="-27" y="139"/>
      <point x="-27" y="75" type="curve" smooth="yes"/>
      <point x="-27" y="24"/>
      <point x="14" y="-10"/>
    </contour>
  </outline>
</glyph>
<glyph name="slash" format="2">
  <advance width="520"/>
  <unicode hex="002F"/>
  <outline>
    <contour>
      <point x="-97" y="-82" type="line"/>
      <point x="126" y="-82" type="line"/>
      <point x="639" y="729" type="line"/>
      <point x="414" y="729" type="line"/>
    </contour>
  </outline>
</glyph>
<glyph name="zero" format="2">
  <advance width="803"/>
  <unicode hex="0030"/>
  <outline>
    <contour>
      <point x="385" y="-7" type="curve" smooth="yes"/>
      <point x="626" y="-7"/>
      <point x="799" y="139"/>
      <point x="808" y="394" type="curve" smooth="yes"/>
      <point x="815" y="594"/>
      <point x="685" y="727"/>
      <point x="454" y="727" type="curve" smooth="yes"/>
      <point x="211" y="727"/>
      <point x="40" y="581"/>
      <point x="31" y="327" type="curve" smooth="yes"/>
      <point x="24" y="127"/>
      <point x="153" y="-7"/>
    </contour>
    <contour>
      <point x="399" y="173" type="curve" smooth="yes"/>
      <point x="308" y="173"/>
      <point x="249" y="229"/>
      <point x="253" y="333" type="curve" smooth="yes"/>
      <point x="258" y="461"/>
      <point x="320" y="548"/>
      <point x="441" y="548" type="curve" smooth="yes"/>
      <point x="531" y="548"/>
      <point x="589" y="492"/>
      <point x="586" y="388" type="curve" smooth="yes"/>
      <point x="581" y="261"/>
      <point x="519" y="173"/>
    </contour>
  </outline>
</glyph>
<glyph name="one" format="2">
  <advance width="459"/>
  <unicode hex="0031"/>
  <outline>
    <contour>
      <point x="134" y="0" type="line"/>
      <point x="355" y="0" type="line"/>
      <point x="505" y="721" type="line"/>
      <point x="297" y="721" type="line"/>
      <point x="272" y="643"/>
      <point x="195" y="591"/>
      <point x="103" y="591" type="curve" smooth="yes"/>
      <point x="72" y="591" type="line"/>
      <point x="38" y="429" type="line"/>
      <point x="224" y="429" type="line"/>
    </contour>
  </outline>
</glyph>
<glyph name="two" format="2">
  <advance width="667"/>
  <unicode hex="0032"/>
  <outline>
    <contour>
      <point x="-28" y="0" type="line"/>
      <point x="599" y="0" type="line"/>
      <point x="630" y="170" type="line"/>
      <point x="298" y="170" type="line"/>
      <point x="415" y="243"/>
      <point x="680" y="293"/>
      <point x="680" y="507" type="curve" smooth="yes"/>
      <point x="680" y="650"/>
      <point x="563" y="730"/>
      <point x="389" y="730" type="curve" smooth="yes"/>
      <point x="207" y="730"/>
      <point x="74" y="639"/>
      <point x="53" y="476" type="curve"/>
      <point x="271" y="476" type="line"/>
      <point x="280" y="529"/>
      <point x="316" y="564"/>
      <point x="379" y="564" type="curve" smooth="yes"/>
      <point x="428" y="564"/>
      <point x="456" y="540"/>
      <point x="456" y="497" type="curve" smooth="yes"/>
      <point x="456" y="363"/>
      <point x="34" y="363"/>
      <point x="-22" y="38" type="curve" smooth="yes"/>
    </contour>
  </outline>
</glyph>
<glyph name="three" format="2">
  <advance width="680"/>
  <unicode hex="0033"/>
  <outline>
    <contour>
      <point x="301" y="-9" type="curve" smooth="yes"/>
      <point x="511" y="-9"/>
      <point x="656" y="75"/>
      <point x="656" y="222" type="curve" smooth="yes"/>
      <point x="656" y="292"/>
      <point x="606" y="351"/>
      <point x="544" y="365" type="curve"/>
      <point x="545" y="372" type="line"/>
      <point x="644" y="397"/>
      <point x="699" y="467"/>
      <point x="699" y="542" type="curve" smooth="yes"/>
      <point x="699" y="662"/>
      <point x="582" y="728"/>
      <point x="421" y="728" type="curve" smooth="yes"/>
      <point x="233" y="728"/>
      <point x="91" y="645"/>
      <point x="62" y="497" type="curve"/>
      <point x="276" y="497" type="line"/>
      <point x="291" y="539"/>
      <point x="329" y="567"/>
      <point x="390" y="567" type="curve" smooth="yes"/>
      <point x="443" y="567"/>
      <point x="478" y="548"/>
      <point x="478" y="509" type="curve" smooth="yes"/>
      <point x="478" y="460"/>
      <point x="434" y="436"/>
      <point x="359" y="436" type="curve" smooth="yes"/>
      <point x="271" y="436" type="line"/>
      <point x="242" y="296" type="line"/>
      <point x="332" y="296" type="line" smooth="yes"/>
      <point x="392" y="296"/>
      <point x="435" y="283"/>
      <point x="435" y="232" type="curve" smooth="yes"/>
      <point x="435" y="176"/>
      <point x="387" y="153"/>
      <point x="316" y="153" type="curve" smooth="yes"/>
      <point x="255" y="153"/>
      <point x="216" y="181"/>
      <point x="215" y="230" type="curve"/>
      <point x="-5" y="230" type="line"/>
      <point x="-6" y="87"/>
      <point x="103" y="-9"/>
    </contour>
  </outline>
</glyph>
<glyph name="four" format="2">
  <advance width="712"/>
  <unicode hex="0034"/>
  <outline>
    <contour>
      <point x="320" y="0" type="line"/>
      <point x="540" y="0" type="line"/>
      <point x="692" y="721" type="line"/>
      <point x="430" y="721" type="line"/>
      <point x="9" y="293" type="line"/>
      <point x="-22" y="144" type="line"/>
      <point x="678" y="144" type="line"/>
      <point x="715" y="316" type="line"/>
      <point x="246" y="316" type="line"/>
      <point x="459" y="540" type="line"/>
      <point x="433" y="540" type="line"/>
    </contour>
  </outline>
</glyph>
<glyph name="five" format="2">
  <advance width="687"/>
  <unicode hex="0035"/>
  <outline>
    <contour>
      <point x="312" y="-9" type="curve" smooth="yes"/>
      <point x="529" y="-9"/>
      <point x="674" y="100"/>
      <point x="674" y="262" type="curve" smooth="yes"/>
      <point x="674" y="392"/>
      <point x="576" y="474"/>
      <point x="436" y="474" type="curve" smooth="yes"/>
      <point x="384" y="474"/>
      <point x="322" y="464"/>
      <point x="292" y="445" type="curve"/>
      <point x="283" y="448" type="line"/>
      <point x="313" y="546" type="line"/>
      <point x="681" y="546" type="line"/>
      <point x="718" y="721" type="line"/>
      <point x="149" y="721" type="line"/>
      <point x="30" y="278" type="line"/>
      <point x="239" y="278" type="line"/>
      <point x="260" y="307"/>
      <point x="300" y="326"/>
      <point x="353" y="326" type="curve" smooth="yes"/>
      <point x="411" y="326"/>
      <point x="448" y="297"/>
      <point x="448" y="251" type="curve" smooth="yes"/>
      <point x="448" y="193"/>
      <point x="404" y="156"/>
      <point x="329" y="156" type="curve" smooth="yes"/>
      <point x="273" y="156"/>
      <point x="233" y="181"/>
      <point x="229" y="226" type="curve"/>
      <point x="8" y="226" type="line"/>
      <point x="10" y="85"/>
      <point x="119" y="-9"/>
    </contour>
  </outline>
</glyph>
<glyph name="six" format="2">
  <advance width="723"/>
  <unicode hex="0036"/>
  <outline>
    <contour>
      <point x="355" y="-10" type="curve" smooth="yes"/>
      <point x="564" y="-10"/>
      <point x="705" y="99"/>
      <point x="705" y="261" type="curve" smooth="yes"/>
      <point x="705" y="391"/>
      <point x="615" y="477"/>
      <point x="453" y="477" type="curve" smooth="yes"/>
      <point x="376" y="477"/>
      <point x="302" y="455"/>
      <point x="264" y="412" type="curve"/>
      <point x="255" y="414" type="line"/>
      <point x="269" y="502"/>
      <point x="332" y="561"/>
      <point x="429" y="561" type="curve" smooth="yes"/>
      <point x="484" y="561"/>
      <point x="527" y="539"/>
      <point x="536" y="507" type="curve"/>
      <point x="751" y="507" type="line"/>
      <point x="739" y="643"/>
      <point x="613" y="729"/>
      <point x="441" y="729" type="curve" smooth="yes"/>
      <point x="196" y="729"/>
      <point x="31" y="567"/>
      <point x="31" y="309" type="curve" smooth="yes"/>
      <point x="31" y="111"/>
      <point x="147" y="-10"/>
    </contour>
    <contour>
      <point x="360" y="157" type="curve" smooth="yes"/>
      <point x="297" y="157"/>
      <point x="256" y="185"/>
      <point x="256" y="234" type="curve" smooth="yes"/>
      <point x="256" y="296"/>
      <point x="306" y="327"/>
      <point x="380" y="327" type="curve" smooth="yes"/>
      <point x="443" y="327"/>
      <point x="484" y="300"/>
      <point x="484" y="252" type="curve" smooth="yes"/>
      <point x="484" y="186"/>
      <point x="433" y="157"/>
    </contour>
  </outline>
</glyph>
<glyph name="seven" format="2">
  <advance width="648"/>
  <unicode hex="0037"/>
  <outline>
    <contour>
      <point x="141" y="0" type="curve"/>
      <point x="362" y="0" type="line"/>
      <point x="403" y="208"/>
      <point x="501" y="388"/>
      <point x="706" y="568" type="curve"/>
      <point x="738" y="721" type="line"/>
      <point x="107" y="721" type="line"/>
      <point x="47" y="436" type="line"/>
      <point x="210" y="436" type="line"/>
      <point x="233" y="542" type="line"/>
      <point x="454" y="542" type="line"/>
      <point x="330" y="436"/>
      <point x="195" y="271"/>
    </contour>
  </outline>
</glyph>
<glyph name="eight" format="2">
  <advance width="698"/>
  <unicode hex="0038"/>
  <outline>
    <contour>
      <point x="320" y="-9" type="curve" smooth="yes"/>
      <point x="550" y="-9"/>
      <point x="666" y="79"/>
      <point x="671" y="210" type="curve" smooth="yes"/>
      <point x="673" y="287"/>
      <point x="622" y="348"/>
      <point x="555" y="361" type="curve"/>
      <point x="556" y="366" type="line"/>
      <point x="658" y="383"/>
      <point x="723" y="453"/>
      <point x="723" y="540" type="curve" smooth="yes"/>
      <point x="723" y="653"/>
      <point x="621" y="729"/>
      <point x="416" y="729" type="curve" smooth="yes"/>
      <point x="219" y="729"/>
      <point x="81" y="649"/>
      <point x="81" y="511" type="curve" smooth="yes"/>
      <point x="81" y="448"/>
      <point x="125" y="397"/>
      <point x="184" y="382" type="curve"/>
      <point x="182" y="375" type="line"/>
      <point x="78" y="363"/>
      <point x="-4" y="284"/>
      <point x="-4" y="180" type="curve" smooth="yes"/>
      <point x="-4" y="35"/>
      <point x="156" y="-9"/>
    </contour>
    <contour>
      <point x="337" y="155" type="curve" smooth="yes"/>
      <point x="271" y="155"/>
      <point x="227" y="175"/>
      <point x="227" y="219" type="curve" smooth="yes"/>
      <point x="227" y="266"/>
      <point x="265" y="296"/>
      <point x="345" y="296" type="curve" smooth="yes"/>
      <point x="410" y="296"/>
      <point x="452" y="273"/>
      <point x="452" y="230" type="curve" smooth="yes"/>
      <point x="452" y="186"/>
      <point x="412" y="155"/>
    </contour>
    <contour>
      <point x="395" y="434" type="curve" smooth="yes"/>
      <point x="338" y="434"/>
      <point x="297" y="456"/>
      <point x="297" y="494" type="curve" smooth="yes"/>
      <point x="297" y="541"/>
      <point x="339" y="565"/>
      <point x="403" y="565" type="curve" smooth="yes"/>
      <point x="457" y="565"/>
      <point x="497" y="544"/>
      <point x="497" y="505" type="curve" smooth="yes"/>
      <point x="497" y="459"/>
      <point x="456" y="434"/>
    </contour>
  </outline>
</glyph>
<glyph name="equal" format="2">
  <advance width="720"/>
  <unicode hex="003D"/>
  <anchor x="379" y="366" name="center"/>
  <outline>
    <contour>
      <point x="140" y="411" type="line"/>
      <point x="636" y="411" type="line"/>
      <point x="673" y="585" type="line"/>
      <point x="177" y="585" type="line"/>
    </contour>
    <contour>
      <point x="83" y="137" type="line"/>
      <point x="579" y="137" type="line"/>
      <point x="616" y="311" type="line"/>
      <point x="120" y="311" type="line"/>
    </contour>
  </outline>
</glyph>
<glyph name="greater" format="2">
  <advance width="720"/>
  <unicode hex="003E"/>
  <outline>
    <contour>
      <point x="47" y="58" type="line"/>
      <point x="639" y="242" type="line"/>
      <point x="689" y="475" type="line"/>
      <point x="174" y="664" type="line"/>
      <point x="130" y="455" type="line"/>
      <point x="459" y="367" type="line"/>
      <point x="457" y="351" type="line"/>
      <point x="90" y="266" type="line"/>
    </contour>
  </outline>
</glyph>
<glyph name="question" format="2">
  <advance width="593"/>
  <unicode hex="003F"/>
  <outline>
    <contour>
      <point x="192" y="234" type="line"/>
      <point x="389" y="234" type="line"/>
      <point x="391" y="240" type="line" smooth="yes"/>
      <point x="411" y="300"/>
      <point x="629" y="355"/>
      <point x="635" y="527" type="curve" smooth="yes"/>
      <point x="641" y="691"/>
      <point x="495" y="738"/>
      <point x="372" y="738" type="curve" smooth="yes"/>
      <point x="198" y="738"/>
      <point x="83" y="666"/>
      <point x="52" y="503" type="curve"/>
      <point x="256" y="503" type="line"/>
      <point x="269" y="546"/>
      <point x="289" y="570"/>
      <point x="347" y="570" type="curve" smooth="yes"/>
      <point x="372" y="570"/>
      <point x="414" y="562"/>
      <point x="412" y="512" type="curve" smooth="yes"/>
      <point x="409" y="418"/>
      <point x="220" y="390"/>
      <point x="196" y="256" type="curve" smooth="yes"/>
    </contour>
    <contour>
      <point x="261" y="-10" type="curve" smooth="yes"/>
      <point x="342" y="-10"/>
      <point x="388" y="26"/>
      <point x="388" y="90" type="curve" smooth="yes"/>
      <point x="388" y="141"/>
      <point x="347" y="175"/>
      <point x="275" y="175" type="curve" smooth="yes"/>
      <point x="194" y="175"/>
      <point x="148" y="139"/>
      <point x="148" y="75" type="curve" smooth="yes"/>
      <point x="148" y="24"/>
      <point x="189" y="-10"/>
    </contour>
  </outline>
</glyph>
<glyph name="at" format="2">
  <advance width="937"/>
  <unicode hex="0040"/>
  <outline>
    <contour>
      <point x="442" y="-103" type="curve" smooth="yes"/>
      <point x="553" y="-103"/>
      <point x="643" y="-75"/>
      <point x="695" y="-41" type="curve"/>
      <point x="665" y="65" type="line"/>
      <point x="619" y="41"/>
      <point x="564" y="22"/>
      <point x="478" y="22" type="curve" smooth="yes"/>
      <point x="292" y="22"/>
      <point x="171" y="114"/>
      <point x="171" y="283" type="curve" smooth="yes"/>
      <point x="171" y="479"/>
      <point x="311" y="612"/>
      <point x="517" y="612" type="curve" smooth="yes"/>
      <point x="679" y="612"/>
      <point x="796" y="527"/>
      <point x="796" y="381" type="curve" smooth="yes"/>
      <point x="796" y="305"/>
      <point x="764" y="207"/>
      <point x="690" y="207" type="curve" smooth="yes"/>
      <point x="641" y="207"/>
      <point x="638" y="252"/>
      <point x="658" y="317" type="curve" smooth="yes"/>
      <point x="711" y="497" type="line"/>
      <point x="622" y="497" type="line"/>
      <point x="597" y="459" type="line"/>
      <point x="589" y="460" type="line"/>
      <point x="574" y="493"/>
      <point x="529" y="515"/>
      <point x="475" y="515" type="curve" smooth="yes"/>
      <point x="349" y="515"/>
      <point x="259" y="417"/>
      <point x="259" y="274" type="curve" smooth="yes"/>
      <point x="259" y="177"/>
      <point x="315" y="112"/>
      <point x="411" y="112" type="curve" smooth="yes"/>
      <point x="462" y="112"/>
      <point x="506" y="129"/>
      <point x="529" y="160" type="curve"/>
      <point x="538" y="159" type="line"/>
      <point x="556" y="115"/>
      <point x="609" y="85"/>
      <point x="681" y="85" type="curve" smooth="yes"/>
      <point x="833" y="85"/>
      <point x="938" y="209"/>
      <point x="938" y="390" type="curve" smooth="yes"/>
      <point x="938" y="600"/>
      <point x="776" y="738"/>
      <point x="528" y="738" type="curve" smooth="yes"/>
      <point x="236" y="738"/>
      <point x="28" y="551"/>
      <point x="28" y="273" type="curve" smooth="yes"/>
      <point x="28" y="43"/>
      <point x="191" y="-103"/>
    </contour>
    <contour>
      <point x="455" y="227" type="curve" smooth="yes"/>
      <point x="419" y="227"/>
      <point x="397" y="249"/>
      <point x="397" y="291" type="curve" smooth="yes"/>
      <point x="397" y="336"/>
      <point x="425" y="394"/>
      <point x="483" y="394" type="curve" smooth="yes"/>
      <point x="531" y="394"/>
      <point x="545" y="357"/>
      <point x="539" y="303" type="curve"/>
      <point x="526" y="257"/>
      <point x="497" y="227"/>
    </contour>
  </outline>
</glyph>
<glyph name="A" format="2">
  <advance width="848"/>
  <unicode hex="0041"/>
  <anchor x="374" y="0" name="bottom"/>
  <anchor x="798" y="0" name="ogonek"/>
  <anchor x="512" y="729" name="top"/>
  <outline>
    <contour>
      <point x="-62" y="0" type="line"/>
      <point x="183" y="0" type="line"/>
      <point x="397" y="400" type="line"/>
      <point x="472" y="544" type="line"/>
      <point x="480" y="544" type="line"/>
      <point x="504" y="400" type="line"/>
      <point x="566" y="0" type="line"/>
      <point x="798" y="0" type="line"/>
      <point x="656" y="729" type="line"/>
      <point x="368" y="729" type="line"/>
    </contour>
    <contour>
      <point x="230" y="124" type="line"/>
      <point x="559" y="124" type="line"/>
      <point x="534" y="293" type="line"/>
      <point x="326" y="293" type="line"/>
    </contour>
  </outline>
</glyph>
<glyph name="B" format="2">
  <advance width="764"/>
  <unicode hex="0042"/>
  <anchor x="336" y="0" name="bottom"/>
  <anchor x="487" y="729" name="top"/>
  <outline>
    <contour>
      <point x="-9" y="0" type="line"/>
      <point x="425" y="0" type="line" smooth="yes"/>
      <point x="622" y="0"/>
      <point x="739" y="81"/>
      <point x="739" y="220" type="curve" smooth="yes"/>
      <point x="739" y="303"/>
      <point x="692" y="353"/>
      <point x="630" y="371" type="curve"/>
      <point x="631" y="378" type="line"/>
      <point x="727" y="403"/>
      <point x="781" y="467"/>
      <point x="781" y="556" type="curve" smooth="yes"/>
      <point x="781" y="665"/>
      <point x="704" y="729"/>
      <point x="549" y="729" type="curve" smooth="yes"/>
      <point x="143" y="729" type="line"/>
    </contour>
    <contour>
      <point x="251" y="155" type="line"/>
      <point x="338" y="573" type="line"/>
      <point x="472" y="573" type="line" smooth="yes"/>
      <point x="520" y="573"/>
      <point x="550" y="559"/>
      <point x="550" y="520" type="curve" smooth="yes"/>
      <point x="550" y="469"/>
      <point x="516" y="446"/>
      <point x="448" y="446" type="curve" smooth="yes"/>
      <point x="295" y="446" type="line"/>
      <point x="265" y="297" type="line"/>
      <point x="424" y="297" type="line" smooth="yes"/>
      <point x="478" y="297"/>
      <point x="511" y="281"/>
      <point x="511" y="238" type="curve" smooth="yes"/>
      <point x="511" y="181"/>
      <point x="474" y="155"/>
      <point x="397" y="155" type="curve" smooth="yes"/>
    </contour>
  </outline>
</glyph>
<glyph name="C" format="2">
  <advance width="844"/>
  <unicode hex="0043"/>
  <anchor x="410" y="0" name="bottom"/>
  <anchor x="506" y="729" name="top"/>
  <outline>
    <contour>
      <point x="422" y="-10" type="curve" smooth="yes"/>
      <point x="632" y="-10"/>
      <point x="802" y="87"/>
      <point x="836" y="255" type="curve"/>
      <point x="605" y="255" type="line"/>
      <point x="584" y="199"/>
      <point x="514" y="169"/>
      <point x="436" y="169" type="curve" smooth="yes"/>
      <point x="328" y="169"/>
      <point x="257" y="231"/>
      <point x="261" y="350" type="curve" smooth="yes"/>
      <point x="265" y="470"/>
      <point x="336" y="561"/>
      <point x="471" y="561" type="curve" smooth="yes"/>
      <point x="554" y="561"/>
      <point x="621" y="525"/>
      <point x="637" y="465" type="curve"/>
      <point x="867" y="465" type="line"/>
      <point x="858" y="628"/>
      <point x="705" y="738"/>
      <point x="479" y="738" type="curve" smooth="yes"/>
      <point x="219" y="738"/>
      <point x="40" y="580"/>
      <point x="32" y="341" type="curve" smooth="yes"/>
      <point x="24" y="128"/>
      <point x="169" y="-10"/>
    </contour>
  </outline>
</glyph>
<glyph name="D" format="2">
  <advance width="813"/>
  <unicode hex="0044"/>
  <anchor x="363" y="0" name="bottom"/>
  <anchor x="180" y="365" name="center"/>
  <anchor x="468" y="729" name="top"/>
  <outline>
    <contour>
      <point x="-9" y="0" type="line"/>
      <point x="362" y="0" type="line" smooth="yes"/>
      <point x="638" y="0"/>
      <point x="814" y="158"/>
      <point x="823" y="410" type="curve" smooth="yes"/>
      <point x="831" y="623"/>
      <point x="690" y="729"/>
      <point x="468" y="729" type="curve" smooth="yes"/>
      <point x="142" y="729" type="line"/>
    </contour>
    <contour>
      <point x="254" y="175" type="line"/>
      <point x="332" y="554" type="line"/>
      <point x="429" y="554" type="line" smooth="yes"/>
      <point x="530" y="554"/>
      <point x="596" y="509"/>
      <point x="592" y="398" type="curve" smooth="yes"/>
      <point x="587" y="260"/>
      <point x="503" y="175"/>
      <point x="368" y="175" type="curve" smooth="yes"/>
    </contour>
  </outline>
</glyph>
<glyph name="E" format="2">
  <advance width="703"/>
  <unicode hex="0045"/>
  <anchor x="308" y="0" name="bottom"/>
  <anchor x="625" y="0" name="ogonek"/>
  <anchor x="458" y="729" name="top"/>
  <anchor x="118" y="729" name="topleft"/>
  <outline>
    <contour>
      <point x="-9" y="0" type="line"/>
      <point x="625" y="0" type="line"/>
      <point x="662" y="179" type="line"/>
      <point x="210" y="179" type="line"/>
      <point x="246" y="135" type="line"/>
      <point x="342" y="594" type="line"/>
      <point x="288" y="550" type="line"/>
      <point x="736" y="550" type="line"/>
      <point x="773" y="729" type="line"/>
      <point x="142" y="729" type="line"/>
    </contour>
    <contour>
      <point x="232" y="282" type="line"/>
      <point x="631" y="282" type="line"/>
      <point x="666" y="449" type="line"/>
      <point x="267" y="449" type="line"/>
    </contour>
  </outline>
</glyph>
<glyph name="F" format="2">
  <advance width="657"/>
  <unicode hex="0046"/>
  <anchor x="283" y="0" name="bottom"/>
  <anchor x="434" y="729" name="top"/>
  <outline>
    <contour>
      <point x="-9" y="0" type="line"/>
      <point x="218" y="0" type="line"/>
      <point x="342" y="594" type="line"/>
      <point x="288" y="550" type="line"/>
      <point x="706" y="550" type="line"/>
      <point x="743" y="729" type="line"/>
      <point x="142" y="729" type="line"/>
    </contour>
    <contour>
      <point x="210" y="257" type="line"/>
      <point x="606" y="257" type="line"/>
      <point x="642" y="426" type="line"/>
      <point x="246" y="426" type="line"/>
    </contour>
  </outline>
</glyph>
<glyph name="G" format="2">
  <advance width="874"/>
  <unicode hex="0047"/>
  <anchor x="385" y="0" name="bottom"/>
  <anchor x="503" y="729" name="top"/>
  <outline>
    <contour>
      <point x="383" y="-10" type="curve" smooth="yes"/>
      <point x="484" y="-10"/>
      <point x="571" y="22"/>
      <point x="611" y="76" type="curve"/>
      <point x="617" y="76" type="line"/>
      <point x="616" y="0" type="line"/>
      <point x="790" y="0" type="line"/>
      <point x="876" y="410" type="line"/>
      <point x="464" y="410" type="line"/>
      <point x="434" y="261" type="line"/>
      <point x="626" y="261" type="line"/>
      <point x="611" y="278" type="line"/>
      <point x="607" y="253" type="line" smooth="yes"/>
      <point x="597" y="192"/>
      <point x="522" y="166"/>
      <point x="448" y="166" type="curve" smooth="yes"/>
      <point x="332" y="166"/>
      <point x="262" y="230"/>
      <point x="262" y="338" type="curve" smooth="yes"/>
      <point x="262" y="471"/>
      <point x="341" y="560"/>
      <point x="476" y="560" type="curve" smooth="yes"/>
      <point x="556" y="560"/>
      <point x="620" y="526"/>
      <point x="639" y="475" type="curve"/>
      <point x="871" y="475" type="line"/>
      <point x="864" y="630"/>
      <point x="698" y="738"/>
      <point x="479" y="738" type="curve" smooth="yes"/>
      <point x="198" y="738"/>
      <point x="31" y="554"/>
      <point x="31" y="320" type="curve" smooth="yes"/>
      <point x="31" y="122"/>
      <point x="170" y="-10"/>
    </contour>
  </outline>
</glyph>
<glyph name="H" format="2">
  <advance width="860"/>
  <unicode hex="0048"/>
  <anchor x="384" y="0" name="bottom"/>
  <anchor x="496" y="591" name="center"/>
  <anchor x="535" y="729" name="top"/>
  <anchor x="118" y="729" name="topleft"/>
  <outline>
    <contour>
      <point x="-9" y="0" type="line"/>
      <point x="218" y="0" type="line"/>
      <point x="369" y="729" type="line"/>
      <point x="142" y="729" type="line"/>
    </contour>
    <contour>
      <point x="529" y="0" type="line"/>
      <point x="756" y="0" type="line"/>
      <point x="908" y="729" type="line"/>
      <point x="680" y="729" type="line"/>
    </contour>
    <contour>
      <point x="216" y="280" type="line"/>
      <point x="648" y="280" type="line"/>
      <point x="685" y="458" type="line"/>
      <point x="253" y="458" type="line"/>
    </contour>
  </outline>
</glyph>
<glyph name="I" format="2">
  <advance width="321"/>
  <unicode hex="0049"/>
  <anchor x="105" y="0" name="bottom"/>
  <anchor x="218" y="0" name="ogonek"/>
  <anchor x="256" y="729" name="top"/>
  <anchor x="118" y="729" name="topleft"/>
  <outline>
    <contour>
      <point x="-9" y="0" type="line"/>
      <point x="218" y="0" type="line"/>
      <point x="369" y="729" type="line"/>
      <point x="142" y="729" type="line"/>
    </contour>
  </outline>
</glyph>
<glyph name="J" format="2">
  <advance width="429"/>
  <unicode hex="004A"/>
  <anchor x="180" y="0" name="bottom"/>
  <anchor x="372" y="729" name="top"/>
  <outline>
    <contour>
      <point x="-52" y="0" type="line"/>
      <point x="110" y="0" type="line" smooth="yes"/>
      <point x="262" y="0"/>
      <point x="352" y="82"/>
      <point x="382" y="229" type="curve" smooth="yes"/>
      <point x="485" y="729" type="line"/>
      <point x="258" y="729" type="line"/>
      <point x="158" y="242" type="line" smooth="yes"/>
      <point x="149" y="198"/>
      <point x="127" y="179"/>
      <point x="83" y="179" type="curve" smooth="yes"/>
      <point x="-15" y="179" type="line"/>
    </contour>
  </outline>
</glyph>
<glyph name="K" format="2">
  <advance width="857"/>
  <unicode hex="004B"/>
  <anchor x="381" y="0" name="bottom"/>
  <anchor x="532" y="729" name="top"/>
  <outline>
    <contour>
      <point x="546" y="0" type="line"/>
      <point x="810" y="0" type="line"/>
      <point x="572" y="419" type="line"/>
      <point x="930" y="729" type="line"/>
      <point x="639" y="729" type="line"/>
      <point x="295" y="419" type="line"/>
      <point x="241" y="160" type="line"/>
      <point x="391" y="286" type="line"/>
    </contour>
    <contour>
      <point x="-9" y="0" type="line"/>
      <point x="218" y="0" type="line"/>
      <point x="369" y="729" type="line"/>
      <point x="142" y="729" type="line"/>
    </contour>
  </outline>
</glyph>
<glyph name="L" format="2">
  <advance width="606"/>
  <unicode hex="004C"/>
  <anchor x="257" y="0" name="bottom"/>
  <anchor x="425" y="365" name="center"/>
  <anchor x="256" y="729" name="top"/>
  <anchor x="393" y="729" name="topright"/>
  <outline>
    <contour>
      <point x="-9" y="0" type="line"/>
      <point x="544" y="0" type="line"/>
      <point x="583" y="186" type="line"/>
      <point x="212" y="186" type="line"/>
      <point x="248" y="142" type="line"/>
      <point x="369" y="729" type="line"/>
      <point x="142" y="729" type="line"/>
    </contour>
  </outline>
</glyph>
<glyph name="M" format="2">
  <advance width="1017"/>
  <unicode hex="004D"/>
  <anchor x="452" y="0" name="bottom"/>
  <anchor x="603" y="729" name="top"/>
  <outline>
    <contour>
      <point x="-9" y="0" type="line"/>
      <point x="205" y="0" type="line"/>
      <point x="253" y="233" type="line"/>
      <point x="308" y="523" type="line"/>
      <point x="318" y="523" type="line"/>
      <point x="329" y="326" type="line"/>
      <point x="356" y="0" type="line"/>
      <point x="551" y="0" type="line"/>
      <point x="713" y="326" type="line"/>
      <point x="805" y="523" type="line"/>
      <point x="815" y="523" type="line"/>
      <point x="751" y="235" type="line"/>
      <point x="702" y="0" type="line"/>
      <point x="914" y="0" type="line"/>
      <point x="1065" y="729" type="line"/>
      <point x="724" y="729" type="line"/>
      <point x="564" y="387" type="line"/>
      <point x="506" y="247" type="line"/>
      <point x="498" y="247" type="line"/>
      <point x="498" y="387" type="line"/>
      <point x="477" y="729" type="line"/>
      <point x="142" y="729" type="line"/>
    </contour>
  </outline>
</glyph>
<glyph name="N" format="2">
  <advance width="871"/>
  <unicode hex="004E"/>
  <anchor x="380" y="0" name="bottom"/>
  <anchor x="531" y="729" name="top"/>
  <outline>
    <contour>
      <point x="-9" y="0" type="line"/>
      <point x="218" y="0" type="line"/>
      <point x="267" y="232" type="line"/>
      <point x="303" y="441" type="line"/>
      <point x="311" y="441" type="line"/>
      <point x="501" y="0" type="line"/>
      <point x="768" y="0" type="line"/>
      <point x="919" y="729" type="line"/>
      <point x="695" y="729" type="line"/>
      <point x="647" y="498" type="line"/>
      <point x="608" y="282" type="line"/>
      <point x="600" y="282" type="line"/>
      <point x="411" y="729" type="line"/>
      <point x="142" y="729" type="line"/>
    </contour>
  </outline>
</glyph>
<glyph name="O" format="2">
  <advance width="867"/>
  <unicode hex="004F"/>
  <anchor x="399" y="0" name="bottom"/>
  <anchor x="463" y="365" name="center"/>
  <anchor x="745" y="10" name="ogonek"/>
  <anchor x="506" y="729" name="top"/>
  <anchor x="114" y="729" name="topleft"/>
  <anchor x="659" y="709" name="topright"/>
  <outline>
    <contour>
      <point x="424" y="-10" type="curve" smooth="yes"/>
      <point x="686" y="-10"/>
      <point x="864" y="148"/>
      <point x="873" y="387" type="curve" smooth="yes"/>
      <point x="880" y="601"/>
      <point x="737" y="738"/>
      <point x="480" y="738" type="curve" smooth="yes"/>
      <point x="219" y="738"/>
      <point x="40" y="580"/>
      <point x="32" y="341" type="curve" smooth="yes"/>
      <point x="24" y="128"/>
      <point x="169" y="-10"/>
    </contour>
    <contour>
      <point x="434" y="169" type="curve" smooth="yes"/>
      <point x="327" y="169"/>
      <point x="257" y="233"/>
      <point x="261" y="350" type="curve" smooth="yes"/>
      <point x="265" y="470"/>
      <point x="336" y="559"/>
      <point x="471" y="559" type="curve" smooth="yes"/>
      <point x="577" y="559"/>
      <point x="647" y="495"/>
      <point x="643" y="379" type="curve" smooth="yes"/>
      <point x="639" y="260"/>
      <point x="569" y="169"/>
    </contour>
  </outline>
</glyph>
<glyph name="P" format="2">
  <advance width="737"/>
  <unicode hex="0050"/>
  <anchor x="325" y="0" name="bottom"/>
  <anchor x="476" y="729" name="top"/>
  <outline>
    <contour>
      <point x="-9" y="0" type="line"/>
      <point x="218" y="0" type="line"/>
      <point x="338" y="574" type="line"/>
      <point x="316" y="556" type="line"/>
      <point x="457" y="556" type="line" smooth="yes"/>
      <point x="516" y="556"/>
      <point x="545" y="538"/>
      <point x="544" y="489" type="curve" smooth="yes"/>
      <point x="542" y="426"/>
      <point x="504" y="398"/>
      <point x="428" y="398" type="curve" smooth="yes"/>
      <point x="285" y="398" type="line"/>
      <point x="253" y="241" type="line"/>
      <point x="452" y="241" type="line" smooth="yes"/>
      <point x="633" y="241"/>
      <point x="768" y="327"/>
      <point x="774" y="506" type="curve" smooth="yes"/>
      <point x="779" y="642"/>
      <point x="696" y="729"/>
      <point x="510" y="729" type="curve" smooth="yes"/>
      <point x="142" y="729" type="line"/>
    </contour>
  </outline>
</glyph>
<glyph name="R" format="2">
  <advance width="802"/>
  <unicode hex="0052"/>
  <anchor x="359" y="0" name="bottom"/>
  <anchor x="455" y="729" name="top"/>
  <outline>
    <contour>
      <point x="-9" y="0" type="line"/>
      <point x="219" y="0" type="line"/>
      <point x="335" y="558" type="line"/>
      <point x="510" y="558" type="line" smooth="yes"/>
      <point x="574" y="558"/>
      <point x="615" y="535"/>
      <point x="602" y="473" type="curve" smooth="yes"/>
      <point x="592" y="427"/>
      <point x="553" y="404"/>
      <point x="481" y="405" type="curve" smooth="yes"/>
      <point x="287" y="405" type="line"/>
      <point x="253" y="243" type="line"/>
      <point x="436" y="243" type="line" smooth="yes"/>
      <point x="502" y="243"/>
      <point x="524" y="214"/>
      <point x="512" y="160" type="curve" smooth="yes"/>
      <point x="495" y="81" type="line" smooth="yes"/>
      <point x="487" y="43"/>
      <point x="485" y="22"/>
      <point x="488" y="0" type="curve"/>
      <point x="717" y="0" type="line"/>
      <point x="715" y="23"/>
      <point x="716" y="41"/>
      <point x="724" y="81" type="curve" smooth="yes"/>
      <point x="744" y="178" type="line" smooth="yes"/>
      <point x="760" y="257"/>
      <point x="734" y="304"/>
      <point x="661" y="324" type="curve"/>
      <point x="663" y="331" type="line"/>
      <point x="749" y="350"/>
      <point x="813" y="408"/>
      <point x="830" y="490" type="curve" smooth="yes"/>
      <point x="847" y="568"/>
      <point x="833" y="729"/>
      <point x="582" y="729" type="curve" smooth="yes"/>
      <point x="142" y="729" type="line"/>
    </contour>
  </outline>
</glyph>
<glyph name="S" format="2">
  <advance width="735"/>
  <unicode hex="0053"/>
  <anchor x="359" y="0" name="bottom"/>
  <anchor x="436" y="729" name="top"/>
  <outline>
    <contour>
      <point x="357" y="-10" type="curve" smooth="yes"/>
      <point x="590" y="-10"/>
      <point x="717" y="80"/>
      <point x="717" y="243" type="curve" smooth="yes"/>
      <point x="717" y="391"/>
      <point x="606" y="434"/>
      <point x="440" y="461" type="curve" smooth="yes"/>
      <point x="342" y="477"/>
      <point x="310" y="487"/>
      <point x="310" y="525" type="curve" smooth="yes"/>
      <point x="310" y="563"/>
      <point x="344" y="585"/>
      <point x="406" y="585" type="curve" smooth="yes"/>
      <point x="469" y="585"/>
      <point x="516" y="560"/>
      <point x="518" y="514" type="curve"/>
      <point x="746" y="514" type="line"/>
      <point x="747" y="646"/>
      <point x="616" y="739"/>
      <point x="410" y="739" type="curve" smooth="yes"/>
      <point x="222" y="739"/>
      <point x="70" y="659"/>
      <point x="70" y="491" type="curve" smooth="yes"/>
      <point x="70" y="373"/>
      <point x="154" y="308"/>
      <point x="339" y="276" type="curve" smooth="yes"/>
      <point x="448" y="257"/>
      <point x="478" y="247"/>
      <point x="478" y="210" type="curve" smooth="yes"/>
      <point x="478" y="170"/>
      <point x="449" y="145"/>
      <point x="370" y="145" type="curve" smooth="yes"/>
      <point x="275" y="145"/>
      <point x="232" y="183"/>
      <point x="235" y="234" type="curve"/>
      <point x="0" y="234" type="line"/>
      <point x="-7" y="86"/>
      <point x="125" y="-10"/>
    </contour>
  </outline>
</glyph>
<glyph name="T" format="2">
  <advance width="656"/>
  <unicode hex="0054"/>
  <anchor x="268" y="0" name="bottom"/>
  <anchor x="335" y="324" name="center"/>
  <anchor x="419" y="729" name="top"/>
  <outline>
    <contour>
      <point x="155" y="0" type="line"/>
      <point x="381" y="0" type="line"/>
      <point x="498" y="564" type="line"/>
      <point x="272" y="564" type="line"/>
    </contour>
    <contour>
      <point x="61" y="548" type="line"/>
      <point x="709" y="548" type="line"/>
      <point x="747" y="729" type="line"/>
      <point x="99" y="729" type="line"/>
    </contour>
  </outline>
</glyph>
<glyph name="U" format="2">
  <advance width="793"/>
  <unicode hex="0055"/>
  <anchor x="347" y="0" name="bottom"/>
  <anchor x="505" y="0" name="ogonek"/>
  <anchor x="490" y="729" name="top"/>
  <anchor x="657" y="729" name="topright"/>
  <outline>
    <contour>
      <point x="368" y="-10" type="curve" smooth="yes"/>
      <point x="609" y="-10"/>
      <point x="719" y="94"/>
      <point x="759" y="283" type="curve" smooth="yes"/>
      <point x="853" y="729" type="line"/>
      <point x="629" y="729" type="line"/>
      <point x="538" y="293" type="line" smooth="yes"/>
      <point x="523" y="223"/>
      <point x="480" y="176"/>
      <point x="383" y="176" type="curve" smooth="yes"/>
      <point x="282" y="176"/>
      <point x="246" y="228"/>
      <point x="263" y="310" type="curve" smooth="yes"/>
      <point x="350" y="729" type="line"/>
      <point x="127" y="729" type="line"/>
      <point x="43" y="325" type="line" smooth="yes"/>
      <point x="-1" y="112"/>
      <point x="116" y="-10"/>
    </contour>
  </outline>
</glyph>
<glyph name="V" format="2">
  <advance width="862"/>
  <unicode hex="0056"/>
  <anchor x="386" y="0" name="bottom"/>
  <anchor x="537" y="729" name="top"/>
  <outline>
    <contour>
      <point x="233" y="0" type="line"/>
      <point x="526" y="0" type="line"/>
      <point x="963" y="729" type="line"/>
      <point x="708" y="729" type="line"/>
      <point x="495" y="341" type="line"/>
      <point x="406" y="180" type="line"/>
      <point x="398" y="180" type="line"/>
      <point x="377" y="340" type="line"/>
      <point x="325" y="729" type="line"/>
      <point x="88" y="729" type="line"/>
    </contour>
  </outline>
</glyph>
<glyph name="W" format="2">
  <advance width="1102"/>
  <unicode hex="0057"/>
  <anchor x="501" y="0" name="bottom"/>
  <anchor x="652" y="729" name="top"/>
  <outline>
    <contour>
      <point x="122" y="0" type="line"/>
      <point x="419" y="0" type="line"/>
      <point x="507" y="219" type="line"/>
      <point x="570" y="376" type="line"/>
      <point x="578" y="376" type="line"/>
      <point x="579" y="214" type="line"/>
      <point x="581" y="0" type="line"/>
      <point x="876" y="0" type="line"/>
      <point x="1199" y="729" type="line"/>
      <point x="954" y="729" type="line"/>
      <point x="824" y="383" type="line"/>
      <point x="766" y="228" type="line"/>
      <point x="757" y="228" type="line"/>
      <point x="759" y="382" type="line"/>
      <point x="763" y="729" type="line"/>
      <point x="525" y="729" type="line"/>
      <point x="382" y="367" type="line"/>
      <point x="328" y="230" type="line"/>
      <point x="317" y="230" type="line"/>
      <point x="319" y="364" type="line"/>
      <point x="325" y="729" type="line"/>
      <point x="92" y="729" type="line"/>
    </contour>
  </outline>
</glyph>
<glyph name="X" format="2">
  <advance width="861"/>
  <unicode hex="0058"/>
  <anchor x="385" y="0" name="bottom"/>
  <anchor x="536" y="729" name="top"/>
  <outline>
    <contour>
      <point x="-64" y="0" type="line"/>
      <point x="212" y="0" type="line"/>
      <point x="352" y="149" type="line"/>
      <point x="417" y="218" type="line"/>
      <point x="425" y="218" type="line"/>
      <point x="457" y="158" type="line"/>
      <point x="541" y="0" type="line"/>
      <point x="813" y="0" type="line"/>
      <point x="602" y="370" type="line"/>
      <point x="945" y="729" type="line"/>
      <point x="662" y="729" type="line"/>
      <point x="558" y="607" type="line"/>
      <point x="487" y="525" type="line"/>
      <point x="479" y="525" type="line"/>
      <point x="439" y="605" type="line"/>
      <point x="378" y="729" type="line"/>
      <point x="107" y="729" type="line"/>
      <point x="309" y="384" type="line"/>
    </contour>
  </outline>
</glyph>
<glyph name="Y" format="2">
  <advance width="824"/>
  <unicode hex="0059"/>
  <anchor x="354" y="0" name="bottom"/>
  <anchor x="504" y="729" name="top"/>
  <anchor x="119" y="729" name="topleft"/>
  <outline>
    <contour>
      <point x="240" y="0" type="line"/>
      <point x="467" y="0" type="line"/>
      <point x="520" y="259" type="line"/>
      <point x="928" y="729" type="line"/>
      <point x="663" y="729" type="line"/>
      <point x="547" y="584" type="line"/>
      <point x="440" y="447" type="line"/>
      <point x="431" y="447" type="line"/>
      <point x="383" y="584" type="line"/>
      <point x="328" y="729" type="line"/>
      <point x="86" y="729" type="line"/>
      <point x="296" y="274" type="line"/>
    </contour>
  </outline>
</glyph>
<glyph name="Z" format="2">
  <advance width="693"/>
  <unicode hex="005A"/>
  <anchor x="290" y="0" name="bottom"/>
  <anchor x="365" y="365" name="center"/>
  <anchor x="441" y="729" name="top"/>
  <outline>
    <contour>
      <point x="-41" y="0" type="line"/>
      <point x="619" y="0" type="line"/>
      <point x="656" y="179" type="line"/>
      <point x="288" y="179" type="line"/>
      <point x="723" y="550" type="line"/>
      <point x="760" y="729" type="line"/>
      <point x="130" y="729" type="line"/>
      <point x="93" y="549" type="line"/>
      <point x="430" y="549" type="line"/>
      <point x="-5" y="177" type="line"/>
    </contour>
  </outline>
</glyph>
<glyph name="bracketleft" format="2">
  <advance width="393"/>
  <unicode hex="005B"/>
  <outline>
    <contour>
      <point x="-41" y="-167" type="line"/>
      <point x="286" y="-167" type="line"/>
      <point x="319" y="-12" type="line"/>
      <point x="182" y="-12" type="line"/>
      <point x="317" y="638" type="line"/>
      <point x="456" y="638" type="line"/>
      <point x="488" y="793" type="line"/>
      <point x="160" y="793" type="line"/>
    </contour>
  </outline>
</glyph>
<glyph name="backslash" format="2">
  <advance width="488"/>
  <unicode hex="005C"/>
  <outline>
    <contour>
      <point x="242" y="-82" type="line"/>
      <point x="439" y="-82" type="line"/>
      <point x="269" y="729" type="line"/>
      <point x="71" y="729" type="line"/>
    </contour>
  </outline>
</glyph>
<glyph name="asciicircum" format="2">
  <advance width="720"/>
  <unicode hex="005E"/>
  <outline>
    <contour>
      <point x="160" y="467" type="line"/>
      <point x="312" y="467" type="line"/>
      <point x="425" y="579" type="line"/>
      <point x="489" y="467" type="line"/>
      <point x="642" y="467" type="line"/>
      <point x="522" y="729" type="line"/>
      <point x="391" y="729" type="line"/>
    </contour>
  </outline>
</glyph>
<glyph name="underscore" format="2">
  <advance width="483"/>
  <unicode hex="005F"/>
  <outline>
    <contour>
      <point x="-60" y="-158" type="line"/>
      <point x="364" y="-158" type="line"/>
      <point x="397" y="0" type="line"/>
      <point x="-26" y="0" type="line"/>
    </contour>
  </outline>
</glyph>
<glyph name="a" format="2">
  <advance width="723"/>
  <unicode hex="0061"/>
  <anchor x="310" y="0" name="bottom"/>
  <anchor x="622" y="0" name="ogonek"/>
  <anchor x="422" y="544" name="top"/>
  <outline>
    <contour>
      <point x="248" y="-10" type="curve" smooth="yes"/>
      <point x="320" y="-10"/>
      <point x="372" y="14"/>
      <point x="407" y="52" type="curve"/>
      <point x="415" y="52" type="line"/>
      <point x="411" y="0" type="line"/>
      <point x="622" y="0" type="line"/>
      <point x="736" y="544" type="line"/>
      <point x="521" y="544" type="line"/>
      <point x="494" y="457" type="line"/>
      <point x="486" y="457" type="line"/>
      <point x="463" y="519"/>
      <point x="384" y="554"/>
      <point x="303" y="554" type="curve" smooth="yes"/>
      <point x="137" y="554"/>
      <point x="21" y="434"/>
      <point x="13" y="248" type="curve" smooth="yes"/>
      <point x="5" y="93"/>
      <point x="100" y="-10"/>
    </contour>
    <contour>
      <point x="334" y="154" type="curve" smooth="yes"/>
      <point x="275" y="154"/>
      <point x="231" y="193"/>
      <point x="234" y="256" type="curve" smooth="yes"/>
      <point x="236" y="337"/>
      <point x="286" y="389"/>
      <point x="358" y="387" type="curve" smooth="yes"/>
      <point x="429" y="384"/>
      <point x="472" y="333"/>
      <point x="455" y="264" type="curve" smooth="yes"/>
      <point x="451" y="248" type="line" smooth="yes"/>
      <point x="437" y="192"/>
      <point x="403" y="154"/>
    </contour>
  </outline>
</glyph>
<glyph name="b" format="2">
  <advance width="724"/>
  <unicode hex="0062"/>
  <anchor x="322" y="0" name="bottom"/>
  <anchor x="473" y="729" name="top"/>
  <outline>
    <contour>
      <point x="420" y="-10" type="curve" smooth="yes"/>
      <point x="592" y="-10"/>
      <point x="711" y="119"/>
      <point x="711" y="314" type="curve" smooth="yes"/>
      <point x="711" y="459"/>
      <point x="618" y="554"/>
      <point x="475" y="554" type="curve" smooth="yes"/>
      <point x="403" y="554"/>
      <point x="351" y="530"/>
      <point x="316" y="492" type="curve"/>
      <point x="309" y="492" type="line"/>
      <point x="358" y="729" type="line"/>
      <point x="139" y="729" type="line"/>
      <point x="-13" y="0" type="line"/>
      <point x="202" y="0" type="line"/>
      <point x="229" y="87" type="line"/>
      <point x="237" y="87" type="line"/>
      <point x="260" y="25"/>
      <point x="339" y="-10"/>
    </contour>
    <contour>
      <point x="369" y="157" type="curve" smooth="yes"/>
      <point x="295" y="157"/>
      <point x="255" y="209"/>
      <point x="269" y="280" type="curve" smooth="yes"/>
      <point x="272" y="296" type="line" smooth="yes"/>
      <point x="284" y="353"/>
      <point x="321" y="390"/>
      <point x="389" y="390" type="curve" smooth="yes"/>
      <point x="447" y="390"/>
      <point x="489" y="354"/>
      <point x="489" y="294" type="curve" smooth="yes"/>
      <point x="489" y="212"/>
      <point x="441" y="157"/>
    </contour>
  </outline>
</glyph>
<glyph name="c" format="2">
  <advance width="676"/>
  <unicode hex="0063"/>
  <anchor x="322" y="0" name="bottom"/>
  <anchor x="360" y="544" name="top"/>
  <outline>
    <contour>
      <point x="324" y="-9" type="curve" smooth="yes"/>
      <point x="510" y="-9"/>
      <point x="640" y="79"/>
      <point x="657" y="209" type="curve"/>
      <point x="441" y="209" type="line"/>
      <point x="426" y="173"/>
      <point x="383" y="157"/>
      <point x="338" y="157" type="curve" smooth="yes"/>
      <point x="274" y="157"/>
      <point x="231" y="195"/>
      <point x="231" y="255" type="curve" smooth="yes"/>
      <point x="231" y="335"/>
      <point x="280" y="387"/>
      <point x="357" y="387" type="curve" smooth="yes"/>
      <point x="409" y="387"/>
      <point x="448" y="364"/>
      <point x="454" y="329" type="curve"/>
      <point x="671" y="329" type="line"/>
      <point x="667" y="464"/>
      <point x="543" y="554"/>
      <point x="362" y="554" type="curve" smooth="yes"/>
      <point x="152" y="554"/>
      <point x="13" y="437"/>
      <point x="13" y="256" type="curve" smooth="yes"/>
      <point x="13" y="97"/>
      <point x="126" y="-9"/>
    </contour>
  </outline>
</glyph>
<glyph name="d" format="2">
  <advance width="719"/>
  <unicode hex="0064"/>
  <anchor x="310" y="0" name="bottom"/>
  <anchor x="610" y="631" name="center"/>
  <anchor x="461" y="729" name="top"/>
  <anchor x="771" y="729" name="topright"/>
  <outline>
    <contour>
      <point x="248" y="-10" type="curve" smooth="yes"/>
      <point x="320" y="-10"/>
      <point x="372" y="13"/>
      <point x="407" y="52" type="curve"/>
      <point x="415" y="52" type="line"/>
      <point x="412" y="0" type="line"/>
      <point x="619" y="0" type="line"/>
      <point x="771" y="729" type="line"/>
      <point x="550" y="729" type="line"/>
      <point x="494" y="457" type="line"/>
      <point x="486" y="457" type="line"/>
      <point x="463" y="519"/>
      <point x="385" y="554"/>
      <point x="303" y="554" type="curve" smooth="yes"/>
      <point x="137" y="554"/>
      <point x="21" y="433"/>
      <point x="13" y="248" type="curve" smooth="yes"/>
      <point x="5" y="92"/>
      <point x="100" y="-10"/>
    </contour>
    <contour>
      <point x="334" y="154" type="curve" smooth="yes"/>
      <point x="274" y="154"/>
      <point x="231" y="193"/>
      <point x="234" y="256" type="curve" smooth="yes"/>
      <point x="237" y="337"/>
      <point x="286" y="389"/>
      <point x="358" y="387" type="curve" smooth="yes"/>
      <point x="429" y="384"/>
      <point x="467" y="334"/>
      <point x="454" y="264" type="curve" smooth="yes"/>
      <point x="451" y="248" type="line" smooth="yes"/>
      <point x="440" y="191"/>
      <point x="402" y="154"/>
    </contour>
  </outline>
</glyph>
<glyph name="e" format="2">
  <advance width="690"/>
  <unicode hex="0065"/>
  <anchor x="333" y="0" name="bottom"/>
  <anchor x="480" y="0" name="ogonek"/>
  <anchor x="375" y="544" name="top"/>
  <outline>
    <contour>
      <point x="331" y="-9" type="curve" smooth="yes"/>
      <point x="502" y="-9"/>
      <point x="635" y="64"/>
      <point x="661" y="180" type="curve"/>
      <point x="439" y="180" type="line"/>
      <point x="423" y="157"/>
      <point x="385" y="140"/>
      <point x="333" y="140" type="curve" smooth="yes"/>
      <point x="270" y="140"/>
      <point x="225" y="171"/>
      <point x="227" y="219" type="curve"/>
      <point x="670" y="219" type="line"/>
      <point x="702" y="422"/>
      <point x="577" y="554"/>
      <point x="361" y="554" type="curve" smooth="yes"/>
      <point x="152" y="554"/>
      <point x="13" y="437"/>
      <point x="13" y="256" type="curve" smooth="yes"/>
      <point x="13" y="97"/>
      <point x="126" y="-9"/>
    </contour>
    <contour>
      <point x="241" y="331" type="line"/>
      <point x="248" y="377"/>
      <point x="293" y="409"/>
      <point x="357" y="409" type="curve" smooth="yes"/>
      <point x="423" y="409"/>
      <point x="456" y="375"/>
      <point x="459" y="329" type="curve"/>
      <point x="469" y="334" type="line"/>
      <point x="230" y="334" type="line"/>
    </contour>
  </outline>
</glyph>
<glyph name="f" format="2">
  <advance width="428"/>
  <unicode hex="0066"/>
  <anchor x="174" y="0" name="bottom"/>
  <anchor x="325" y="729" name="top"/>
  <outline>
    <contour>
      <point x="36" y="0" type="line"/>
      <point x="255" y="0" type="line"/>
      <point x="333" y="379" type="line"/>
      <point x="447" y="379" type="line"/>
      <point x="481" y="544" type="line"/>
      <point x="368" y="544" type="line"/>
      <point x="370" y="554" type="line" smooth="yes"/>
      <point x="375" y="578"/>
      <point x="387" y="589"/>
      <point x="430" y="589" type="curve" smooth="yes"/>
      <point x="495" y="589" type="line"/>
      <point x="525" y="729" type="line"/>
      <point x="374" y="729" type="line" smooth="yes"/>
      <point x="244" y="729"/>
      <point x="176" y="677"/>
      <point x="157" y="587" type="curve" smooth="yes"/>
      <point x="148" y="544" type="line"/>
      <point x="61" y="544" type="line"/>
      <point x="26" y="379" type="line"/>
      <point x="114" y="379" type="line"/>
    </contour>
  </outline>
</glyph>
<glyph name="g" format="2">
  <advance width="695"/>
  <unicode hex="0067"/>
  <anchor x="262" y="-167" name="bottom"/>
  <anchor x="409" y="544" name="top"/>
  <outline>
    <contour>
      <point x="272" y="-177" type="curve" smooth="yes"/>
      <point x="435" y="-177"/>
      <point x="569" y="-125"/>
      <point x="606" y="53" type="curve" smooth="yes"/>
      <point x="709" y="544" type="line"/>
      <point x="505" y="544" type="line"/>
      <point x="476" y="467" type="line"/>
      <point x="467" y="467" type="line"/>
      <point x="443" y="518"/>
      <point x="371" y="554"/>
      <point x="286" y="554" type="curve" smooth="yes"/>
      <point x="130" y="554"/>
      <point x="24" y="442"/>
      <point x="16" y="270" type="curve" smooth="yes"/>
      <point x="9" y="129"/>
      <point x="101" y="38"/>
      <point x="247" y="38" type="curve" smooth="yes"/>
      <point x="309" y="38"/>
      <point x="365" y="60"/>
      <point x="389" y="96" type="curve"/>
      <point x="395" y="96" type="line"/>
      <point x="383" y="38" type="line" smooth="yes"/>
      <point x="370" y="-24"/>
      <point x="323" y="-36"/>
      <point x="276" y="-36" type="curve" smooth="yes"/>
      <point x="228" y="-36"/>
      <point x="188" y="-24"/>
      <point x="184" y="3" type="curve"/>
      <point x="-22" y="3" type="line"/>
      <point x="-20" y="-105"/>
      <point x="79" y="-177"/>
    </contour>
    <contour>
      <point x="329" y="196" type="curve" smooth="yes"/>
      <point x="277" y="196"/>
      <point x="235" y="228"/>
      <point x="238" y="288" type="curve" smooth="yes"/>
      <point x="241" y="356"/>
      <point x="281" y="398"/>
      <point x="347" y="398" type="curve" smooth="yes"/>
      <point x="408" y="398"/>
      <point x="451" y="356"/>
      <point x="437" y="292" type="curve" smooth="yes"/>
      <point x="433" y="275" type="line" smooth="yes"/>
      <point x="423" y="223"/>
      <point x="388" y="196"/>
    </contour>
  </outline>
</glyph>
<glyph name="h" format="2">
  <advance width="714"/>
  <unicode hex="0068"/>
  <anchor x="319" y="0" name="bottom"/>
  <anchor x="257" y="631" name="center"/>
  <anchor x="247" y="729" name="top"/>
  <outline>
    <contour>
      <point x="-13" y="0" type="line"/>
      <point x="206" y="0" type="line"/>
      <point x="265" y="282" type="line" smooth="yes"/>
      <point x="280" y="353"/>
      <point x="322" y="389"/>
      <point x="389" y="389" type="curve" smooth="yes"/>
      <point x="449" y="389"/>
      <point x="482" y="347"/>
      <point x="464" y="261" type="curve" smooth="yes"/>
      <point x="409" y="0" type="line"/>
      <point x="628" y="0" type="line"/>
      <point x="687" y="282" type="line" smooth="yes"/>
      <point x="724" y="461"/>
      <point x="637" y="554"/>
      <point x="490" y="554" type="curve" smooth="yes"/>
      <point x="420" y="554"/>
      <point x="348" y="523"/>
      <point x="312" y="478" type="curve"/>
      <point x="306" y="478" type="line"/>
      <point x="356" y="729" type="line"/>
      <point x="138" y="729" type="line"/>
    </contour>
  </outline>
</glyph>
<glyph name="k" format="2">
  <advance width="724"/>
  <unicode hex="006B"/>
  <anchor x="322" y="0" name="bottom"/>
  <anchor x="473" y="729" name="top"/>
  <outline>
    <contour>
      <point x="-13" y="0" type="line"/>
      <point x="206" y="0" type="line"/>
      <point x="236" y="142" type="line"/>
      <point x="313" y="202" type="line"/>
      <point x="338" y="151" type="line"/>
      <point x="422" y="0" type="line"/>
      <point x="677" y="0" type="line"/>
      <point x="486" y="321" type="line"/>
      <point x="785" y="544" type="line"/>
      <point x="505" y="544" type="line"/>
      <point x="334" y="409" type="line"/>
      <point x="283" y="366" type="line"/>
      <point x="357" y="729" type="line"/>
      <point x="138" y="729" type="line"/>
    </contour>
  </outline>
</glyph>
<glyph name="l" format="2">
  <advance width="305"/>
  <unicode hex="006C"/>
  <anchor x="97" y="0" name="bottom"/>
  <anchor x="172" y="365" name="center"/>
  <anchor x="248" y="729" name="top"/>
  <anchor x="357" y="729" name="topright"/>
  <outline>
    <contour>
      <point x="-13" y="0" type="line"/>
      <point x="206" y="0" type="line"/>
      <point x="357" y="729" type="line"/>
      <point x="138" y="729" type="line"/>
    </contour>
  </outline>
</glyph>
<glyph name="m" format="2">
  <advance width="1101"/>
  <unicode hex="006D"/>
  <anchor x="513" y="0" name="bottom"/>
  <anchor x="625" y="544" name="top"/>
  <outline>
    <contour>
      <point x="-13" y="0" type="line"/>
      <point x="207" y="0" type="line"/>
      <point x="265" y="284" type="line" smooth="yes"/>
      <point x="280" y="352"/>
      <point x="318" y="389"/>
      <point x="381" y="389" type="curve" smooth="yes"/>
      <point x="446" y="389"/>
      <point x="462" y="337"/>
      <point x="446" y="260" type="curve" smooth="yes"/>
      <point x="391" y="0" type="line"/>
      <point x="611" y="0" type="line"/>
      <point x="671" y="291" type="line" smooth="yes"/>
      <point x="684" y="354"/>
      <point x="725" y="389"/>
      <point x="785" y="389" type="curve" smooth="yes"/>
      <point x="850" y="389"/>
      <point x="866" y="337"/>
      <point x="851" y="260" type="curve" smooth="yes"/>
      <point x="796" y="0" type="line"/>
      <point x="1016" y="0" type="line"/>
      <point x="1074" y="284" type="line" smooth="yes"/>
      <point x="1109" y="448"/>
      <point x="1038" y="554"/>
      <point x="881" y="554" type="curve" smooth="yes"/>
      <point x="794" y="554"/>
      <point x="711" y="514"/>
      <point x="669" y="446" type="curve"/>
      <point x="661" y="446" type="line"/>
      <point x="648" y="511"/>
      <point x="576" y="554"/>
      <point x="485" y="554" type="curve" smooth="yes"/>
      <point x="416" y="554"/>
      <point x="350" y="526"/>
      <point x="314" y="478" type="curve"/>
      <point x="307" y="478" type="line"/>
      <point x="309" y="544" type="line"/>
      <point x="100" y="544" type="line"/>
    </contour>
  </outline>
</glyph>
<glyph name="n" format="2">
  <advance width="714"/>
  <unicode hex="006E"/>
  <anchor x="320" y="0" name="bottom"/>
  <anchor x="432" y="544" name="top"/>
  <outline>
    <contour>
      <point x="-13" y="0" type="line"/>
      <point x="206" y="0" type="line"/>
      <point x="263" y="276" type="line" smooth="yes"/>
      <point x="279" y="348"/>
      <point x="317" y="389"/>
      <point x="390" y="389" type="curve" smooth="yes"/>
      <point x="450" y="389"/>
      <point x="482" y="347"/>
      <point x="465" y="261" type="curve" smooth="yes"/>
      <point x="410" y="0" type="line"/>
      <point x="630" y="0" type="line"/>
      <point x="688" y="282" type="line" smooth="yes"/>
      <point x="724" y="461"/>
      <point x="638" y="554"/>
      <point x="491" y="554" type="curve" smooth="yes"/>
      <point x="421" y="554"/>
      <point x="349" y="523"/>
      <point x="314" y="478" type="curve"/>
      <point x="306" y="478" type="line"/>
      <point x="309" y="544" type="line"/>
      <point x="100" y="544" type="line"/>
    </contour>
  </outline>
</glyph>
<glyph name="o" format="2">
  <advance width="692"/>
  <unicode hex="006F"/>
  <anchor x="326" y="0" name="bottom"/>
  <anchor x="346" y="272" name="center"/>
  <anchor x="589" y="0" name="ogonek"/>
  <anchor x="390" y="544" name="top"/>
  <anchor x="470" y="524" name="topright"/>
  <outline>
    <contour>
      <point x="331" y="-9" type="curve" smooth="yes"/>
      <point x="540" y="-9"/>
      <point x="679" y="108"/>
      <point x="679" y="289" type="curve" smooth="yes"/>
      <point x="679" y="448"/>
      <point x="566" y="554"/>
      <point x="361" y="554" type="curve" smooth="yes"/>
      <point x="152" y="554"/>
      <point x="13" y="437"/>
      <point x="13" y="256" type="curve" smooth="yes"/>
      <point x="13" y="97"/>
      <point x="126" y="-9"/>
    </contour>
    <contour>
      <point x="335" y="157" type="curve" smooth="yes"/>
      <point x="272" y="157"/>
      <point x="231" y="194"/>
      <point x="231" y="259" type="curve" smooth="yes"/>
      <point x="231" y="337"/>
      <point x="281" y="388"/>
      <point x="357" y="388" type="curve" smooth="yes"/>
      <point x="420" y="388"/>
      <point x="461" y="351"/>
      <point x="461" y="286" type="curve" smooth="yes"/>
      <point x="461" y="208"/>
      <point x="411" y="157"/>
    </contour>
  </outline>
</glyph>
<glyph name="p" format="2">
  <advance width="719"/>
  <unicode hex="0070"/>
  <anchor x="309" y="0" name="bottom"/>
  <anchor x="421" y="544" name="top"/>
  <outline>
    <contour>
      <point x="-48" y="-167" type="line"/>
      <point x="172" y="-167" type="line"/>
      <point x="225" y="87" type="line"/>
      <point x="233" y="87" type="line"/>
      <point x="256" y="25"/>
      <point x="334" y="-10"/>
      <point x="415" y="-10" type="curve" smooth="yes"/>
      <point x="582" y="-10"/>
      <point x="697" y="111"/>
      <point x="706" y="296" type="curve" smooth="yes"/>
      <point x="714" y="452"/>
      <point x="618" y="554"/>
      <point x="471" y="554" type="curve" smooth="yes"/>
      <point x="398" y="554"/>
      <point x="347" y="531"/>
      <point x="312" y="492" type="curve"/>
      <point x="304" y="492" type="line"/>
      <point x="307" y="544" type="line"/>
      <point x="100" y="544" type="line"/>
    </contour>
    <contour>
      <point x="361" y="157" type="curve" smooth="yes"/>
      <point x="289" y="160"/>
      <point x="251" y="209"/>
      <point x="264" y="281" type="curve" smooth="yes"/>
      <point x="267" y="294" type="line" smooth="yes"/>
      <point x="279" y="351"/>
      <point x="315" y="390"/>
      <point x="385" y="390" type="curve" smooth="yes"/>
      <point x="444" y="390"/>
      <point x="488" y="351"/>
      <point x="485" y="288" type="curve" smooth="yes"/>
      <point x="483" y="207"/>
      <point x="433" y="155"/>
    </contour>
  </outline>
</glyph>
<glyph name="r" format="2">
  <advance width="441"/>
  <unicode hex="0072"/>
  <anchor x="97" y="0" name="bottom"/>
  <anchor x="295" y="544" name="top"/>
  <outline>
    <contour>
      <point x="-13" y="0" type="line"/>
      <point x="206" y="0" type="line"/>
      <point x="252" y="221" type="line" smooth="yes"/>
      <point x="274" y="322"/>
      <point x="322" y="357"/>
      <point x="397" y="358" type="curve" smooth="yes"/>
      <point x="415" y="358"/>
      <point x="434" y="356"/>
      <point x="451" y="352" type="curve"/>
      <point x="493" y="550" type="line"/>
      <point x="481" y="551"/>
      <point x="467" y="552"/>
      <point x="452" y="552" type="curve" smooth="yes"/>
      <point x="387" y="552"/>
      <point x="330" y="517"/>
      <point x="300" y="466" type="curve"/>
      <point x="292" y="466" type="line"/>
      <point x="300" y="544" type="line"/>
      <point x="101" y="544" type="line"/>
    </contour>
  </outline>
</glyph>
<glyph name="s" format="2">
  <advance width="624"/>
  <unicode hex="0073"/>
  <anchor x="290" y="0" name="bottom"/>
  <anchor x="342" y="544" name="top"/>
  <outline>
    <contour>
      <point x="296" y="-10" type="curve" smooth="yes"/>
      <point x="505" y="-10"/>
      <point x="596" y="65"/>
      <point x="596" y="186" type="curve" smooth="yes"/>
      <point x="596" y="287"/>
      <point x="533" y="319"/>
      <point x="371" y="344" type="curve" smooth="yes"/>
      <point x="273" y="360"/>
      <point x="260" y="363"/>
      <point x="260" y="383" type="curve" smooth="yes"/>
      <point x="260" y="406"/>
      <point x="283" y="419"/>
      <point x="316" y="419" type="curve" smooth="yes"/>
      <point x="368" y="419"/>
      <point x="402" y="403"/>
      <point x="403" y="374" type="curve"/>
      <point x="612" y="374" type="line"/>
      <point x="621" y="483"/>
      <point x="515" y="554"/>
      <point x="321" y="554" type="curve" smooth="yes"/>
      <point x="152" y="554"/>
      <point x="37" y="486"/>
      <point x="37" y="359" type="curve" smooth="yes"/>
      <point x="37" y="259"/>
      <point x="125" y="224"/>
      <point x="247" y="204" type="curve" smooth="yes"/>
      <point x="350" y="187"/>
      <point x="371" y="183"/>
      <point x="371" y="162" type="curve" smooth="yes"/>
      <point x="371" y="137"/>
      <point x="350" y="125"/>
      <point x="309" y="125" type="curve" smooth="yes"/>
      <point x="245" y="125"/>
      <point x="205" y="140"/>
      <point x="205" y="179" type="curve"/>
      <point x="-13" y="179" type="line"/>
      <point x="-18" y="66"/>
      <point x="94" y="-10"/>
    </contour>
  </outline>
</glyph>
<glyph name="t" format="2">
  <advance width="466"/>
  <unicode hex="0074"/>
  <anchor x="230" y="0" name="bottom"/>
  <anchor x="224" y="284" name="center"/>
  <anchor x="261" y="544" name="top"/>
  <anchor x="412" y="754" name="topright"/>
  <outline>
    <contour>
      <point x="227" y="0" type="curve" smooth="yes"/>
      <point x="381" y="0" type="line"/>
      <point x="420" y="186" type="line"/>
      <point x="333" y="186" type="line" smooth="yes"/>
      <point x="304" y="186"/>
      <point x="295" y="195"/>
      <point x="301" y="223" type="curve" smooth="yes"/>
      <point x="333" y="379" type="line"/>
      <point x="461" y="379" type="line"/>
      <point x="495" y="544" type="line"/>
      <point x="367" y="544" type="line"/>
      <point x="403" y="710" type="line"/>
      <point x="179" y="669" type="line"/>
      <point x="153" y="544" type="line"/>
      <point x="61" y="544" type="line"/>
      <point x="26" y="379" type="line"/>
      <point x="118" y="379" type="line"/>
      <point x="75" y="171" type="line" smooth="yes"/>
      <point x="50" y="52"/>
      <point x="113" y="0"/>
    </contour>
  </outline>
</glyph>
<glyph name="u" format="2">
  <advance width="714"/>
  <unicode hex="0075"/>
  <anchor x="308" y="0" name="bottom"/>
  <anchor x="614" y="0" name="ogonek"/>
  <anchor x="407" y="544" name="top"/>
  <anchor x="548" y="544" name="topright"/>
  <outline>
    <contour>
      <point x="223" y="-10" type="curve" smooth="yes"/>
      <point x="295" y="-10"/>
      <point x="364" y="19"/>
      <point x="401" y="66" type="curve"/>
      <point x="408" y="66" type="line"/>
      <point x="406" y="0" type="line"/>
      <point x="614" y="0" type="line"/>
      <point x="728" y="544" type="line"/>
      <point x="509" y="544" type="line"/>
      <point x="451" y="268" type="line" smooth="yes"/>
      <point x="436" y="196"/>
      <point x="399" y="155"/>
      <point x="325" y="155" type="curve" smooth="yes"/>
      <point x="265" y="155"/>
      <point x="232" y="197"/>
      <point x="250" y="283" type="curve" smooth="yes"/>
      <point x="305" y="544" type="line"/>
      <point x="86" y="544" type="line"/>
      <point x="27" y="262" type="line" smooth="yes"/>
      <point x="-9" y="88"/>
      <point x="71" y="-10"/>
    </contour>
  </outline>
</glyph>
<glyph name="v" format="2">
  <advance width="678"/>
  <unicode hex="0076"/>
  <anchor x="292" y="0" name="bottom"/>
  <anchor x="404" y="544" name="top"/>
  <outline>
    <contour>
      <point x="156" y="0" type="line"/>
      <point x="412" y="0" type="line"/>
      <point x="743" y="544" type="line"/>
      <point x="513" y="544" type="line"/>
      <point x="351" y="242" type="line"/>
      <point x="316" y="168" type="line"/>
      <point x="307" y="168" type="line"/>
      <point x="300" y="243" type="line"/>
      <point x="263" y="544" type="line"/>
      <point x="47" y="544" type="line"/>
    </contour>
  </outline>
</glyph>
<glyph name="w" format="2">
  <advance width="924"/>
  <unicode hex="0077"/>
  <anchor x="416" y="0" name="bottom"/>
  <anchor x="514" y="544" name="top"/>
  <outline>
    <contour>
      <point x="78" y="0" type="line"/>
      <point x="337" y="0" type="line"/>
      <point x="404" y="167" type="line"/>
      <point x="461" y="314" type="line"/>
      <point x="467" y="314" type="line"/>
      <point x="467" y="167" type="line"/>
      <point x="467" y="0" type="line"/>
      <point x="730" y="0" type="line"/>
      <point x="984" y="544" type="line"/>
      <point x="776" y="544" type="line"/>
      <point x="674" y="309" type="line"/>
      <point x="616" y="170" type="line"/>
      <point x="611" y="170" type="line"/>
      <point x="616" y="309" type="line"/>
      <point x="622" y="544" type="line"/>
      <point x="406" y="544" type="line"/>
      <point x="311" y="309" type="line"/>
      <point x="259" y="176" type="line"/>
      <point x="251" y="176" type="line"/>
      <point x="252" y="309" type="line"/>
      <point x="249" y="544" type="line"/>
      <point x="52" y="544" type="line"/>
    </contour>
  </outline>
</glyph>
<glyph name="x" format="2">
  <advance width="700"/>
  <unicode hex="0078"/>
  <anchor x="305" y="0" name="bottom"/>
  <anchor x="417" y="544" name="top"/>
  <outline>
    <contour>
      <point x="-66" y="0" type="line"/>
      <point x="187" y="0" type="line"/>
      <point x="300" y="128" type="line"/>
      <point x="320" y="152" type="line"/>
      <point x="326" y="152" type="line"/>
      <point x="339" y="129" type="line"/>
      <point x="410" y="0" type="line"/>
      <point x="653" y="0" type="line"/>
      <point x="490" y="274" type="line"/>
      <point x="754" y="544" type="line"/>
      <point x="499" y="544" type="line"/>
      <point x="398" y="428" type="line"/>
      <point x="374" y="401" type="line"/>
      <point x="368" y="401" type="line"/>
      <point x="355" y="428" type="line"/>
      <point x="298" y="544" type="line"/>
      <point x="58" y="544" type="line"/>
      <point x="214" y="285" type="line"/>
    </contour>
  </outline>
</glyph>
<glyph name="y" format="2">
  <advance width="666"/>
  <unicode hex="0079"/>
  <anchor x="525" y="0" name="bottom"/>
  <anchor x="383" y="544" name="top"/>
  <outline>
    <contour>
      <point x="-37" y="-167" type="line"/>
      <point x="74" y="-167" type="line" smooth="yes"/>
      <point x="192" y="-167"/>
      <point x="306" y="-141"/>
      <point x="396" y="4" type="curve" smooth="yes"/>
      <point x="731" y="544" type="line"/>
      <point x="496" y="544" type="line"/>
      <point x="368" y="293" type="line"/>
      <point x="333" y="220" type="line"/>
      <point x="324" y="220" type="line"/>
      <point x="312" y="293" type="line"/>
      <point x="270" y="544" type="line"/>
      <point x="46" y="544" type="line"/>
      <point x="191" y="31" type="line"/>
      <point x="199" y="77" type="line"/>
      <point x="178" y="46" type="line" smooth="yes"/>
      <point x="159" y="18"/>
      <point x="137" y="5"/>
      <point x="87" y="5" type="curve" smooth="yes"/>
      <point x="-3" y="5" type="line"/>
    </contour>
  </outline>
</glyph>
<glyph name="z" format="2">
  <advance width="596"/>
  <unicode hex="007A"/>
  <anchor x="252" y="0" name="bottom"/>
  <anchor x="308" y="272" name="center"/>
  <anchor x="364" y="544" name="top"/>
  <outline>
    <contour>
      <point x="-40" y="0" type="line"/>
      <point x="521" y="0" type="line"/>
      <point x="554" y="165" type="line"/>
      <point x="296" y="165" type="line"/>
      <point x="593" y="404" type="line"/>
      <point x="622" y="544" type="line"/>
      <point x="91" y="544" type="line"/>
      <point x="57" y="379" type="line"/>
      <point x="284" y="379" type="line"/>
      <point x="-10" y="145" type="line"/>
    </contour>
  </outline>
</glyph>
<glyph name="braceleft" format="2">
  <advance width="448"/>
  <unicode hex="007B"/>
  <outline>
    <contour>
      <point x="148" y="-167" type="curve" smooth="yes"/>
      <point x="342" y="-167" type="line"/>
      <point x="374" y="-13" type="line"/>
      <point x="236" y="-13" type="line"/>
      <point x="273" y="167" type="line" smooth="yes"/>
      <point x="286" y="230"/>
      <point x="278" y="281"/>
      <point x="213" y="309" type="curve"/>
      <point x="214" y="312" type="line"/>
      <point x="271" y="325"/>
      <point x="313" y="360"/>
      <point x="332" y="448" type="curve" smooth="yes"/>
      <point x="372" y="638" type="line"/>
      <point x="510" y="638" type="line"/>
      <point x="543" y="793" type="line"/>
      <point x="350" y="793" type="line" smooth="yes"/>
      <point x="258" y="793"/>
      <point x="203" y="734"/>
      <point x="187" y="659" type="curve" smooth="yes"/>
      <point x="146" y="465" type="line" smooth="yes"/>
      <point x="136" y="418"/>
      <point x="106" y="387"/>
      <point x="67" y="387" type="curve" smooth="yes"/>
      <point x="29" y="387" type="line"/>
      <point x="-5" y="221" type="line"/>
      <point x="32" y="221" type="line" smooth="yes"/>
      <point x="70" y="221"/>
      <point x="89" y="193"/>
      <point x="79" y="145" type="curve" smooth="yes"/>
      <point x="41" y="-33" type="line" smooth="yes"/>
      <point x="26" y="-108"/>
      <point x="56" y="-167"/>
    </contour>
  </outline>
</glyph>
<glyph name="bar" format="2">
  <advance width="310"/>
  <unicode hex="007C"/>
  <outline>
    <contour>
      <point x="-15" y="-67" type="line"/>
      <point x="184" y="-67" type="line"/>
      <point x="350" y="729" type="line"/>
      <point x="151" y="729" type="line"/>
    </contour>
  </outline>
</glyph>
<glyph name="asciitilde" format="2">
  <advance width="720"/>
  <unicode hex="007E"/>
  <outline>
    <contour>
      <point x="103" y="268" type="curve"/>
      <point x="187" y="268" type="line"/>
      <point x="187" y="286"/>
      <point x="205" y="319"/>
      <point x="240" y="319" type="curve" smooth="yes"/>
      <point x="290" y="319"/>
      <point x="317" y="260"/>
      <point x="406" y="260" type="curve" smooth="yes"/>
      <point x="472" y="260"/>
      <point x="552" y="306"/>
      <point x="574" y="457" type="curve"/>
      <point x="491" y="457" type="line"/>
      <point x="485" y="431"/>
      <point x="464" y="406"/>
      <point x="425" y="406" type="curve" smooth="yes"/>
      <point x="365" y="406"/>
      <point x="343" y="461"/>
      <point x="266" y="461" type="curve" smooth="yes"/>
      <point x="203" y="461"/>
      <point x="126" y="419"/>
    </contour>
  </outline>
</glyph>
<glyph name="cent" format="2">
  <advance width="688"/>
  <unicode hex="00A2"/>
  <outline>
    <contour>
      <point x="344" y="83" type="curve" smooth="yes"/>
      <point x="529" y="83"/>
      <point x="661" y="163"/>
      <point x="681" y="302" type="curve"/>
      <point x="465" y="302" type="line"/>
      <point x="450" y="266"/>
      <point x="407" y="250"/>
      <point x="362" y="250" type="curve" smooth="yes"/>
      <point x="298" y="250"/>
      <point x="255" y="288"/>
      <point x="255" y="348" type="curve" smooth="yes"/>
      <point x="255" y="428"/>
      <point x="304" y="480"/>
      <point x="381" y="480" type="curve" smooth="yes"/>
      <point x="433" y="480"/>
      <point x="472" y="457"/>
      <point x="478" y="422" type="curve"/>
      <point x="695" y="422" type="line"/>
      <point x="699" y="558"/>
      <point x="574" y="647"/>
      <point x="387" y="647" type="curve" smooth="yes"/>
      <point x="173" y="647"/>
      <point x="36" y="524"/>
      <point x="36" y="333" type="curve" smooth="yes"/>
      <point x="36" y="181"/>
      <point x="152" y="83"/>
    </contour>
    <contour>
      <point x="219" y="0" type="line"/>
      <point x="359" y="0" type="line"/>
      <point x="393" y="166" type="line"/>
      <point x="253" y="166" type="line"/>
    </contour>
    <contour>
      <point x="332" y="548" type="line"/>
      <point x="472" y="548" type="line"/>
      <point x="509" y="729" type="line"/>
      <point x="369" y="729" type="line"/>
    </contour>
  </outline>
</glyph>
<glyph name="sterling" format="2">
  <advance width="761"/>
  <unicode hex="00A3"/>
  <outline>
    <contour>
      <point x="58" y="141" type="curve"/>
      <point x="229" y="148" type="line"/>
      <point x="337" y="188"/>
      <point x="393" y="245"/>
      <point x="393" y="354" type="curve" smooth="yes"/>
      <point x="393" y="399"/>
      <point x="381" y="437"/>
      <point x="381" y="473" type="curve" smooth="yes"/>
      <point x="381" y="531"/>
      <point x="419" y="566"/>
      <point x="474" y="566" type="curve" smooth="yes"/>
      <point x="530" y="566"/>
      <point x="562" y="538"/>
      <point x="556" y="494" type="curve"/>
      <point x="785" y="494" type="line"/>
      <point x="790" y="641"/>
      <point x="683" y="739"/>
      <point x="476" y="739" type="curve" smooth="yes"/>
      <point x="288" y="739"/>
      <point x="153" y="637"/>
      <point x="153" y="484" type="curve" smooth="yes"/>
      <point x="153" y="436"/>
      <point x="169" y="396"/>
      <point x="169" y="350" type="curve" smooth="yes"/>
      <point x="169" y="264"/>
      <point x="132" y="206"/>
    </contour>
    <contour>
      <point x="-34" y="0" type="line"/>
      <point x="672" y="0" type="line"/>
      <point x="719" y="230" type="line"/>
      <point x="521" y="230" type="line"/>
      <point x="506" y="155" type="line"/>
      <point x="-2" y="155" type="line"/>
    </contour>
    <contour>
      <point x="39" y="282" type="line"/>
      <point x="557" y="282" type="line"/>
      <point x="587" y="424" type="line"/>
      <point x="69" y="424" type="line"/>
    </contour>
  </outline>
</glyph>
<glyph name="currency" format="2">
  <advance width="691"/>
  <unicode hex="00A4"/>
  <outline>
    <contour>
      <point x="157" y="50" type="line"/>
      <point x="265" y="154" type="line"/>
      <point x="293" y="146"/>
      <point x="323" y="142"/>
      <point x="354" y="142" type="curve" smooth="yes"/>
      <point x="383" y="142"/>
      <point x="418" y="146"/>
      <point x="447" y="153" type="curve"/>
      <point x="548" y="50" type="line"/>
      <point x="668" y="169" type="line"/>
      <point x="575" y="264" type="line"/>
      <point x="589" y="293"/>
      <point x="597" y="326"/>
      <point x="599" y="359" type="curve" smooth="yes"/>
      <point x="600" y="391"/>
      <point x="595" y="425"/>
      <point x="580" y="456" type="curve"/>
      <point x="680" y="551" type="line"/>
      <point x="568" y="669" type="line"/>
      <point x="458" y="564" type="line"/>
      <point x="431" y="572"/>
      <point x="396" y="576"/>
      <point x="369" y="576" type="curve" smooth="yes"/>
      <point x="345" y="576"/>
      <point x="312" y="573"/>
      <point x="281" y="564" type="curve"/>
      <point x="180" y="669" type="line"/>
      <point x="59" y="551" type="line"/>
      <point x="152" y="456" type="line"/>
      <point x="138" y="428"/>
      <point x="130" y="395"/>
      <point x="128" y="359" type="curve" smooth="yes"/>
      <point x="127" y="330"/>
      <point x="130" y="297"/>
      <point x="145" y="264" type="curve"/>
      <point x="44" y="169" type="line"/>
    </contour>
    <contour>
      <point x="360" y="303" type="curve" smooth="yes"/>
      <point x="324" y="303"/>
      <point x="301" y="323"/>
      <point x="302" y="358" type="curve" smooth="yes"/>
      <point x="304" y="392"/>
      <point x="326" y="415"/>
      <point x="364" y="415" type="curve" smooth="yes"/>
      <point x="400" y="415"/>
      <point x="424" y="394"/>
      <point x="422" y="358" type="curve" smooth="yes"/>
      <point x="421" y="325"/>
      <point x="398" y="303"/>
    </contour>
  </outline>
</glyph>
<glyph name="yen" format="2">
  <advance width="804"/>
  <unicode hex="00A5"/>
  <outline>
    <contour>
      <point x="231" y="0" type="line"/>
      <point x="457" y="0" type="line"/>
      <point x="473" y="83" type="line"/>
      <point x="661" y="83" type="line"/>
      <point x="689" y="214" type="line"/>
      <point x="500" y="214" type="line"/>
      <point x="515" y="276" type="line"/>
      <point x="702" y="276" type="line"/>
      <point x="730" y="408" type="line"/>
      <point x="632" y="408" type="line"/>
      <point x="899" y="729" type="line"/>
      <point x="638" y="729" type="line"/>
      <point x="432" y="449" type="line"/>
      <point x="423" y="449" type="line"/>
      <point x="335" y="729" type="line"/>
      <point x="95" y="729" type="line"/>
      <point x="231" y="408" type="line"/>
      <point x="136" y="408" type="line"/>
      <point x="108" y="276" type="line"/>
      <point x="287" y="276" type="line"/>
      <point x="275" y="214" type="line"/>
      <point x="95" y="214" type="line"/>
      <point x="67" y="83" type="line"/>
      <point x="248" y="83" type="line"/>
    </contour>
  </outline>
</glyph>
<glyph name="brokenbar" format="2">
  <advance width="311"/>
  <unicode hex="00A6"/>
  <outline>
    <contour>
      <point x="79" y="380" type="line"/>
      <point x="278" y="380" type="line"/>
      <point x="350" y="729" type="line"/>
      <point x="151" y="729" type="line"/>
    </contour>
    <contour>
      <point x="-15" y="-67" type="line"/>
      <point x="184" y="-67" type="line"/>
      <point x="256" y="282" type="line"/>
      <point x="57" y="282" type="line"/>
    </contour>
  </outline>
</glyph>
<glyph name="section" format="2">
  <advance width="553"/>
  <unicode hex="00A7"/>
  <outline>
    <contour>
      <point x="261" y="-10" type="curve" smooth="yes"/>
      <point x="389" y="-10"/>
      <point x="497" y="54"/>
      <point x="497" y="168" type="curve" smooth="yes"/>
      <point x="497" y="199"/>
      <point x="487" y="231"/>
      <point x="468" y="256" type="curve"/>
      <point x="518" y="278"/>
      <point x="546" y="322"/>
      <point x="546" y="372" type="curve" smooth="yes"/>
      <point x="546" y="446"/>
      <point x="495" y="486"/>
      <point x="388" y="521" type="curve" smooth="yes"/>
      <point x="329" y="540"/>
      <point x="297" y="552"/>
      <point x="297" y="573" type="curve" smooth="yes"/>
      <point x="297" y="596"/>
      <point x="314" y="605"/>
      <point x="337" y="605" type="curve" smooth="yes"/>
      <point x="369" y="605"/>
      <point x="400" y="594"/>
      <point x="394" y="558" type="curve"/>
      <point x="580" y="558" type="line"/>
      <point x="580" y="672"/>
      <point x="474" y="737"/>
      <point x="337" y="737" type="curve" smooth="yes"/>
      <point x="209" y="737"/>
      <point x="104" y="672"/>
      <point x="104" y="556" type="curve" smooth="yes"/>
      <point x="104" y="526"/>
      <point x="114" y="498"/>
      <point x="138" y="474" type="curve"/>
      <point x="85" y="448"/>
      <point x="54" y="401"/>
      <point x="54" y="351" type="curve" smooth="yes"/>
      <point x="54" y="271"/>
      <point x="119" y="237"/>
      <point x="207" y="208" type="curve" smooth="yes"/>
      <point x="282" y="182"/>
      <point x="301" y="175"/>
      <point x="301" y="155" type="curve" smooth="yes"/>
      <point x="301" y="131"/>
      <point x="283" y="122"/>
      <point x="256" y="122" type="curve" smooth="yes"/>
      <point x="215" y="122"/>
      <point x="183" y="139"/>
      <point x="185" y="175" type="curve"/>
      <point x="-3" y="175" type="line"/>
      <point x="-7" y="54"/>
      <point x="116" y="-10"/>
    </contour>
    <contour>
      <point x="340" y="324" type="curve"/>
      <point x="320" y="334"/>
      <point x="294" y="344"/>
      <point x="279" y="349" type="curve" smooth="yes"/>
      <point x="245" y="361"/>
      <point x="236" y="372"/>
      <point x="239" y="391" type="curve" smooth="yes"/>
      <point x="240" y="397"/>
      <point x="244" y="404"/>
      <point x="250" y="412" type="curve"/>
      <point x="267" y="404"/>
      <point x="286" y="396"/>
      <point x="302" y="390" type="curve" smooth="yes"/>
      <point x="339" y="376"/>
      <point x="353" y="364"/>
      <point x="349" y="345" type="curve" smooth="yes"/>
      <point x="347" y="337"/>
      <point x="344" y="330"/>
    </contour>
  </outline>
</glyph>
<glyph name="ordfeminine" format="2">
  <advance width="495"/>
  <unicode hex="00AA"/>
  <outline>
    <contour>
      <point x="228" y="370" type="curve" smooth="yes"/>
      <point x="275" y="370"/>
      <point x="307" y="386"/>
      <point x="330" y="410" type="curve"/>
      <point x="335" y="410" type="line"/>
      <point x="333" y="377" type="line"/>
      <point x="474" y="377" type="line"/>
      <point x="548" y="731" type="line"/>
      <point x="404" y="731" type="line"/>
      <point x="387" y="676" type="line"/>
      <point x="381" y="676" type="line"/>
      <point x="367" y="714"/>
      <point x="317" y="738"/>
      <point x="263" y="738" type="curve" smooth="yes"/>
      <point x="147" y="738"/>
      <point x="75" y="650"/>
      <point x="75" y="528" type="curve" smooth="yes"/>
      <point x="75" y="433"/>
      <point x="135" y="370"/>
    </contour>
    <contour>
      <point x="285" y="480" type="curve" smooth="yes"/>
      <point x="249" y="480"/>
      <point x="223" y="500"/>
      <point x="223" y="542" type="curve" smooth="yes"/>
      <point x="223" y="593"/>
      <point x="252" y="626"/>
      <point x="297" y="626" type="curve" smooth="yes"/>
      <point x="343" y="626"/>
      <point x="370" y="594"/>
      <point x="361" y="549" type="curve" smooth="yes"/>
      <point x="359" y="539" type="line" smooth="yes"/>
      <point x="352" y="506"/>
      <point x="331" y="480"/>
    </contour>
  </outline>
</glyph>
<glyph name="guillemetleft" format="2">
  <advance width="644"/>
  <unicode hex="00AB"/>
  <outline>
    <contour>
      <point x="164" y="64" type="line"/>
      <point x="330" y="64" type="line"/>
      <point x="235" y="304" type="line"/>
      <point x="387" y="544" type="line"/>
      <point x="212" y="544" type="line"/>
      <point x="40" y="304" type="line"/>
    </contour>
    <contour>
      <point x="413" y="64" type="line"/>
      <point x="586" y="64" type="line"/>
      <point x="497" y="304" type="line"/>
      <point x="660" y="544" type="line"/>
      <point x="475" y="544" type="line"/>
      <point x="308" y="304" type="line"/>
    </contour>
  </outline>
</glyph>
<glyph name="logicalnot" format="2">
  <advance width="720"/>
  <unicode hex="00AC"/>
  <outline>
    <contour>
      <point x="383" y="115" type="line"/>
      <point x="558" y="115" type="line"/>
      <point x="628" y="447" type="line"/>
      <point x="142" y="447" type="line"/>
      <point x="105" y="273" type="line"/>
      <point x="416" y="273" type="line"/>
    </contour>
  </outline>
</glyph>
<glyph name="registered" format="2">
  <advance width="614"/>
  <unicode hex="00AE"/>
  <outline>
    <contour>
      <point x="330" y="206" type="curve" smooth="yes"/>
      <point x="508" y="206"/>
      <point x="631" y="331"/>
      <point x="631" y="494" type="curve" smooth="yes"/>
      <point x="631" y="641"/>
      <point x="526" y="738"/>
      <point x="365" y="738" type="curve" smooth="yes"/>
      <point x="187" y="738"/>
      <point x="66" y="613"/>
      <point x="66" y="450" type="curve" smooth="yes"/>
      <point x="66" y="303"/>
      <point x="169" y="206"/>
    </contour>
    <contour>
      <point x="331" y="260" type="curve" smooth="yes"/>
      <point x="204" y="260"/>
      <point x="121" y="337"/>
      <point x="121" y="455" type="curve" smooth="yes"/>
      <point x="121" y="590"/>
      <point x="221" y="688"/>
      <point x="365" y="688" type="curve" smooth="yes"/>
      <point x="492" y="688"/>
      <point x="575" y="610"/>
      <point x="575" y="492" type="curve" smooth="yes"/>
      <point x="575" y="357"/>
      <point x="475" y="260"/>
    </contour>
    <contour>
      <point x="190" y="334" type="line"/>
      <point x="283" y="334" type="line"/>
      <point x="325" y="541" type="line"/>
      <point x="384" y="541" type="line" smooth="yes"/>
      <point x="400" y="541"/>
      <point x="410" y="536"/>
      <point x="410" y="521" type="curve" smooth="yes"/>
      <point x="410" y="501"/>
      <point x="396" y="490"/>
      <point x="372" y="490" type="curve" smooth="yes"/>
      <point x="300" y="490" type="line"/>
      <point x="288" y="431" type="line"/>
      <point x="358" y="431" type="line" smooth="yes"/>
      <point x="381" y="431"/>
      <point x="388" y="422"/>
      <point x="383" y="401" type="curve" smooth="yes"/>
      <point x="375" y="365" type="line" smooth="yes"/>
      <point x="373" y="354"/>
      <point x="372" y="343"/>
      <point x="373" y="334" type="curve"/>
      <point x="466" y="334" type="line"/>
      <point x="465" y="342"/>
      <point x="465" y="353"/>
      <point x="468" y="366" type="curve" smooth="yes"/>
      <point x="476" y="401" type="line" smooth="yes"/>
      <point x="485" y="439"/>
      <point x="475" y="458"/>
      <point x="449" y="464" type="curve"/>
      <point x="449" y="466" type="line"/>
      <point x="485" y="478"/>
      <point x="505" y="505"/>
      <point x="505" y="540" type="curve" smooth="yes"/>
      <point x="505" y="581"/>
      <point x="480" y="610"/>
      <point x="411" y="610" type="curve" smooth="yes"/>
      <point x="248" y="610" type="line"/>
    </contour>
  </outline>
</glyph>
<glyph name="degree" format="2">
  <advance width="440"/>
  <unicode hex="00B0"/>
  <outline>
    <contour>
      <point x="274" y="386" type="curve" smooth="yes"/>
      <point x="386" y="386"/>
      <point x="471" y="460"/>
      <point x="471" y="572" type="curve" smooth="yes"/>
      <point x="471" y="673"/>
      <point x="393" y="739"/>
      <point x="287" y="739" type="curve" smooth="yes"/>
      <point x="175" y="739"/>
      <point x="90" y="665"/>
      <point x="90" y="554" type="curve" smooth="yes"/>
      <point x="90" y="453"/>
      <point x="168" y="386"/>
    </contour>
    <contour>
      <point x="278" y="506" type="curve" smooth="yes"/>
      <point x="248" y="506"/>
      <point x="223" y="526"/>
      <point x="223" y="561" type="curve" smooth="yes"/>
      <point x="223" y="597"/>
      <point x="250" y="619"/>
      <point x="283" y="619" type="curve" smooth="yes"/>
      <point x="314" y="619"/>
      <point x="339" y="600"/>
      <point x="339" y="565" type="curve" smooth="yes"/>
      <point x="339" y="528"/>
      <point x="312" y="506"/>
    </contour>
  </outline>
</glyph>
<glyph name="plusminus" format="2">
  <advance width="720"/>
  <unicode hex="00B1"/>
  <outline>
    <contour>
      <point x="256" y="207" type="line"/>
      <point x="432" y="207" type="line"/>
      <point x="458" y="329" type="line"/>
      <point x="627" y="329" type="line"/>
      <point x="661" y="495" type="line"/>
      <point x="493" y="495" type="line"/>
      <point x="519" y="616" type="line"/>
      <point x="343" y="616" type="line"/>
      <point x="317" y="495" type="line"/>
      <point x="152" y="495" type="line"/>
      <point x="118" y="329" type="line"/>
      <point x="282" y="329" type="line"/>
    </contour>
    <contour>
      <point x="49" y="0" type="line"/>
      <point x="558" y="0" type="line"/>
      <point x="588" y="143" type="line"/>
      <point x="79" y="143" type="line"/>
    </contour>
  </outline>
</glyph>
<glyph name="paragraph" format="2">
  <advance width="801"/>
  <unicode hex="00B6"/>
  <outline>
    <contour>
      <point x="291" y="0" type="line"/>
      <point x="445" y="0" type="line"/>
      <point x="445" y="542" type="line"/>
      <point x="516" y="542" type="line"/>
      <point x="516" y="0" type="line"/>
      <point x="730" y="0" type="line"/>
      <point x="730" y="542" type="line"/>
      <point x="823" y="542" type="line"/>
      <point x="823" y="729" type="line"/>
      <point x="331" y="729" type="line" smooth="yes"/>
      <point x="153" y="729"/>
      <point x="69" y="652"/>
      <point x="69" y="515" type="curve" smooth="yes"/>
      <point x="69" y="394"/>
      <point x="151" y="315"/>
      <point x="291" y="315" type="curve"/>
    </contour>
  </outline>
</glyph>
<glyph name="periodcentered" format="2">
  <advance width="219"/>
  <unicode hex="00B7"/>
  <outline>
    <contour>
      <point x="92" y="179" type="curve" smooth="yes"/>
      <point x="157" y="179"/>
      <point x="210" y="233"/>
      <point x="210" y="297" type="curve" smooth="yes"/>
      <point x="210" y="343"/>
      <point x="178" y="375"/>
      <point x="129" y="375" type="curve" smooth="yes"/>
      <point x="65" y="375"/>
      <point x="11" y="321"/>
      <point x="11" y="257" type="curve" smooth="yes"/>
      <point x="11" y="212"/>
      <point x="44" y="179"/>
    </contour>
  </outline>
</glyph>
<glyph name="ordmasculine" format="2">
  <advance width="466"/>
  <unicode hex="00BA"/>
  <anchor x="262" y="377" name="bottom"/>
  <anchor x="291" y="554" name="center"/>
  <anchor x="450" y="384" name="ogonek"/>
  <anchor x="320" y="731" name="top"/>
  <anchor x="555" y="731" name="topright"/>
  <outline>
    <contour>
      <point x="277" y="370" type="curve" smooth="yes"/>
      <point x="419" y="370"/>
      <point x="509" y="449"/>
      <point x="509" y="574" type="curve" smooth="yes"/>
      <point x="509" y="674"/>
      <point x="435" y="738"/>
      <point x="304" y="738" type="curve" smooth="yes"/>
      <point x="163" y="738"/>
      <point x="73" y="659"/>
      <point x="73" y="533" type="curve" smooth="yes"/>
      <point x="73" y="435"/>
      <point x="148" y="370"/>
    </contour>
    <contour>
      <point x="284" y="482" type="curve" smooth="yes"/>
      <point x="247" y="482"/>
      <point x="219" y="506"/>
      <point x="219" y="544" type="curve" smooth="yes"/>
      <point x="219" y="594"/>
      <point x="250" y="626"/>
      <point x="298" y="626" type="curve" smooth="yes"/>
      <point x="335" y="626"/>
      <point x="363" y="602"/>
      <point x="363" y="565" type="curve" smooth="yes"/>
      <point x="363" y="514"/>
      <point x="332" y="482"/>
    </contour>
  </outline>
</glyph>
<glyph name="AE" format="2">
  <advance width="1159"/>
  <unicode hex="00C6"/>
  <anchor x="524" y="0" name="bottom"/>
  <anchor x="675" y="729" name="top"/>
  <outline>
    <contour>
      <point x="-62" y="0" type="line"/>
      <point x="183" y="0" type="line"/>
      <point x="249" y="124" type="line"/>
      <point x="547" y="124" type="line"/>
      <point x="566" y="0" type="line"/>
      <point x="1081" y="0" type="line"/>
      <point x="1118" y="179" type="line"/>
      <point x="763" y="179" type="line"/>
      <point x="743" y="282" type="line"/>
      <point x="1087" y="282" type="line"/>
      <point x="1122" y="449" type="line"/>
      <point x="711" y="449" type="line"/>
      <point x="691" y="550" type="line"/>
      <point x="1192" y="550" type="line"/>
      <point x="1229" y="729" type="line"/>
      <point x="368" y="729" type="line"/>
    </contour>
    <contour>
      <point x="340" y="293" type="line"/>
      <point x="397" y="400" type="line"/>
      <point x="472" y="544" type="line"/>
      <point x="480" y="544" type="line"/>
      <point x="504" y="400" type="line"/>
      <point x="521" y="293" type="line"/>
    </contour>
  </outline>
</glyph>
<glyph name="multiply" format="2">
  <advance width="720"/>
  <unicode hex="00D7"/>
  <outline>
    <contour>
      <point x="190" y="95" type="line"/>
      <point x="353" y="232" type="line"/>
      <point x="459" y="96" type="line"/>
      <point x="603" y="217" type="line"/>
      <point x="497" y="352" type="line"/>
      <point x="671" y="497" type="line"/>
      <point x="570" y="626" type="line"/>
      <point x="395" y="482" type="line"/>
      <point x="290" y="617" type="line"/>
      <point x="148" y="498" type="line"/>
      <point x="252" y="362" type="line"/>
      <point x="90" y="226" type="line"/>
    </contour>
  </outline>
</glyph>
<glyph name="germandbls" format="2">
  <advance width="735"/>
  <unicode hex="00DF"/>
  <outline>
    <contour>
      <point x="42" y="0" type="line"/>
      <point x="260" y="0" type="line"/>
      <point x="359" y="480" type="line" smooth="yes"/>
      <point x="369" y="530"/>
      <point x="397" y="560"/>
      <point x="448" y="560" type="curve" smooth="yes"/>
      <point x="492" y="560"/>
      <point x="517" y="539"/>
      <point x="517" y="504" type="curve" smooth="yes"/>
      <point x="517" y="466"/>
      <point x="492" y="435"/>
      <point x="444" y="435" type="curve" smooth="yes"/>
      <point x="408" y="435" type="line"/>
      <point x="382" y="306" type="line"/>
      <point x="425" y="306" type="line" smooth="yes"/>
      <point x="468" y="306"/>
      <point x="494" y="285"/>
      <point x="494" y="246" type="curve" smooth="yes"/>
      <point x="494" y="189"/>
      <point x="459" y="164"/>
      <point x="392" y="164" type="curve" smooth="yes"/>
      <point x="351" y="164" type="line"/>
      <point x="317" y="0" type="line"/>
      <point x="417" y="0" type="line" smooth="yes"/>
      <point x="610" y="0"/>
      <point x="715" y="88"/>
      <point x="715" y="217" type="curve" smooth="yes"/>
      <point x="715" y="303"/>
      <point x="668" y="359"/>
      <point x="595" y="372" type="curve"/>
      <point x="597" y="380" type="line"/>
      <point x="671" y="398"/>
      <point x="722" y="464"/>
      <point x="722" y="545" type="curve" smooth="yes"/>
      <point x="722" y="660"/>
      <point x="629" y="736"/>
      <point x="469" y="736" type="curve" smooth="yes"/>
      <point x="312" y="736"/>
      <point x="181" y="662"/>
      <point x="149" y="511" type="curve" smooth="yes"/>
    </contour>
    <contour>
      <point x="26" y="378" type="line"/>
      <point x="135" y="378" type="line"/>
      <point x="174" y="544" type="line"/>
      <point x="62" y="544" type="line"/>
    </contour>
  </outline>
</glyph>
<glyph name="ae" format="2">
  <advance width="1042"/>
  <unicode hex="00E6"/>
  <outline>
    <contour>
      <point x="191" y="-10" type="curve" smooth="yes"/>
      <point x="291" y="-10"/>
      <point x="384" y="26"/>
      <point x="425" y="73" type="curve"/>
      <point x="435" y="73" type="line"/>
      <point x="484" y="20"/>
      <point x="573" y="-9"/>
      <point x="679" y="-9" type="curve" smooth="yes"/>
      <point x="854" y="-9"/>
      <point x="988" y="67"/>
      <point x="1013" y="180" type="curve"/>
      <point x="791" y="180" type="line"/>
      <point x="775" y="157"/>
      <point x="737" y="140"/>
      <point x="685" y="140" type="curve" smooth="yes"/>
      <point x="616" y="140"/>
      <point x="572" y="174"/>
      <point x="580" y="232" type="curve" smooth="yes"/>
      <point x="593" y="327" type="line" smooth="yes"/>
      <point x="600" y="377"/>
      <point x="642" y="409"/>
      <point x="709" y="409" type="curve" smooth="yes"/>
      <point x="773" y="409"/>
      <point x="806" y="377"/>
      <point x="811" y="334" type="curve"/>
      <point x="568" y="334" type="line"/>
      <point x="553" y="219" type="line"/>
      <point x="1022" y="219" type="line"/>
      <point x="1054" y="422"/>
      <point x="929" y="554"/>
      <point x="716" y="554" type="curve" smooth="yes"/>
      <point x="640" y="554"/>
      <point x="572" y="539"/>
      <point x="522" y="513" type="curve"/>
      <point x="515" y="513" type="line"/>
      <point x="466" y="543"/>
      <point x="400" y="554"/>
      <point x="329" y="554" type="curve" smooth="yes"/>
      <point x="169" y="554"/>
      <point x="54" y="488"/>
      <point x="36" y="358" type="curve"/>
      <point x="245" y="358" type="line"/>
      <point x="251" y="387"/>
      <point x="273" y="404"/>
      <point x="319" y="404" type="curve" smooth="yes"/>
      <point x="368" y="404"/>
      <point x="401" y="389"/>
      <point x="392" y="343" type="curve" smooth="yes"/>
      <point x="359" y="183" type="line" smooth="yes"/>
      <point x="352" y="148"/>
      <point x="322" y="124"/>
      <point x="273" y="124" type="curve" smooth="yes"/>
      <point x="238" y="124"/>
      <point x="215" y="139"/>
      <point x="216" y="167" type="curve" smooth="yes"/>
      <point x="217" y="197"/>
      <point x="247" y="211"/>
      <point x="313" y="211" type="curve" smooth="yes"/>
      <point x="382" y="211" type="line"/>
      <point x="403" y="321" type="line"/>
      <point x="269" y="321" type="line" smooth="yes"/>
      <point x="135" y="321"/>
      <point x="-7" y="289"/>
      <point x="-7" y="140" type="curve" smooth="yes"/>
      <point x="-7" y="46"/>
      <point x="72" y="-10"/>
    </contour>
  </outline>
</glyph>
<glyph name="eth" format="2">
  <advance width="649"/>
  <unicode hex="00F0"/>
  <outline>
    <contour>
      <point x="295" y="-8" type="curve" smooth="yes"/>
      <point x="503" y="-8"/>
      <point x="640" y="116"/>
      <point x="640" y="310" type="curve" smooth="yes"/>
      <point x="640" y="462"/>
      <point x="572" y="621"/>
      <point x="468" y="729" type="curve"/>
      <point x="240" y="729" type="line"/>
      <point x="336" y="638"/>
      <point x="403" y="534"/>
      <point x="432" y="454" type="curve"/>
      <point x="426" y="453" type="line"/>
      <point x="397" y="481"/>
      <point x="347" y="498"/>
      <point x="290" y="498" type="curve" smooth="yes"/>
      <point x="120" y="498"/>
      <point x="8" y="391"/>
      <point x="8" y="234" type="curve" smooth="yes"/>
      <point x="8" y="89"/>
      <point x="123" y="-8"/>
    </contour>
    <contour>
      <point x="312" y="147" type="curve" smooth="yes"/>
      <point x="259" y="147"/>
      <point x="218" y="182"/>
      <point x="218" y="245" type="curve" smooth="yes"/>
      <point x="218" y="317"/>
      <point x="263" y="364"/>
      <point x="331" y="364" type="curve" smooth="yes"/>
      <point x="382" y="364"/>
      <point x="427" y="333"/>
      <point x="427" y="267" type="curve" smooth="yes"/>
      <point x="427" y="193"/>
      <point x="379" y="147"/>
    </contour>
    <contour>
      <point x="151" y="526" type="line"/>
      <point x="671" y="569" type="line"/>
      <point x="697" y="692" type="line"/>
      <point x="176" y="649" type="line"/>
    </contour>
  </outline>
</glyph>
<glyph name="divide" format="2">
  <advance width="720"/>
  <unicode hex="00F7"/>
  <outline>
    <contour>
      <point x="102" y="274" type="line"/>
      <point x="618" y="274" type="line"/>
      <point x="654" y="448" type="line"/>
      <point x="139" y="448" type="line"/>
    </contour>
    <contour>
      <point x="221" y="65" type="line"/>
      <point x="402" y="65" type="line"/>
      <point x="432" y="212" type="line"/>
      <point x="252" y="212" type="line"/>
    </contour>
    <contour>
      <point x="315" y="510" type="line"/>
      <point x="495" y="510" type="line"/>
      <point x="526" y="657" type="line"/>
      <point x="346" y="657" type="line"/>
    </contour>
  </outline>
</glyph>
<glyph name="idotless" format="2">
  <advance width="306"/>
  <unicode hex="0131"/>
  <anchor x="97" y="0" name="bottom"/>
  <anchor x="206" y="0" name="ogonek"/>
  <anchor x="209" y="544" name="top"/>
  <outline>
    <contour>
      <point x="-13" y="0" type="line"/>
      <point x="206" y="0" type="line"/>
      <point x="319" y="544" type="line"/>
      <point x="100" y="544" type="line"/>
    </contour>
  </outline>
</glyph>
<glyph name="Eng" format="2">
  <advance width="872"/>
  <unicode hex="014A"/>
  <outline>
    <contour>
      <point x="-9" y="0" type="line"/>
      <point x="218" y="0" type="line"/>
      <point x="267" y="232" type="line"/>
      <point x="303" y="441" type="line"/>
      <point x="311" y="441" type="line"/>
      <point x="501" y="0" type="line"/>
      <point x="768" y="0" type="line"/>
      <point x="919" y="729" type="line"/>
      <point x="695" y="729" type="line"/>
      <point x="647" y="498" type="line"/>
      <point x="608" y="282" type="line"/>
      <point x="600" y="282" type="line"/>
      <point x="411" y="729" type="line"/>
      <point x="142" y="729" type="line"/>
    </contour>
    <contour>
      <point x="453" y="-167" type="line"/>
      <point x="549" y="-167" type="line" smooth="yes"/>
      <point x="684" y="-167"/>
      <point x="746" y="-107"/>
      <point x="767" y="-4" type="curve" smooth="yes"/>
      <point x="772" y="19" type="line"/>
      <point x="581" y="19" type="line"/>
      <point x="576" y="-7" type="line" smooth="yes"/>
      <point x="569" y="-41"/>
      <point x="551" y="-54"/>
      <point x="515" y="-54" type="curve" smooth="yes"/>
      <point x="476" y="-54" type="line"/>
    </contour>
  </outline>
</glyph>
<glyph name="eng" format="2">
  <advance width="714"/>
  <unicode hex="014B"/>
  <outline>
    <contour>
      <point x="273" y="-167" type="line"/>
      <point x="381" y="-167" type="line" smooth="yes"/>
      <point x="528" y="-167"/>
      <point x="611" y="-95"/>
      <point x="637" y="33" type="curve" smooth="yes"/>
      <point x="688" y="282" type="line" smooth="yes"/>
      <point x="725" y="461"/>
      <point x="638" y="554"/>
      <point x="491" y="554" type="curve" smooth="yes"/>
      <point x="421" y="554"/>
      <point x="349" y="523"/>
      <point x="314" y="478" type="curve"/>
      <point x="306" y="478" type="line"/>
      <point x="309" y="544" type="line"/>
      <point x="100" y="544" type="line"/>
      <point x="-13" y="0" type="line"/>
      <point x="206" y="0" type="line"/>
      <point x="263" y="276" type="line" smooth="yes"/>
      <point x="278" y="348"/>
      <point x="317" y="389"/>
      <point x="390" y="389" type="curve" smooth="yes"/>
      <point x="450" y="389"/>
      <point x="483" y="347"/>
      <point x="465" y="261" type="curve" smooth="yes"/>
      <point x="423" y="60" type="line" smooth="yes"/>
      <point x="414" y="15"/>
      <point x="396" y="-3"/>
      <point x="356" y="-3" type="curve" smooth="yes"/>
      <point x="305" y="-3" type="line"/>
    </contour>
  </outline>
</glyph>
<glyph name="OE" format="2">
  <advance width="1190"/>
  <unicode hex="0152"/>
  <anchor x="539" y="0" name="bottom"/>
  <anchor x="690" y="729" name="top"/>
  <outline>
    <contour>
      <point x="394" y="-10" type="curve" smooth="yes"/>
      <point x="443" y="-10"/>
      <point x="486" y="-6"/>
      <point x="519" y="0" type="curve"/>
      <point x="1112" y="0" type="line"/>
      <point x="1149" y="179" type="line"/>
      <point x="742" y="179" type="line"/>
      <point x="764" y="282" type="line"/>
      <point x="1118" y="282" type="line"/>
      <point x="1153" y="449" type="line"/>
      <point x="799" y="449" type="line"/>
      <point x="820" y="550" type="line"/>
      <point x="1223" y="550" type="line"/>
      <point x="1260" y="729" type="line"/>
      <point x="596" y="729" type="line"/>
      <point x="561" y="735"/>
      <point x="520" y="739"/>
      <point x="474" y="739" type="curve" smooth="yes"/>
      <point x="229" y="739"/>
      <point x="70" y="613"/>
      <point x="38" y="400" type="curve" smooth="yes"/>
      <point x="1" y="150"/>
      <point x="134" y="-10"/>
    </contour>
    <contour>
      <point x="456" y="168" type="curve" smooth="yes"/>
      <point x="310" y="168"/>
      <point x="246" y="248"/>
      <point x="267" y="384" type="curve" smooth="yes"/>
      <point x="285" y="502"/>
      <point x="361" y="561"/>
      <point x="484" y="561" type="curve" smooth="yes"/>
      <point x="528" y="561"/>
      <point x="565" y="554"/>
      <point x="590" y="542" type="curve"/>
      <point x="514" y="172" type="line"/>
      <point x="495" y="169"/>
      <point x="473" y="168"/>
    </contour>
  </outline>
</glyph>
<glyph name="oe" format="2">
  <advance width="1127"/>
  <unicode hex="0153"/>
  <anchor x="517" y="0" name="bottom"/>
  <anchor x="605" y="544" name="top"/>
  <outline>
    <contour>
      <point x="322" y="-10" type="curve" smooth="yes"/>
      <point x="414" y="-10"/>
      <point x="491" y="11"/>
      <point x="550" y="52" type="curve"/>
      <point x="548" y="52" type="line"/>
      <point x="600" y="13"/>
      <point x="671" y="-8"/>
      <point x="756" y="-9" type="curve" smooth="yes"/>
      <point x="948" y="-13"/>
      <point x="1069" y="63"/>
      <point x="1099" y="180" type="curve"/>
      <point x="884" y="180" type="line"/>
      <point x="868" y="156"/>
      <point x="828" y="139"/>
      <point x="773" y="140" type="curve" smooth="yes"/>
      <point x="715" y="141"/>
      <point x="667" y="170"/>
      <point x="673" y="222" type="curve" smooth="yes"/>
      <point x="684" y="313" type="line" smooth="yes"/>
      <point x="691" y="378"/>
      <point x="738" y="405"/>
      <point x="802" y="405" type="curve" smooth="yes"/>
      <point x="857" y="405"/>
      <point x="899" y="381"/>
      <point x="903" y="339" type="curve"/>
      <point x="905" y="340" type="line"/>
      <point x="673" y="340" type="line"/>
      <point x="657" y="222" type="line"/>
      <point x="1099" y="222" type="line"/>
      <point x="1143" y="427"/>
      <point x="1022" y="554"/>
      <point x="811" y="554" type="curve" smooth="yes"/>
      <point x="719" y="554"/>
      <point x="643" y="532"/>
      <point x="585" y="492" type="curve"/>
      <point x="587" y="492" type="line"/>
      <point x="534" y="532"/>
      <point x="458" y="554"/>
      <point x="364" y="554" type="curve" smooth="yes"/>
      <point x="153" y="554"/>
      <point x="16" y="437"/>
      <point x="10" y="252" type="curve" smooth="yes"/>
      <point x="4" y="93"/>
      <point x="121" y="-10"/>
    </contour>
    <contour>
      <point x="332" y="157" type="curve" smooth="yes"/>
      <point x="270" y="157"/>
      <point x="227" y="197"/>
      <point x="229" y="259" type="curve" smooth="yes"/>
      <point x="232" y="337"/>
      <point x="279" y="387"/>
      <point x="355" y="387" type="curve" smooth="yes"/>
      <point x="417" y="387"/>
      <point x="461" y="347"/>
      <point x="458" y="285" type="curve" smooth="yes"/>
      <point x="456" y="207"/>
      <point x="408" y="157"/>
    </contour>
  </outline>
</glyph>
<glyph name="florin" format="2">
  <advance width="475"/>
  <unicode hex="0192"/>
  <outline>
    <contour>
      <point x="-73" y="-167" type="line"/>
      <point x="46" y="-167" type="line" smooth="yes"/>
      <point x="167" y="-167"/>
      <point x="264" y="-98"/>
      <point x="291" y="33" type="curve" smooth="yes"/>
      <point x="385" y="489" type="line" smooth="yes"/>
      <point x="398" y="551"/>
      <point x="426" y="571"/>
      <point x="481" y="571" type="curve" smooth="yes"/>
      <point x="519" y="571" type="line"/>
      <point x="552" y="729" type="line"/>
      <point x="433" y="729" type="line" smooth="yes"/>
      <point x="312" y="729"/>
      <point x="215" y="660"/>
      <point x="188" y="529" type="curve" smooth="yes"/>
      <point x="94" y="73" type="line" smooth="yes"/>
      <point x="81" y="11"/>
      <point x="53" y="-9"/>
      <point x="-2" y="-9" type="curve" smooth="yes"/>
      <point x="-40" y="-9" type="line"/>
    </contour>
    <contour>
      <point x="48" y="302" type="line"/>
      <point x="456" y="302" type="line"/>
      <point x="487" y="452" type="line"/>
      <point x="79" y="452" type="line"/>
    </contour>
  </outline>
</glyph>
<glyph name="jdotless" format="2">
  <advance width="307"/>
  <unicode hex="0237"/>
  <anchor x="67" y="-200" name="bottom"/>
  <anchor x="210" y="544" name="top"/>
  <outline>
    <contour>
      <point x="-131" y="-167" type="line"/>
      <point x="-43" y="-167" type="line" smooth="yes"/>
      <point x="104" y="-167"/>
      <point x="186" y="-95"/>
      <point x="213" y="33" type="curve" smooth="yes"/>
      <point x="320" y="544" type="line"/>
      <point x="100" y="544" type="line"/>
      <point x="-1" y="60" type="line" smooth="yes"/>
      <point x="-10" y="15"/>
      <point x="-28" y="-3"/>
      <point x="-68" y="-3" type="curve" smooth="yes"/>
      <point x="-99" y="-3" type="line"/>
    </contour>
  </outline>
</glyph>
<glyph name="gravecomb" format="2">
  <unicode hex="0300"/>
  <anchor x="317" y="673" name="_top"/>
  <outline>
    <contour>
      <point x="252" y="729" type="line"/>
      <point x="398" y="729" type="line"/>
      <point x="365" y="878" type="line"/>
      <point x="165" y="878" type="line"/>
    </contour>
  </outline>
</glyph>
<glyph name="acutecomb" format="2">
  <unicode hex="0301"/>
  <anchor x="200" y="673" name="_top"/>
  <outline>
    <contour>
      <point x="135" y="729" type="line"/>
      <point x="289" y="729" type="line"/>
      <point x="436" y="878" type="line"/>
      <point x="228" y="878" type="line"/>
    </contour>
  </outline>
</glyph>
<glyph name="circumflexcomb" format="2">
  <unicode hex="0302"/>
  <anchor x="376" y="673" name="_top"/>
  <outline>
    <contour>
      <point x="135" y="729" type="line"/>
      <point x="316" y="729" type="line"/>
      <point x="407" y="806" type="line"/>
      <point x="466" y="729" type="line"/>
      <point x="637" y="729" type="line"/>
      <point x="535" y="878" type="line"/>
      <point x="297" y="878" type="line"/>
    </contour>
  </outline>
</glyph>
<glyph name="tildecomb" format="2">
  <unicode hex="0303"/>
  <anchor x="344" y="678" name="_top"/>
  <outline>
    <contour>
      <point x="439" y="736" type="curve" smooth="yes"/>
      <point x="500" y="736"/>
      <point x="554" y="759"/>
      <point x="592" y="846" type="curve"/>
      <point x="518" y="894" type="line"/>
      <point x="498" y="868"/>
      <point x="479" y="857"/>
      <point x="450" y="857" type="curve" smooth="yes"/>
      <point x="401" y="857"/>
      <point x="365" y="892"/>
      <point x="299" y="892" type="curve" smooth="yes"/>
      <point x="252" y="892"/>
      <point x="192" y="868"/>
      <point x="146" y="782" type="curve"/>
      <point x="220" y="734" type="line"/>
      <point x="236" y="756"/>
      <point x="257" y="771"/>
      <point x="288" y="771" type="curve" smooth="yes"/>
      <point x="333" y="771"/>
      <point x="373" y="736"/>
    </contour>
  </outline>
</glyph>
<glyph name="macroncomb" format="2">
  <unicode hex="0304"/>
  <anchor x="348" y="673" name="_top"/>
  <outline>
    <contour>
      <point x="139" y="745" type="line"/>
      <point x="586" y="745" type="line"/>
      <point x="614" y="884" type="line"/>
      <point x="167" y="884" type="line"/>
    </contour>
  </outline>
</glyph>
<glyph name="brevecomb" format="2">
  <unicode hex="0306"/>
  <anchor x="322" y="678" name="_top"/>
  <outline>
    <contour>
      <point x="343" y="729" type="curve" smooth="yes"/>
      <point x="463" y="729"/>
      <point x="535" y="785"/>
      <point x="542" y="884" type="curve"/>
      <point x="421" y="884" type="line"/>
      <point x="418" y="847"/>
      <point x="391" y="828"/>
      <point x="351" y="828" type="curve" smooth="yes"/>
      <point x="312" y="828"/>
      <point x="287" y="849"/>
      <point x="289" y="884" type="curve"/>
      <point x="167" y="884" type="line"/>
      <point x="162" y="791"/>
      <point x="235" y="729"/>
    </contour>
  </outline>
</glyph>
<glyph name="dotaccentcomb" format="2">
  <unicode hex="0307"/>
  <anchor x="244" y="673" name="_top"/>
  <outline>
    <contour>
      <point x="263" y="715" type="curve" smooth="yes"/>
      <point x="344" y="715"/>
      <point x="390" y="748"/>
      <point x="390" y="806" type="curve" smooth="yes"/>
      <point x="390" y="854"/>
      <point x="353" y="883"/>
      <point x="277" y="883" type="curve" smooth="yes"/>
      <point x="196" y="883"/>
      <point x="150" y="850"/>
      <point x="150" y="792" type="curve" smooth="yes"/>
      <point x="150" y="744"/>
      <point x="187" y="715"/>
    </contour>
  </outline>
</glyph>
<glyph name="dieresiscomb" format="2">
  <unicode hex="0308"/>
  <anchor x="369" y="678" name="_top"/>
  <outline>
    <contour>
      <point x="518" y="719" type="curve" smooth="yes"/>
      <point x="595" y="719"/>
      <point x="639" y="750"/>
      <point x="639" y="805" type="curve" smooth="yes"/>
      <point x="639" y="851"/>
      <point x="604" y="879"/>
      <point x="532" y="879" type="curve" smooth="yes"/>
      <point x="455" y="879"/>
      <point x="411" y="847"/>
      <point x="411" y="792" type="curve" smooth="yes"/>
      <point x="411" y="747"/>
      <point x="446" y="719"/>
    </contour>
    <contour>
      <point x="257" y="719" type="curve" smooth="yes"/>
      <point x="334" y="719"/>
      <point x="378" y="750"/>
      <point x="378" y="805" type="curve" smooth="yes"/>
      <point x="378" y="851"/>
      <point x="343" y="879"/>
      <point x="271" y="879" type="curve" smooth="yes"/>
      <point x="194" y="879"/>
      <point x="150" y="847"/>
      <point x="150" y="792" type="curve" smooth="yes"/>
      <point x="150" y="747"/>
      <point x="185" y="719"/>
    </contour>
  </outline>
</glyph>
<glyph name="hookabovecomb" format="2">
  <unicode hex="0309"/>
  <anchor x="252" y="681" name="_top"/>
  <outline>
    <contour>
      <point x="210" y="727" type="line"/>
      <point x="363" y="748"/>
      <point x="449" y="805"/>
      <point x="449" y="887" type="curve" smooth="yes"/>
      <point x="449" y="953"/>
      <point x="391" y="994"/>
      <point x="257" y="994" type="curve" smooth="yes"/>
      <point x="233" y="994"/>
      <point x="210" y="993"/>
      <point x="188" y="989" type="curve"/>
      <point x="169" y="893" type="line"/>
      <point x="182" y="895"/>
      <point x="196" y="896"/>
      <point x="209" y="896" type="curve" smooth="yes"/>
      <point x="235" y="896"/>
      <point x="266" y="893"/>
      <point x="266" y="871" type="curve" smooth="yes"/>
      <point x="266" y="851"/>
      <point x="250" y="837"/>
      <point x="184" y="825" type="curve"/>
    </contour>
  </outline>
</glyph>
<glyph name="ringcomb" format="2">
  <unicode hex="030A"/>
  <anchor x="270" y="678" name="_top"/>
  <outline>
    <contour>
      <point x="300" y="715" type="curve" smooth="yes"/>
      <point x="387" y="715"/>
      <point x="445" y="763"/>
      <point x="445" y="836" type="curve" smooth="yes"/>
      <point x="445" y="912"/>
      <point x="389" y="955"/>
      <point x="305" y="955" type="curve" smooth="yes"/>
      <point x="217" y="955"/>
      <point x="159" y="907"/>
      <point x="159" y="834" type="curve" smooth="yes"/>
      <point x="159" y="758"/>
      <point x="215" y="715"/>
    </contour>
    <contour>
      <point x="301" y="797" type="curve" smooth="yes"/>
      <point x="278" y="797"/>
      <point x="263" y="811"/>
      <point x="263" y="835" type="curve" smooth="yes"/>
      <point x="264" y="858"/>
      <point x="278" y="873"/>
      <point x="303" y="873" type="curve" smooth="yes"/>
      <point x="326" y="873"/>
      <point x="341" y="859"/>
      <point x="341" y="835" type="curve" smooth="yes"/>
      <point x="340" y="812"/>
      <point x="326" y="797"/>
    </contour>
  </outline>
</glyph>
<glyph name="hungarumlautcomb" format="2">
  <unicode hex="030B"/>
  <anchor x="305" y="673" name="_top"/>
  <outline>
    <contour>
      <point x="135" y="729" type="line"/>
      <point x="284" y="729" type="line"/>
      <point x="408" y="878" type="line"/>
      <point x="216" y="878" type="line"/>
    </contour>
    <contour>
      <point x="350" y="729" type="line"/>
      <point x="514" y="729" type="line"/>
      <point x="676" y="878" type="line"/>
      <point x="471" y="878" type="line"/>
    </contour>
  </outline>
</glyph>
<glyph name="caroncomb" format="2">
  <unicode hex="030C"/>
  <anchor x="374" y="673" name="_top"/>
  <outline>
    <contour>
      <point x="267" y="729" type="line"/>
      <point x="505" y="729" type="line"/>
      <point x="667" y="878" type="line"/>
      <point x="486" y="878" type="line"/>
      <point x="395" y="801" type="line"/>
      <point x="336" y="878" type="line"/>
      <point x="165" y="878" type="line"/>
    </contour>
  </outline>
</glyph>
<glyph name="commaturnedabovecomb" format="2">
  <unicode hex="0312"/>
  <anchor x="204" y="678" name="_top"/>
  <outline>
    <contour>
      <point x="136" y="735" type="line"/>
      <point x="296" y="735" type="line"/>
      <point x="303" y="770" type="line" smooth="yes"/>
      <point x="316" y="831"/>
      <point x="330" y="862"/>
      <point x="367" y="901" type="curve"/>
      <point x="305" y="979" type="line"/>
      <point x="210" y="926"/>
      <point x="164" y="873"/>
      <point x="147" y="788" type="curve" smooth="yes"/>
    </contour>
  </outline>
</glyph>
<glyph name="horncomb" format="2">
  <unicode hex="031B"/>
  <anchor x="112" y="622" name="_topright"/>
  <outline>
    <contour>
      <point x="90" y="507" type="line"/>
      <point x="273" y="483"/>
      <point x="395" y="545"/>
      <point x="407" y="689" type="curve"/>
      <point x="233" y="689" type="line"/>
      <point x="224" y="634"/>
      <point x="192" y="618"/>
      <point x="112" y="622" type="curve"/>
    </contour>
  </outline>
</glyph>
<glyph name="dotbelowcomb" format="2">
  <unicode hex="0323"/>
  <anchor x="97" y="0" name="_bottom"/>
  <outline>
    <contour>
      <point x="65" y="-207" type="curve" smooth="yes"/>
      <point x="136" y="-207"/>
      <point x="183" y="-174"/>
      <point x="183" y="-119" type="curve" smooth="yes"/>
      <point x="183" y="-72"/>
      <point x="145" y="-41"/>
      <point x="77" y="-41" type="curve" smooth="yes"/>
      <point x="6" y="-41"/>
      <point x="-41" y="-74"/>
      <point x="-41" y="-129" type="curve" smooth="yes"/>
      <point x="-41" y="-176"/>
      <point x="-3" y="-207"/>
    </contour>
  </outline>
</glyph>
<glyph name="commaaccentcomb" format="2">
  <unicode hex="0326"/>
  <anchor x="123" y="0" name="_bottom"/>
  <outline>
    <contour>
      <point x="-64" y="-232" type="line"/>
      <point x="100" y="-232" type="line"/>
      <point x="213" y="-56" type="line"/>
      <point x="9" y="-56" type="line"/>
    </contour>
  </outline>
</glyph>
<glyph name="cedillacomb" format="2">
  <unicode hex="0327"/>
  <anchor x="176" y="0" name="_bottom"/>
  <outline>
    <contour>
      <point x="130" y="-263" type="curve" smooth="yes"/>
      <point x="231" y="-263"/>
      <point x="298" y="-216"/>
      <point x="298" y="-147" type="curve" smooth="yes"/>
      <point x="298" y="-87"/>
      <point x="258" y="-55"/>
      <point x="206" y="-39" type="curve"/>
      <point x="238" y="15" type="line"/>
      <point x="148" y="23" type="line"/>
      <point x="74" y="-55" type="line"/>
      <point x="84" y="-84" type="line"/>
      <point x="135" y="-92"/>
      <point x="163" y="-101"/>
      <point x="163" y="-127" type="curve" smooth="yes"/>
      <point x="163" y="-146"/>
      <point x="147" y="-156"/>
      <point x="123" y="-156" type="curve" smooth="yes"/>
      <point x="94" y="-156"/>
      <point x="78" y="-139"/>
      <point x="75" y="-118" type="curve"/>
      <point x="-45" y="-137" type="line"/>
      <point x="-38" y="-213"/>
      <point x="32" y="-263"/>
    </contour>
  </outline>
</glyph>
<glyph name="ogonekcomb" format="2">
  <unicode hex="0328"/>
  <anchor x="331" y="0" name="_ogonek"/>
  <outline>
    <contour>
      <point x="179" y="-222" type="curve" smooth="yes"/>
      <point x="226" y="-222"/>
      <point x="277" y="-214"/>
      <point x="306" y="-201" type="curve"/>
      <point x="321" y="-119" type="line"/>
      <point x="307" y="-125"/>
      <point x="284" y="-128"/>
      <point x="267" y="-128" type="curve" smooth="yes"/>
      <point x="233" y="-128"/>
      <point x="219" y="-113"/>
      <point x="219" y="-95" type="curve" smooth="yes"/>
      <point x="219" y="-61"/>
      <point x="255" y="-34"/>
      <point x="331" y="0" type="curve"/>
      <point x="325" y="10" type="line"/>
      <point x="208" y="10" type="line"/>
      <point x="95" y="-25"/>
      <point x="40" y="-76"/>
      <point x="40" y="-134" type="curve" smooth="yes"/>
      <point x="40" y="-190"/>
      <point x="96" y="-222"/>
    </contour>
  </outline>
</glyph>
<glyph name="strokeshortcomb" format="2">
  <unicode hex="0335"/>
  <anchor x="242" y="306" name="_center"/>
  <outline>
    <contour>
      <point x="35" y="248" type="line"/>
      <point x="424" y="248" type="line"/>
      <point x="448" y="364" type="line"/>
      <point x="59" y="364" type="line"/>
    </contour>
  </outline>
</glyph>
<glyph name="strokelongcomb" format="2">
  <unicode hex="0336"/>
  <anchor x="518" y="365" name="_center"/>
  <outline>
    <contour>
      <point x="46" y="300" type="line"/>
      <point x="964" y="300" type="line"/>
      <point x="992" y="438" type="line"/>
      <point x="74" y="438" type="line"/>
    </contour>
  </outline>
</glyph>
<glyph name="slashlongcomb" format="2">
  <unicode hex="0338"/>
  <anchor x="380" y="272" name="_center"/>
  <outline>
    <contour>
      <point x="-29" y="-60" type="line"/>
      <point x="124" y="-60" type="line"/>
      <point x="794" y="604" type="line"/>
      <point x="642" y="604" type="line"/>
    </contour>
  </outline>
</glyph>
<glyph name="mu" format="2">
  <advance width="750"/>
  <unicode hex="03BC"/>
  <outline>
    <contour>
      <point x="-21" y="-132" type="line"/>
      <point x="200" y="-132" type="line"/>
      <point x="230" y="37" type="line"/>
      <point x="172" y="3" type="line"/>
      <point x="185" y="-5"/>
      <point x="211" y="-10"/>
      <point x="236" y="-10" type="curve" smooth="yes"/>
      <point x="315" y="-10"/>
      <point x="394" y="26"/>
      <point x="435" y="79" type="curve"/>
      <point x="443" y="79" type="line"/>
      <point x="439" y="0" type="line"/>
      <point x="651" y="0" type="line"/>
      <point x="747" y="544" type="line"/>
      <point x="526" y="544" type="line"/>
      <point x="478" y="273" type="line" smooth="yes"/>
      <point x="466" y="202"/>
      <point x="429" y="155"/>
      <point x="344" y="155" type="curve" smooth="yes"/>
      <point x="269" y="155"/>
      <point x="260" y="208"/>
      <point x="273" y="280" type="curve" smooth="yes"/>
      <point x="320" y="544" type="line"/>
      <point x="99" y="544" type="line"/>
    </contour>
  </outline>
</glyph>
<glyph name="pi" format="2">
  <advance width="708"/>
  <unicode hex="03C0"/>
  <outline>
    <contour>
      <point x="509" y="-9" type="curve" smooth="yes"/>
      <point x="549" y="-9"/>
      <point x="596" y="-2"/>
      <point x="625" y="8" type="curve"/>
      <point x="660" y="174" type="line"/>
      <point x="649" y="168"/>
      <point x="632" y="165"/>
      <point x="617" y="165" type="curve" smooth="yes"/>
      <point x="599" y="165"/>
      <point x="578" y="169"/>
      <point x="588" y="221" type="curve" smooth="yes"/>
      <point x="620" y="372" type="line"/>
      <point x="702" y="372" type="line"/>
      <point x="738" y="544" type="line"/>
      <point x="61" y="544" type="line"/>
      <point x="26" y="372" type="line"/>
      <point x="107" y="372" type="line"/>
      <point x="29" y="0" type="line"/>
      <point x="244" y="0" type="line"/>
      <point x="322" y="372" type="line"/>
      <point x="406" y="372" type="line"/>
      <point x="364" y="172" type="line" smooth="yes"/>
      <point x="340" y="59"/>
      <point x="368" y="-9"/>
    </contour>
  </outline>
</glyph>
<glyph name="Germandbls" format="2">
  <advance width="805"/>
  <unicode hex="1E9E"/>
  <outline>
    <contour>
      <point x="-10" y="0" type="line"/>
      <point x="217" y="0" type="line"/>
      <point x="335" y="567" type="line"/>
      <point x="591" y="567" type="line"/>
      <point x="423" y="401" type="line"/>
      <point x="402" y="303" type="line"/>
      <point x="478" y="303" type="line" smooth="yes"/>
      <point x="521" y="303"/>
      <point x="551" y="285"/>
      <point x="549" y="238" type="curve" smooth="yes"/>
      <point x="547" y="186"/>
      <point x="511" y="156"/>
      <point x="450" y="156" type="curve" smooth="yes"/>
      <point x="325" y="156" type="line"/>
      <point x="292" y="0" type="line"/>
      <point x="491" y="0" type="line" smooth="yes"/>
      <point x="666" y="0"/>
      <point x="783" y="83"/>
      <point x="788" y="221" type="curve" smooth="yes"/>
      <point x="791" y="328"/>
      <point x="725" y="398"/>
      <point x="622" y="398" type="curve" smooth="yes"/>
      <point x="603" y="398" type="line"/>
      <point x="648" y="353" type="line"/>
      <point x="658" y="406" type="line"/>
      <point x="792" y="529" type="line"/>
      <point x="834" y="729" type="line"/>
      <point x="143" y="729" type="line"/>
    </contour>
  </outline>
</glyph>
<glyph name="endash" format="2">
  <advance width="585"/>
  <unicode hex="2013"/>
  <outline>
    <contour>
      <point x="13" y="188" type="line"/>
      <point x="537" y="188" type="line"/>
      <point x="572" y="356" type="line"/>
      <point x="48" y="356" type="line"/>
    </contour>
  </outline>
</glyph>
<glyph name="emdash" format="2">
  <advance width="761"/>
  <unicode hex="2014"/>
  <outline>
    <contour>
      <point x="13" y="188" type="line"/>
      <point x="713" y="188" type="line"/>
      <point x="748" y="356" type="line"/>
      <point x="48" y="356" type="line"/>
    </contour>
  </outline>
</glyph>
<glyph name="bullet" format="2">
  <advance width="286"/>
  <unicode hex="2022"/>
  <outline>
    <contour>
      <point x="118" y="140" type="curve" smooth="yes"/>
      <point x="209" y="140"/>
      <point x="283" y="215"/>
      <point x="283" y="306" type="curve" smooth="yes"/>
      <point x="283" y="369"/>
      <point x="240" y="414"/>
      <point x="169" y="414" type="curve" smooth="yes"/>
      <point x="80" y="414"/>
      <point x="5" y="338"/>
      <point x="5" y="249" type="curve" smooth="yes"/>
      <point x="5" y="186"/>
      <point x="50" y="140"/>
    </contour>
  </outline>
</glyph>
<glyph name="guilsinglleft" format="2">
  <advance width="388"/>
  <unicode hex="2039"/>
  <outline>
    <contour>
      <point x="164" y="64" type="line"/>
      <point x="330" y="64" type="line"/>
      <point x="235" y="304" type="line"/>
      <point x="387" y="544" type="line"/>
      <point x="212" y="544" type="line"/>
      <point x="40" y="304" type="line"/>
    </contour>
  </outline>
</glyph>
<glyph name="zeroinferior" format="2">
  <advance width="504"/>
  <unicode hex="2080"/>
  <anchor x="232" y="177" name="_center"/>
  <outline>
    <contour>
      <point x="211" y="-44" type="curve" smooth="yes"/>
      <point x="340" y="-44"/>
      <point x="439" y="24"/>
      <point x="464" y="144" type="curve" smooth="yes"/>
      <point x="482" y="243"/>
      <point x="458" y="396"/>
      <point x="252" y="396" type="curve" smooth="yes"/>
      <point x="122" y="396"/>
      <point x="25" y="330"/>
      <point x="0" y="211" type="curve" smooth="yes"/>
      <point x="-20" y="115"/>
      <point x="1" y="-44"/>
    </contour>
    <contour>
      <point x="221" y="77" type="curve" smooth="yes"/>
      <point x="133" y="77"/>
      <point x="140" y="160"/>
      <point x="146" y="195" type="curve" smooth="yes"/>
      <point x="156" y="243"/>
      <point x="188" y="276"/>
      <point x="244" y="276" type="curve" smooth="yes"/>
      <point x="329" y="276"/>
      <point x="325" y="189"/>
      <point x="317" y="159" type="curve" smooth="yes"/>
      <point x="307" y="110"/>
      <point x="275" y="77"/>
    </contour>
  </outline>
</glyph>
<glyph name="oneinferior" format="2">
  <advance width="309"/>
  <unicode hex="2081"/>
  <anchor x="159" y="177" name="_center"/>
  <outline>
    <contour>
      <point x="53" y="-40" type="line"/>
      <point x="201" y="-40" type="line"/>
      <point x="291" y="393" type="line"/>
      <point x="152" y="393" type="line"/>
      <point x="136" y="344"/>
      <point x="86" y="313"/>
      <point x="32" y="313" type="curve" smooth="yes"/>
      <point x="14" y="313" type="line"/>
      <point x="-9" y="205" type="line"/>
      <point x="104" y="205" type="line"/>
    </contour>
  </outline>
</glyph>
<glyph name="twoinferior" format="2">
  <advance width="426"/>
  <unicode hex="2082"/>
  <anchor x="175" y="177" name="_center"/>
  <outline>
    <contour>
      <point x="-40" y="-40" type="line"/>
      <point x="343" y="-40" type="line"/>
      <point x="364" y="74" type="line"/>
      <point x="193" y="74" type="line"/>
      <point x="279" y="114"/>
      <point x="390" y="148"/>
      <point x="390" y="265" type="curve" smooth="yes"/>
      <point x="390" y="346"/>
      <point x="334" y="398"/>
      <point x="208" y="398" type="curve" smooth="yes"/>
      <point x="95" y="398"/>
      <point x="27" y="345"/>
      <point x="6" y="243" type="curve"/>
      <point x="152" y="243" type="line"/>
      <point x="160" y="270"/>
      <point x="167" y="287"/>
      <point x="203" y="287" type="curve" smooth="yes"/>
      <point x="225" y="287"/>
      <point x="241" y="277"/>
      <point x="240" y="252" type="curve" smooth="yes"/>
      <point x="238" y="185"/>
      <point x="-24" y="151"/>
      <point x="-39" y="-30" type="curve" smooth="yes"/>
    </contour>
  </outline>
</glyph>
<glyph name="threeinferior" format="2">
  <advance width="434"/>
  <unicode hex="2083"/>
  <anchor x="191" y="177" name="_center"/>
  <outline>
    <contour>
      <point x="157" y="-45" type="curve" smooth="yes"/>
      <point x="287" y="-45"/>
      <point x="374" y="4"/>
      <point x="377" y="90" type="curve" smooth="yes"/>
      <point x="379" y="136"/>
      <point x="355" y="170"/>
      <point x="313" y="179" type="curve"/>
      <point x="313" y="183" type="line"/>
      <point x="366" y="193"/>
      <point x="407" y="230"/>
      <point x="409" y="280" type="curve" smooth="yes"/>
      <point x="412" y="373"/>
      <point x="307" y="397"/>
      <point x="233" y="397" type="curve" smooth="yes"/>
      <point x="115" y="397"/>
      <point x="32" y="354"/>
      <point x="13" y="256" type="curve"/>
      <point x="156" y="256" type="line"/>
      <point x="165" y="278"/>
      <point x="181" y="289"/>
      <point x="212" y="289" type="curve" smooth="yes"/>
      <point x="242" y="289"/>
      <point x="254" y="283"/>
      <point x="253" y="258" type="curve" smooth="yes"/>
      <point x="252" y="236"/>
      <point x="227" y="225"/>
      <point x="193" y="225" type="curve" smooth="yes"/>
      <point x="141" y="225" type="line"/>
      <point x="121" y="132" type="line"/>
      <point x="176" y="132" type="line" smooth="yes"/>
      <point x="205" y="132"/>
      <point x="229" y="128"/>
      <point x="229" y="100" type="curve" smooth="yes"/>
      <point x="229" y="72"/>
      <point x="204" y="63"/>
      <point x="167" y="63" type="curve" smooth="yes"/>
      <point x="136" y="63"/>
      <point x="122" y="76"/>
      <point x="121" y="99" type="curve"/>
      <point x="-27" y="99" type="line"/>
      <point x="-27" y="12"/>
      <point x="19" y="-45"/>
    </contour>
  </outline>
</glyph>
<glyph name="fourinferior" format="2">
  <advance width="432"/>
  <unicode hex="2084"/>
  <anchor x="178" y="177" name="_center"/>
  <outline>
    <contour>
      <point x="158" y="-40" type="line"/>
      <point x="306" y="-40" type="line"/>
      <point x="397" y="393" type="line"/>
      <point x="221" y="393" type="line"/>
      <point x="-21" y="141" type="line"/>
      <point x="-42" y="42" type="line"/>
      <point x="371" y="42" type="line"/>
      <point x="395" y="157" type="line"/>
      <point x="137" y="157" type="line"/>
      <point x="220" y="251" type="line"/>
      <point x="219" y="251" type="line"/>
    </contour>
  </outline>
</glyph>
<glyph name="fiveinferior" format="2">
  <advance width="441"/>
  <unicode hex="2085"/>
  <anchor x="202" y="177" name="_center"/>
  <outline>
    <contour>
      <point x="173" y="-45" type="curve" smooth="yes"/>
      <point x="299" y="-45"/>
      <point x="389" y="11"/>
      <point x="393" y="115" type="curve" smooth="yes"/>
      <point x="396" y="200"/>
      <point x="340" y="247"/>
      <point x="252" y="247" type="curve" smooth="yes"/>
      <point x="223" y="247"/>
      <point x="190" y="241"/>
      <point x="174" y="232" type="curve"/>
      <point x="168" y="234" type="line"/>
      <point x="182" y="276" type="line"/>
      <point x="392" y="276" type="line"/>
      <point x="417" y="393" type="line"/>
      <point x="72" y="393" type="line"/>
      <point x="-2" y="121" type="line"/>
      <point x="139" y="121" type="line"/>
      <point x="149" y="136"/>
      <point x="168" y="146"/>
      <point x="196" y="146" type="curve" smooth="yes"/>
      <point x="224" y="146"/>
      <point x="243" y="133"/>
      <point x="242" y="110" type="curve" smooth="yes"/>
      <point x="241" y="81"/>
      <point x="218" y="65"/>
      <point x="184" y="65" type="curve" smooth="yes"/>
      <point x="157" y="65"/>
      <point x="140" y="71"/>
      <point x="135" y="96" type="curve"/>
      <point x="-13" y="96" type="line"/>
      <point x="-11" y="2"/>
      <point x="50" y="-45"/>
    </contour>
  </outline>
</glyph>
<glyph name="sixinferior" format="2">
  <advance width="456"/>
  <unicode hex="2086"/>
  <anchor x="213" y="177" name="_center"/>
  <outline>
    <contour>
      <point x="192" y="-47" type="curve" smooth="yes"/>
      <point x="317" y="-47"/>
      <point x="403" y="14"/>
      <point x="406" y="107" type="curve" smooth="yes"/>
      <point x="409" y="197"/>
      <point x="348" y="244"/>
      <point x="250" y="244" type="curve" smooth="yes"/>
      <point x="212" y="244"/>
      <point x="175" y="235"/>
      <point x="158" y="225" type="curve"/>
      <point x="152" y="228" type="line"/>
      <point x="160" y="266"/>
      <point x="194" y="285"/>
      <point x="233" y="285" type="curve" smooth="yes"/>
      <point x="263" y="285"/>
      <point x="282" y="281"/>
      <point x="289" y="262" type="curve"/>
      <point x="433" y="260" type="line"/>
      <point x="424" y="347"/>
      <point x="358" y="397"/>
      <point x="244" y="397" type="curve" smooth="yes"/>
      <point x="102" y="397"/>
      <point x="-1" y="306"/>
      <point x="-7" y="140" type="curve" smooth="yes"/>
      <point x="-12" y="10"/>
      <point x="72" y="-47"/>
    </contour>
    <contour>
      <point x="195" y="65" type="curve" smooth="yes"/>
      <point x="164" y="65"/>
      <point x="144" y="79"/>
      <point x="145" y="103" type="curve" smooth="yes"/>
      <point x="146" y="133"/>
      <point x="170" y="147"/>
      <point x="207" y="147" type="curve" smooth="yes"/>
      <point x="239" y="147"/>
      <point x="259" y="133"/>
      <point x="258" y="109" type="curve" smooth="yes"/>
      <point x="257" y="77"/>
      <point x="231" y="65"/>
    </contour>
  </outline>
</glyph>
<glyph name="seveninferior" format="2">
  <advance width="400"/>
  <unicode hex="2087"/>
  <anchor x="211" y="177" name="_center"/>
  <outline>
    <contour>
      <point x="58" y="-40" type="curve"/>
      <point x="206" y="-40" type="line"/>
      <point x="228" y="90"/>
      <point x="288" y="192"/>
      <point x="401" y="290" type="curve"/>
      <point x="423" y="393" type="line"/>
      <point x="37" y="393" type="line"/>
      <point x="-1" y="214" type="line"/>
      <point x="108" y="214" type="line"/>
      <point x="121" y="273" type="line"/>
      <point x="233" y="273" type="line"/>
      <point x="152" y="206"/>
      <point x="84" y="108"/>
    </contour>
  </outline>
</glyph>
<glyph name="eightinferior" format="2">
  <advance width="445"/>
  <unicode hex="2088"/>
  <anchor x="198" y="177" name="_center"/>
  <outline>
    <contour>
      <point x="173" y="-46" type="curve" smooth="yes"/>
      <point x="318" y="-46"/>
      <point x="388" y="10"/>
      <point x="388" y="89" type="curve" smooth="yes"/>
      <point x="388" y="133"/>
      <point x="359" y="168"/>
      <point x="322" y="176" type="curve"/>
      <point x="323" y="179" type="line"/>
      <point x="380" y="190"/>
      <point x="419" y="231"/>
      <point x="419" y="281" type="curve" smooth="yes"/>
      <point x="419" y="350"/>
      <point x="361" y="397"/>
      <point x="232" y="397" type="curve" smooth="yes"/>
      <point x="133" y="397"/>
      <point x="27" y="359"/>
      <point x="27" y="268" type="curve" smooth="yes"/>
      <point x="27" y="227"/>
      <point x="49" y="200"/>
      <point x="85" y="189" type="curve"/>
      <point x="84" y="185" type="line"/>
      <point x="23" y="176"/>
      <point x="-24" y="130"/>
      <point x="-24" y="69" type="curve" smooth="yes"/>
      <point x="-24" y="-23"/>
      <point x="78" y="-46"/>
    </contour>
    <contour>
      <point x="185" y="64" type="curve" smooth="yes"/>
      <point x="153" y="64"/>
      <point x="131" y="73"/>
      <point x="131" y="96" type="curve" smooth="yes"/>
      <point x="131" y="117"/>
      <point x="150" y="132"/>
      <point x="190" y="132" type="curve" smooth="yes"/>
      <point x="221" y="132"/>
      <point x="241" y="120"/>
      <point x="241" y="100" type="curve" smooth="yes"/>
      <point x="241" y="79"/>
      <point x="221" y="64"/>
    </contour>
    <contour>
      <point x="218" y="224" type="curve" smooth="yes"/>
      <point x="189" y="224"/>
      <point x="171" y="237"/>
      <point x="171" y="255" type="curve" smooth="yes"/>
      <point x="171" y="277"/>
      <point x="194" y="288"/>
      <point x="223" y="288" type="curve" smooth="yes"/>
      <point x="250" y="288"/>
      <point x="267" y="276"/>
      <point x="267" y="259" type="curve" smooth="yes"/>
      <point x="267" y="236"/>
      <point x="246" y="224"/>
    </contour>
  </outline>
</glyph>
<glyph name="peseta" format="2">
  <advance width="1819"/>
  <unicode hex="20A7"/>
  <outline>
    <contour>
      <point x="-1" y="0" type="line"/>
      <point x="226" y="0" type="line"/>
      <point x="346" y="574" type="line"/>
      <point x="324" y="556" type="line"/>
      <point x="425" y="556" type="line" smooth="yes"/>
      <point x="476" y="556"/>
      <point x="502" y="539"/>
      <point x="502" y="492" type="curve" smooth="yes"/>
      <point x="502" y="427"/>
      <point x="466" y="398"/>
      <point x="396" y="398" type="curve" smooth="yes"/>
      <point x="293" y="398" type="line"/>
      <point x="261" y="241" type="line"/>
      <point x="420" y="241" type="line" smooth="yes"/>
      <point x="606" y="241"/>
      <point x="732" y="331"/>
      <point x="732" y="524" type="curve" smooth="yes"/>
      <point x="732" y="648"/>
      <point x="661" y="729"/>
      <point x="478" y="729" type="curve" smooth="yes"/>
      <point x="150" y="729" type="line"/>
    </contour>
    <contour>
      <point x="952" y="0" type="curve" smooth="yes"/>
      <point x="1106" y="0" type="line"/>
      <point x="1145" y="186" type="line"/>
      <point x="1058" y="186" type="line" smooth="yes"/>
      <point x="1029" y="186"/>
      <point x="1020" y="195"/>
      <point x="1026" y="223" type="curve" smooth="yes"/>
      <point x="1058" y="379" type="line"/>
      <point x="1186" y="379" type="line"/>
      <point x="1220" y="544" type="line"/>
      <point x="1092" y="544" type="line"/>
      <point x="1128" y="710" type="line"/>
      <point x="904" y="669" type="line"/>
      <point x="878" y="544" type="line"/>
      <point x="786" y="544" type="line"/>
      <point x="751" y="379" type="line"/>
      <point x="843" y="379" type="line"/>
      <point x="800" y="171" type="line" smooth="yes"/>
      <point x="775" y="52"/>
      <point x="838" y="0"/>
    </contour>
    <contour>
      <point x="1484" y="-10" type="curve" smooth="yes"/>
      <point x="1693" y="-10"/>
      <point x="1784" y="65"/>
      <point x="1784" y="186" type="curve" smooth="yes"/>
      <point x="1784" y="289"/>
      <point x="1713" y="320"/>
      <point x="1559" y="344" type="curve" smooth="yes"/>
      <point x="1462" y="360"/>
      <point x="1448" y="363"/>
      <point x="1448" y="383" type="curve" smooth="yes"/>
      <point x="1448" y="406"/>
      <point x="1471" y="419"/>
      <point x="1504" y="419" type="curve" smooth="yes"/>
      <point x="1556" y="419"/>
      <point x="1590" y="403"/>
      <point x="1591" y="374" type="curve"/>
      <point x="1800" y="374" type="line"/>
      <point x="1809" y="483"/>
      <point x="1703" y="554"/>
      <point x="1509" y="554" type="curve" smooth="yes"/>
      <point x="1340" y="554"/>
      <point x="1225" y="486"/>
      <point x="1225" y="359" type="curve" smooth="yes"/>
      <point x="1225" y="259"/>
      <point x="1313" y="224"/>
      <point x="1435" y="204" type="curve" smooth="yes"/>
      <point x="1538" y="187"/>
      <point x="1559" y="183"/>
      <point x="1559" y="162" type="curve" smooth="yes"/>
      <point x="1559" y="137"/>
      <point x="1538" y="125"/>
      <point x="1497" y="125" type="curve" smooth="yes"/>
      <point x="1433" y="125"/>
      <point x="1393" y="140"/>
      <point x="1393" y="179" type="curve"/>
      <point x="1175" y="179" type="line"/>
      <point x="1170" y="66"/>
      <point x="1282" y="-10"/>
    </contour>
  </outline>
</glyph>
<glyph name="won" format="2">
  <advance width="1092"/>
  <unicode hex="20A9"/>
  <outline>
    <contour>
      <point x="124" y="0" type="line"/>
      <point x="447" y="0" type="line"/>
      <point x="542" y="384" type="line"/>
      <point x="589" y="572" type="line"/>
      <point x="604" y="572" type="line"/>
      <point x="580" y="380" type="line"/>
      <point x="526" y="0" type="line"/>
      <point x="847" y="0" type="line"/>
      <point x="1154" y="729" type="line"/>
      <point x="916" y="729" type="line"/>
      <point x="777" y="330" type="line"/>
      <point x="729" y="181" type="line"/>
      <point x="713" y="181" type="line"/>
      <point x="735" y="329" type="line"/>
      <point x="791" y="729" type="line"/>
      <point x="476" y="729" type="line"/>
      <point x="365" y="323" type="line"/>
      <point x="330" y="180" type="line"/>
      <point x="312" y="180" type="line"/>
      <point x="323" y="324" type="line"/>
      <point x="351" y="729" type="line"/>
      <point x="126" y="729" type="line"/>
    </contour>
    <contour>
      <point x="27" y="299" type="line"/>
      <point x="1077" y="299" type="line"/>
      <point x="1108" y="447" type="line"/>
      <point x="58" y="447" type="line"/>
    </contour>
  </outline>
</glyph>
<glyph name="sheqel" format="2">
  <advance width="882"/>
  <unicode hex="20AA"/>
  <outline>
    <contour>
      <point x="238" y="0" type="line"/>
      <point x="616" y="0" type="line" smooth="yes"/>
      <point x="711" y="0"/>
      <point x="785" y="49"/>
      <point x="806" y="153" type="curve" smooth="yes"/>
      <point x="925" y="729" type="line"/>
      <point x="724" y="729" type="line"/>
      <point x="608" y="165" type="line"/>
      <point x="403" y="165" type="line"/>
      <point x="478" y="528" type="line"/>
      <point x="347" y="528" type="line"/>
    </contour>
    <contour>
      <point x="0" y="0" type="line"/>
      <point x="201" y="0" type="line"/>
      <point x="318" y="565" type="line"/>
      <point x="523" y="565" type="line"/>
      <point x="447" y="202" type="line"/>
      <point x="577" y="202" type="line"/>
      <point x="660" y="602" type="line" smooth="yes"/>
      <point x="676" y="678"/>
      <point x="646" y="729"/>
      <point x="562" y="729" type="curve" smooth="yes"/>
      <point x="150" y="729" type="line"/>
    </contour>
  </outline>
</glyph>
<glyph name="euro" format="2">
  <advance width="933"/>
  <unicode hex="20AC"/>
  <outline>
    <contour>
      <point x="502" y="-10" type="curve" smooth="yes"/>
      <point x="712" y="-10"/>
      <point x="882" y="87"/>
      <point x="916" y="255" type="curve"/>
      <point x="685" y="255" type="line"/>
      <point x="664" y="199"/>
      <point x="594" y="169"/>
      <point x="516" y="169" type="curve" smooth="yes"/>
      <point x="411" y="169"/>
      <point x="341" y="228"/>
      <point x="341" y="341" type="curve" smooth="yes"/>
      <point x="341" y="465"/>
      <point x="412" y="561"/>
      <point x="551" y="561" type="curve" smooth="yes"/>
      <point x="634" y="561"/>
      <point x="701" y="525"/>
      <point x="717" y="465" type="curve"/>
      <point x="947" y="465" type="line"/>
      <point x="938" y="628"/>
      <point x="785" y="738"/>
      <point x="559" y="738" type="curve" smooth="yes"/>
      <point x="293" y="738"/>
      <point x="112" y="573"/>
      <point x="112" y="324" type="curve" smooth="yes"/>
      <point x="112" y="121"/>
      <point x="256" y="-10"/>
    </contour>
    <contour>
      <point x="13" y="237" type="line"/>
      <point x="543" y="237" type="line"/>
      <point x="581" y="341" type="line"/>
      <point x="36" y="341" type="line"/>
    </contour>
    <contour>
      <point x="45" y="388" type="line"/>
      <point x="597" y="388" type="line"/>
      <point x="635" y="491" type="line"/>
      <point x="67" y="491" type="line"/>
    </contour>
  </outline>
</glyph>
<glyph name="tenge" format="2">
  <advance width="689"/>
  <unicode hex="20B8"/>
  <outline>
    <contour>
      <point x="253" y="357" type="line"/>
      <point x="180" y="0" type="line"/>
      <point x="393" y="0" type="line"/>
      <point x="466" y="357" type="line"/>
    </contour>
    <contour>
      <point x="675" y="342" type="line"/>
      <point x="708" y="502" type="line"/>
      <point x="76" y="502" type="line"/>
      <point x="43" y="342" type="line"/>
    </contour>
    <contour>
      <point x="720" y="559" type="line"/>
      <point x="755" y="729" type="line"/>
      <point x="123" y="729" type="line"/>
      <point x="88" y="559" type="line"/>
    </contour>
  </outline>
</glyph>
<glyph name="rupeeIndian" format="2">
  <advance width="649"/>
  <unicode hex="20B9"/>
  <outline>
    <contour>
      <point x="248" y="0" type="line"/>
      <point x="482" y="0" type="line"/>
      <point x="478" y="167" type="line" smooth="yes"/>
      <point x="476" y="255"/>
      <point x="455" y="289"/>
      <point x="394" y="305" type="curve"/>
      <point x="395" y="313" type="line"/>
      <point x="481" y="320"/>
      <point x="554" y="370"/>
      <point x="572" y="423" type="curve"/>
      <point x="658" y="423" type="line"/>
      <point x="683" y="539" type="line"/>
      <point x="589" y="539" type="line"/>
      <point x="585" y="567"/>
      <point x="570" y="597"/>
      <point x="551" y="607" type="curve"/>
      <point x="551" y="613" type="line"/>
      <point x="698" y="613" type="line"/>
      <point x="722" y="729" type="line"/>
      <point x="131" y="729" type="line"/>
      <point x="99" y="577" type="line"/>
      <point x="267" y="577" type="line" smooth="yes"/>
      <point x="324" y="577"/>
      <point x="360" y="562"/>
      <point x="362" y="529" type="curve"/>
      <point x="90" y="529" type="line"/>
      <point x="69" y="433" type="line"/>
      <point x="341" y="433" type="line"/>
      <point x="326" y="404"/>
      <point x="289" y="384"/>
      <point x="228" y="384" type="curve" smooth="yes"/>
      <point x="59" y="384" type="line"/>
      <point x="30" y="244" type="line"/>
      <point x="148" y="244" type="line" smooth="yes"/>
      <point x="216" y="244"/>
      <point x="244" y="232"/>
      <point x="245" y="156" type="curve" smooth="yes"/>
    </contour>
  </outline>
</glyph>
<glyph name="liraTurkish" format="2">
  <advance width="790"/>
  <unicode hex="20BA"/>
  <outline>
    <contour>
      <point x="51" y="0" type="line"/>
      <point x="233" y="0" type="line" smooth="yes"/>
      <point x="505" y="0"/>
      <point x="723" y="93"/>
      <point x="801" y="362" type="curve"/>
      <point x="561" y="362" type="line"/>
      <point x="531" y="271"/>
      <point x="467" y="210"/>
      <point x="316" y="208" type="curve"/>
      <point x="423" y="729" type="line"/>
      <point x="201" y="729" type="line"/>
    </contour>
    <contour>
      <point x="13" y="192" type="line"/>
      <point x="503" y="350" type="line"/>
      <point x="536" y="509" type="line"/>
      <point x="46" y="351" type="line"/>
    </contour>
    <contour>
      <point x="58" y="408" type="line"/>
      <point x="548" y="566" type="line"/>
      <point x="581" y="725" type="line"/>
      <point x="91" y="567" type="line"/>
    </contour>
  </outline>
</glyph>
<glyph name="literSign" format="2">
  <advance width="561"/>
  <unicode hex="2113"/>
  <outline>
    <contour>
      <point x="283" y="-10" type="curve" smooth="yes"/>
      <point x="383" y="-10"/>
      <point x="473" y="40"/>
      <point x="518" y="115" type="curve"/>
      <point x="389" y="190" type="line"/>
      <point x="371" y="160"/>
      <point x="340" y="144"/>
      <point x="311" y="144" type="curve" smooth="yes"/>
      <point x="236" y="144"/>
      <point x="253" y="254"/>
      <point x="278" y="382" type="curve" smooth="yes"/>
      <point x="305" y="519"/>
      <point x="333" y="560"/>
      <point x="370" y="560" type="curve" smooth="yes"/>
      <point x="389" y="560"/>
      <point x="398" y="548"/>
      <point x="398" y="528" type="curve" smooth="yes"/>
      <point x="398" y="394"/>
      <point x="191" y="302"/>
      <point x="19" y="288" type="curve"/>
      <point x="-7" y="155" type="line"/>
      <point x="294" y="169"/>
      <point x="578" y="312"/>
      <point x="578" y="559" type="curve" smooth="yes"/>
      <point x="578" y="667"/>
      <point x="513" y="739"/>
      <point x="405" y="739" type="curve" smooth="yes"/>
      <point x="204" y="739"/>
      <point x="70" y="553"/>
      <point x="70" y="274" type="curve" smooth="yes"/>
      <point x="70" y="100"/>
      <point x="138" y="-10"/>
    </contour>
  </outline>
</glyph>
<glyph name="numero" format="2">
  <advance width="1436"/>
  <unicode hex="2116"/>
  <outline>
    <contour>
      <point x="-1" y="0" type="line"/>
      <point x="226" y="0" type="line"/>
      <point x="275" y="232" type="line"/>
      <point x="311" y="441" type="line"/>
      <point x="319" y="441" type="line"/>
      <point x="509" y="0" type="line"/>
      <point x="776" y="0" type="line"/>
      <point x="927" y="729" type="line"/>
      <point x="703" y="729" type="line"/>
      <point x="655" y="498" type="line"/>
      <point x="616" y="282" type="line"/>
      <point x="608" y="282" type="line"/>
      <point x="419" y="729" type="line"/>
      <point x="150" y="729" type="line"/>
    </contour>
    <contour>
      <point x="909" y="139" type="line"/>
      <point x="1368" y="139" type="line"/>
      <point x="1392" y="255" type="line"/>
      <point x="933" y="255" type="line"/>
    </contour>
    <contour>
      <point x="1188" y="300" type="curve" smooth="yes"/>
      <point x="1355" y="300"/>
      <point x="1463" y="393"/>
      <point x="1463" y="532" type="curve" smooth="yes"/>
      <point x="1463" y="656"/>
      <point x="1372" y="739"/>
      <point x="1209" y="739" type="curve" smooth="yes"/>
      <point x="1044" y="739"/>
      <point x="937" y="645"/>
      <point x="937" y="506" type="curve" smooth="yes"/>
      <point x="937" y="382"/>
      <point x="1017" y="300"/>
    </contour>
    <contour>
      <point x="1194" y="440" type="curve" smooth="yes"/>
      <point x="1160" y="440"/>
      <point x="1136" y="459"/>
      <point x="1136" y="499" type="curve" smooth="yes"/>
      <point x="1136" y="565"/>
      <point x="1159" y="599"/>
      <point x="1206" y="599" type="curve" smooth="yes"/>
      <point x="1240" y="599"/>
      <point x="1264" y="580"/>
      <point x="1264" y="540" type="curve" smooth="yes"/>
      <point x="1264" y="474"/>
      <point x="1241" y="440"/>
    </contour>
  </outline>
</glyph>
<glyph name="trademark" format="2">
  <advance width="907"/>
  <unicode hex="2122"/>
  <outline>
    <contour>
      <point x="409" y="415" type="line"/>
      <point x="529" y="415" type="line"/>
      <point x="547" y="500" type="line"/>
      <point x="563" y="579" type="line"/>
      <point x="566" y="579" type="line"/>
      <point x="597" y="415" type="line"/>
      <point x="693" y="415" type="line"/>
      <point x="793" y="579" type="line"/>
      <point x="795" y="579" type="line"/>
      <point x="778" y="500" type="line"/>
      <point x="761" y="415" type="line"/>
      <point x="881" y="415" type="line"/>
      <point x="947" y="729" type="line"/>
      <point x="775" y="729" type="line"/>
      <point x="681" y="574" type="line"/>
      <point x="678" y="574" type="line"/>
      <point x="648" y="729" type="line"/>
      <point x="474" y="729" type="line"/>
    </contour>
    <contour>
      <point x="145" y="415" type="line"/>
      <point x="274" y="415" type="line"/>
      <point x="317" y="619" type="line"/>
      <point x="412" y="619" type="line"/>
      <point x="435" y="729" type="line"/>
      <point x="118" y="729" type="line"/>
      <point x="94" y="619" type="line"/>
      <point x="188" y="619" type="line"/>
    </contour>
  </outline>
</glyph>
<glyph name="leftArrow" format="2">
  <advance width="689"/>
  <unicode hex="2190"/>
  <outline>
    <contour>
      <point x="637" y="460" type="line"/>
      <point x="300" y="460" type="line"/>
      <point x="391" y="605" type="line"/>
      <point x="199" y="605" type="line"/>
      <point x="48" y="365" type="line"/>
      <point x="199" y="125" type="line"/>
      <point x="391" y="125" type="line"/>
      <point x="300" y="270" type="line"/>
      <point x="637" y="270" type="line"/>
    </contour>
  </outline>
</glyph>
<glyph name="upArrow" format="2">
  <advance width="583"/>
  <unicode hex="2191"/>
  <outline>
    <contour>
      <point x="216" y="75" type="line"/>
      <point x="406" y="75" type="line"/>
      <point x="406" y="412" type="line"/>
      <point x="551" y="321" type="line"/>
      <point x="551" y="513" type="line"/>
      <point x="311" y="664" type="line"/>
      <point x="71" y="513" type="line"/>
      <point x="71" y="321" type="line"/>
      <point x="216" y="412" type="line"/>
    </contour>
  </outline>
</glyph>
<glyph name="rightArrow" format="2">
  <advance width="690"/>
  <unicode hex="2192"/>
  <outline>
    <contour>
      <point x="73" y="460" type="line"/>
      <point x="73" y="270" type="line"/>
      <point x="410" y="270" type="line"/>
      <point x="319" y="125" type="line"/>
      <point x="511" y="125" type="line"/>
      <point x="662" y="365" type="line"/>
      <point x="511" y="605" type="line"/>
      <point x="319" y="605" type="line"/>
      <point x="410" y="460" type="line"/>
    </contour>
  </outline>
</glyph>
<glyph name="downArrow" format="2">
  <advance width="585"/>
  <unicode hex="2193"/>
  <outline>
    <contour>
      <point x="195" y="654" type="line"/>
      <point x="195" y="317" type="line"/>
      <point x="50" y="408" type="line"/>
      <point x="50" y="216" type="line"/>
      <point x="290" y="65" type="line"/>
      <point x="530" y="216" type="line"/>
      <point x="530" y="408" type="line"/>
      <point x="385" y="317" type="line"/>
      <point x="385" y="654" type="line"/>
    </contour>
  </outline>
</glyph>
<glyph name="leftRightArrow" format="2">
  <advance width="848"/>
  <unicode hex="2194"/>
  <outline>
    <contour>
      <point x="189" y="125" type="line"/>
      <point x="381" y="125" type="line"/>
      <point x="290" y="270" type="line"/>
      <point x="575" y="270" type="line"/>
      <point x="484" y="125" type="line"/>
      <point x="676" y="125" type="line"/>
      <point x="827" y="365" type="line"/>
      <point x="676" y="605" type="line"/>
      <point x="484" y="605" type="line"/>
      <point x="575" y="460" type="line"/>
      <point x="290" y="460" type="line"/>
      <point x="381" y="605" type="line"/>
      <point x="189" y="605" type="line"/>
      <point x="38" y="365" type="line"/>
    </contour>
  </outline>
</glyph>
<glyph name="emptyset" format="2">
  <advance width="744"/>
  <unicode hex="2205"/>
  <outline>
    <contour>
      <point x="391" y="0" type="curve" smooth="yes"/>
      <point x="595" y="0"/>
      <point x="749" y="149"/>
      <point x="749" y="366" type="curve" smooth="yes"/>
      <point x="749" y="579"/>
      <point x="595" y="729"/>
      <point x="391" y="729" type="curve" smooth="yes"/>
      <point x="187" y="729"/>
      <point x="33" y="580"/>
      <point x="33" y="366" type="curve" smooth="yes"/>
      <point x="33" y="149"/>
      <point x="187" y="0"/>
    </contour>
    <contour>
      <point x="391" y="71" type="curve" smooth="yes"/>
      <point x="296" y="71"/>
      <point x="212" y="116"/>
      <point x="161" y="189" type="curve"/>
      <point x="651" y="488" type="line"/>
      <point x="666" y="451"/>
      <point x="674" y="410"/>
      <point x="674" y="366" type="curve" smooth="yes"/>
      <point x="674" y="193"/>
      <point x="551" y="71"/>
    </contour>
    <contour>
      <point x="129" y="249" type="line"/>
      <point x="116" y="284"/>
      <point x="108" y="324"/>
      <point x="108" y="366" type="curve" smooth="yes"/>
      <point x="108" y="538"/>
      <point x="233" y="658"/>
      <point x="391" y="658" type="curve" smooth="yes"/>
      <point x="485" y="658"/>
      <point x="565" y="617"/>
      <point x="617" y="548" type="curve"/>
    </contour>
  </outline>
</glyph>
<glyph name="product" format="2">
  <advance width="823"/>
  <unicode hex="220F"/>
  <outline>
    <contour>
      <point x="-47" y="-151" type="line"/>
      <point x="180" y="-151" type="line"/>
      <point x="323" y="532" type="line"/>
      <point x="608" y="532" type="line"/>
      <point x="464" y="-151" type="line"/>
      <point x="692" y="-151" type="line"/>
      <point x="877" y="729" type="line"/>
      <point x="138" y="729" type="line"/>
    </contour>
  </outline>
</glyph>
<glyph name="summation" format="2">
  <advance width="667"/>
  <unicode hex="2211"/>
  <outline>
    <contour>
      <point x="-73" y="-151" type="line"/>
      <point x="564" y="-151" type="line"/>
      <point x="606" y="48" type="line"/>
      <point x="435" y="48" type="line"/>
      <point x="271" y="46" type="line"/>
      <point x="273" y="56" type="line"/>
      <point x="562" y="288" type="line"/>
      <point x="364" y="522" type="line"/>
      <point x="367" y="532" type="line"/>
      <point x="529" y="530" type="line"/>
      <point x="706" y="530" type="line"/>
      <point x="749" y="729" type="line"/>
      <point x="112" y="729" type="line"/>
      <point x="67" y="518" type="line"/>
      <point x="249" y="303" type="line"/>
      <point x="244" y="277" type="line"/>
      <point x="-28" y="60" type="line"/>
    </contour>
  </outline>
</glyph>
<glyph name="minus" format="2">
  <advance width="720"/>
  <unicode hex="2212"/>
  <outline>
    <contour>
      <point x="112" y="274" type="line"/>
      <point x="608" y="274" type="line"/>
      <point x="644" y="448" type="line"/>
      <point x="148" y="448" type="line"/>
    </contour>
  </outline>
</glyph>
<glyph name="radical" format="2">
  <advance width="832"/>
  <unicode hex="221A"/>
  <outline>
    <contour>
      <point x="139" y="-151" type="line"/>
      <point x="463" y="-151" type="line"/>
      <point x="938" y="729" type="line"/>
      <point x="673" y="729" type="line"/>
      <point x="344" y="80" type="line"/>
      <point x="334" y="80" type="line"/>
      <point x="321" y="456" type="line"/>
      <point x="40" y="456" type="line"/>
      <point x="-6" y="239" type="line"/>
      <point x="100" y="239" type="line"/>
    </contour>
  </outline>
</glyph>
<glyph name="infinity" format="2">
  <advance width="931"/>
  <unicode hex="221E"/>
  <outline>
    <contour>
      <point x="279" y="107" type="curve" smooth="yes"/>
      <point x="368" y="107"/>
      <point x="441" y="152"/>
      <point x="483" y="222" type="curve"/>
      <point x="527" y="151"/>
      <point x="599" y="107"/>
      <point x="687" y="107" type="curve" smooth="yes"/>
      <point x="833" y="107"/>
      <point x="932" y="208"/>
      <point x="932" y="361" type="curve" smooth="yes"/>
      <point x="932" y="517"/>
      <point x="832" y="622"/>
      <point x="686" y="622" type="curve" smooth="yes"/>
      <point x="596" y="622"/>
      <point x="524" y="567"/>
      <point x="483" y="500" type="curve"/>
      <point x="440" y="571"/>
      <point x="366" y="622"/>
      <point x="281" y="622" type="curve" smooth="yes"/>
      <point x="135" y="622"/>
      <point x="36" y="517"/>
      <point x="36" y="361" type="curve" smooth="yes"/>
      <point x="36" y="208"/>
      <point x="135" y="107"/>
    </contour>
    <contour>
      <point x="294" y="299" type="curve" smooth="yes"/>
      <point x="253" y="299"/>
      <point x="231" y="331"/>
      <point x="231" y="366" type="curve" smooth="yes"/>
      <point x="231" y="401"/>
      <point x="254" y="431"/>
      <point x="294" y="431" type="curve" smooth="yes"/>
      <point x="338" y="431"/>
      <point x="374" y="394"/>
      <point x="391" y="366" type="curve"/>
      <point x="367" y="328"/>
      <point x="332" y="299"/>
    </contour>
    <contour>
      <point x="672" y="299" type="curve" smooth="yes"/>
      <point x="630" y="299"/>
      <point x="595" y="335"/>
      <point x="577" y="366" type="curve"/>
      <point x="592" y="393"/>
      <point x="628" y="431"/>
      <point x="672" y="431" type="curve" smooth="yes"/>
      <point x="711" y="431"/>
      <point x="735" y="401"/>
      <point x="735" y="366" type="curve" smooth="yes"/>
      <point x="735" y="332"/>
      <point x="712" y="299"/>
    </contour>
  </outline>
</glyph>
<glyph name="integral" format="2">
  <advance width="499"/>
  <unicode hex="222B"/>
  <outline>
    <contour>
      <point x="-92" y="-151" type="line"/>
      <point x="106" y="-151" type="line" smooth="yes"/>
      <point x="211" y="-151"/>
      <point x="285" y="-87"/>
      <point x="306" y="16" type="curve" smooth="yes"/>
      <point x="420" y="560" type="line"/>
      <point x="561" y="560" type="line"/>
      <point x="598" y="729" type="line"/>
      <point x="399" y="729" type="line" smooth="yes"/>
      <point x="294" y="729"/>
      <point x="219" y="664"/>
      <point x="199" y="562" type="curve" smooth="yes"/>
      <point x="85" y="17" type="line"/>
      <point x="-57" y="17" type="line"/>
    </contour>
  </outline>
</glyph>
<glyph name="approxequal" format="2">
  <advance width="720"/>
  <unicode hex="2248"/>
  <outline>
    <contour>
      <point x="423" y="149" type="curve" smooth="yes"/>
      <point x="489" y="149"/>
      <point x="570" y="195"/>
      <point x="592" y="345" type="curve"/>
      <point x="507" y="345" type="line"/>
      <point x="502" y="320"/>
      <point x="482" y="294"/>
      <point x="441" y="294" type="curve" smooth="yes"/>
      <point x="382" y="294"/>
      <point x="360" y="349"/>
      <point x="283" y="349" type="curve" smooth="yes"/>
      <point x="221" y="349"/>
      <point x="142" y="307"/>
      <point x="119" y="156" type="curve"/>
      <point x="204" y="156" type="line"/>
      <point x="205" y="174"/>
      <point x="223" y="208"/>
      <point x="257" y="208" type="curve" smooth="yes"/>
      <point x="308" y="208"/>
      <point x="333" y="149"/>
    </contour>
    <contour>
      <point x="470" y="372" type="curve" smooth="yes"/>
      <point x="536" y="372"/>
      <point x="616" y="418"/>
      <point x="639" y="569" type="curve"/>
      <point x="555" y="569" type="line"/>
      <point x="548" y="541"/>
      <point x="526" y="517"/>
      <point x="489" y="517" type="curve" smooth="yes"/>
      <point x="429" y="517"/>
      <point x="407" y="572"/>
      <point x="329" y="572" type="curve" smooth="yes"/>
      <point x="268" y="572"/>
      <point x="188" y="530"/>
      <point x="165" y="379" type="curve"/>
      <point x="250" y="379" type="line"/>
      <point x="251" y="397"/>
      <point x="270" y="430"/>
      <point x="304" y="430" type="curve" smooth="yes"/>
      <point x="354" y="430"/>
      <point x="380" y="372"/>
    </contour>
  </outline>
</glyph>
<glyph name="notequal" format="2">
  <advance width="720"/>
  <unicode hex="2260"/>
  <outline>
    <contour>
      <point x="142" y="102" type="line"/>
      <point x="264" y="102" type="line"/>
      <point x="616" y="630" type="line"/>
      <point x="495" y="630" type="line"/>
    </contour>
    <contour>
      <point x="83" y="137" type="line"/>
      <point x="579" y="137" type="line"/>
      <point x="616" y="311" type="line"/>
      <point x="120" y="311" type="line"/>
    </contour>
    <contour>
      <point x="140" y="411" type="line"/>
      <point x="636" y="411" type="line"/>
      <point x="673" y="585" type="line"/>
      <point x="177" y="585" type="line"/>
    </contour>
  </outline>
</glyph>
<glyph name="lessequal" format="2">
  <advance width="720"/>
  <unicode hex="2264"/>
  <outline>
    <contour>
      <point x="564" y="158" type="line"/>
      <point x="600" y="328" type="line"/>
      <point x="302" y="407" type="line"/>
      <point x="304" y="416" type="line"/>
      <point x="633" y="489" type="line"/>
      <point x="669" y="659" type="line"/>
      <point x="136" y="516" type="line"/>
      <point x="92" y="307" type="line"/>
    </contour>
    <contour>
      <point x="28" y="0" type="line"/>
      <point x="531" y="0" type="line"/>
      <point x="558" y="132" type="line"/>
      <point x="55" y="132" type="line"/>
    </contour>
  </outline>
</glyph>
<glyph name="greaterequal" format="2">
  <advance width="720"/>
  <unicode hex="2265"/>
  <outline>
    <contour>
      <point x="74" y="170" type="line"/>
      <point x="644" y="310" type="line"/>
      <point x="691" y="537" type="line"/>
      <point x="180" y="673" type="line"/>
      <point x="141" y="488" type="line"/>
      <point x="464" y="429" type="line"/>
      <point x="461" y="419" type="line"/>
      <point x="112" y="354" type="line"/>
    </contour>
    <contour>
      <point x="39" y="0" type="line"/>
      <point x="578" y="0" type="line"/>
      <point x="608" y="143" type="line"/>
      <point x="68" y="143" type="line"/>
    </contour>
  </outline>
</glyph>
<glyph name="whiteCircle" format="2">
  <advance width="880"/>
  <unicode hex="25CB"/>
  <anchor x="459" y="364" name="center"/>
  <outline>
    <contour>
      <point x="459" y="-11" type="curve" smooth="yes"/>
      <point x="688" y="-11"/>
      <point x="849" y="135"/>
      <point x="849" y="364" type="curve" smooth="yes"/>
      <point x="849" y="593"/>
      <point x="688" y="739"/>
      <point x="459" y="739" type="curve" smooth="yes"/>
      <point x="231" y="739"/>
      <point x="69" y="593"/>
      <point x="69" y="364" type="curve" smooth="yes"/>
      <point x="69" y="135"/>
      <point x="231" y="-11"/>
    </contour>
    <contour>
      <point x="459" y="67" type="curve" smooth="yes"/>
      <point x="279" y="67"/>
      <point x="151" y="181"/>
      <point x="151" y="364" type="curve" smooth="yes"/>
      <point x="151" y="547"/>
      <point x="279" y="661"/>
      <point x="459" y="661" type="curve" smooth="yes"/>
      <point x="640" y="661"/>
      <point x="767" y="547"/>
      <point x="767" y="364" type="curve" smooth="yes"/>
      <point x="767" y="181"/>
      <point x="640" y="67"/>
    </contour>
  </outline>
</glyph>
<glyph name="dottedCircle" format="2">
  <advance width="732"/>
  <unicode hex="25CC"/>
  <anchor x="310" y="0" name="bottom"/>
  <anchor x="385" y="365" name="center"/>
  <anchor x="310" y="0" name="ogonek"/>
  <anchor x="460" y="729" name="top"/>
  <anchor x="460" y="729" name="topright"/>
  <outline>
    <contour>
      <point x="385" y="589" type="curve" smooth="yes"/>
      <point x="411" y="589"/>
      <point x="430" y="608"/>
      <point x="430" y="634" type="curve" smooth="yes"/>
      <point x="430" y="660"/>
      <point x="411" y="679"/>
      <point x="385" y="679" type="curve" smooth="yes"/>
      <point x="359" y="679"/>
      <point x="340" y="660"/>
      <point x="340" y="634" type="curve" smooth="yes"/>
      <point x="340" y="608"/>
      <point x="359" y="589"/>
    </contour>
    <contour>
      <point x="520" y="553" type="curve" smooth="yes"/>
      <point x="546" y="553"/>
      <point x="565" y="572"/>
      <point x="565" y="598" type="curve" smooth="yes"/>
      <point x="565" y="624"/>
      <point x="546" y="643"/>
      <point x="520" y="643" type="curve" smooth="yes"/>
      <point x="494" y="643"/>
      <point x="475" y="624"/>
      <point x="475" y="598" type="curve" smooth="yes"/>
      <point x="475" y="572"/>
      <point x="494" y="553"/>
    </contour>
    <contour>
      <point x="619" y="454" type="curve" smooth="yes"/>
      <point x="645" y="454"/>
      <point x="664" y="473"/>
      <point x="664" y="499" type="curve" smooth="yes"/>
      <point x="664" y="525"/>
      <point x="645" y="544"/>
      <point x="619" y="544" type="curve" smooth="yes"/>
      <point x="593" y="544"/>
      <point x="574" y="525"/>
      <point x="574" y="499" type="curve" smooth="yes"/>
      <point x="574" y="473"/>
      <point x="593" y="454"/>
    </contour>
    <contour>
      <point x="655" y="320" type="curve" smooth="yes"/>
      <point x="681" y="320"/>
      <point x="700" y="338"/>
      <point x="700" y="365" type="curve" smooth="yes"/>
      <point x="700" y="391"/>
      <point x="681" y="409"/>
      <point x="655" y="409" type="curve" smooth="yes"/>
      <point x="629" y="409"/>
      <point x="610" y="391"/>
      <point x="610" y="365" type="curve" smooth="yes"/>
      <point x="610" y="338"/>
      <point x="629" y="320"/>
    </contour>
    <contour>
      <point x="619" y="185" type="curve" smooth="yes"/>
      <point x="645" y="185"/>
      <point x="664" y="204"/>
      <point x="664" y="230" type="curve" smooth="yes"/>
      <point x="664" y="256"/>
      <point x="645" y="275"/>
      <point x="619" y="275" type="curve" smooth="yes"/>
      <point x="593" y="275"/>
      <point x="574" y="256"/>
      <point x="574" y="230" type="curve" smooth="yes"/>
      <point x="574" y="204"/>
      <point x="593" y="185"/>
    </contour>
    <contour>
      <point x="520" y="86" type="curve" smooth="yes"/>
      <point x="546" y="86"/>
      <point x="565" y="105"/>
      <point x="565" y="131" type="curve" smooth="yes"/>
      <point x="565" y="157"/>
      <point x="546" y="176"/>
      <point x="520" y="176" type="curve" smooth="yes"/>
      <point x="494" y="176"/>
      <point x="475" y="157"/>
      <point x="475" y="131" type="curve" smooth="yes"/>
      <point x="475" y="105"/>
      <point x="494" y="86"/>
    </contour>
    <contour>
      <point x="385" y="50" type="curve" smooth="yes"/>
      <point x="411" y="50"/>
      <point x="430" y="69"/>
      <point x="430" y="95" type="curve" smooth="yes"/>
      <point x="430" y="121"/>
      <point x="411" y="140"/>
      <point x="385" y="140" type="curve" smooth="yes"/>
      <point x="359" y="140"/>
      <point x="340" y="121"/>
      <point x="340" y="95" type="curve" smooth="yes"/>
      <point x="340" y="69"/>
      <point x="359" y="50"/>
    </contour>
    <contour>
      <point x="250" y="86" type="curve" smooth="yes"/>
      <point x="276" y="86"/>
      <point x="295" y="105"/>
      <point x="295" y="131" type="curve" smooth="yes"/>
      <point x="295" y="157"/>
      <point x="276" y="176"/>
      <point x="250" y="176" type="curve" smooth="yes"/>
      <point x="224" y="176"/>
      <point x="205" y="157"/>
      <point x="205" y="131" type="curve" smooth="yes"/>
      <point x="205" y="105"/>
      <point x="224" y="86"/>
    </contour>
    <contour>
      <point x="151" y="185" type="curve" smooth="yes"/>
      <point x="177" y="185"/>
      <point x="196" y="204"/>
      <point x="196" y="230" type="curve" smooth="yes"/>
      <point x="196" y="256"/>
      <point x="177" y="275"/>
      <point x="151" y="275" type="curve" smooth="yes"/>
      <point x="125" y="275"/>
      <point x="106" y="256"/>
      <point x="106" y="230" type="curve" smooth="yes"/>
      <point x="106" y="204"/>
      <point x="125" y="185"/>
    </contour>
    <contour>
      <point x="115" y="320" type="curve" smooth="yes"/>
      <point x="141" y="320"/>
      <point x="160" y="338"/>
      <point x="160" y="365" type="curve" smooth="yes"/>
      <point x="160" y="391"/>
      <point x="141" y="409"/>
      <point x="115" y="409" type="curve" smooth="yes"/>
      <point x="89" y="409"/>
      <point x="70" y="391"/>
      <point x="70" y="365" type="curve" smooth="yes"/>
      <point x="70" y="338"/>
      <point x="89" y="320"/>
    </contour>
    <contour>
      <point x="151" y="454" type="curve" smooth="yes"/>
      <point x="177" y="454"/>
      <point x="196" y="473"/>
      <point x="196" y="499" type="curve" smooth="yes"/>
      <point x="196" y="525"/>
      <point x="177" y="544"/>
      <point x="151" y="544" type="curve" smooth="yes"/>
      <point x="125" y="544"/>
      <point x="106" y="525"/>
      <point x="106" y="499" type="curve" smooth="yes"/>
      <point x="106" y="473"/>
      <point x="125" y="454"/>
    </contour>
    <contour>
      <point x="250" y="553" type="curve" smooth="yes"/>
      <point x="276" y="553"/>
      <point x="295" y="572"/>
      <point x="295" y="598" type="curve" smooth="yes"/>
      <point x="295" y="624"/>
      <point x="276" y="643"/>
      <point x="250" y="643" type="curve" smooth="yes"/>
      <point x="224" y="643"/>
      <point x="205" y="624"/>
      <point x="205" y="598" type="curve" smooth="yes"/>
      <point x="205" y="572"/>
      <point x="224" y="553"/>
    </contour>
  </outline>
</glyph>
<glyph name="blackCircle" format="2">
  <advance width="880"/>
  <unicode hex="25CF"/>
  <anchor x="459" y="364" name="center"/>
  <outline>
    <contour>
      <point x="459" y="-11" type="curve" smooth="yes"/>
      <point x="231" y="-11"/>
      <point x="69" y="135"/>
      <point x="69" y="364" type="curve" smooth="yes"/>
      <point x="69" y="593"/>
      <point x="231" y="739"/>
      <point x="459" y="739" type="curve" smooth="yes"/>
      <point x="688" y="739"/>
      <point x="849" y="593"/>
      <point x="849" y="364" type="curve" smooth="yes"/>
      <point x="849" y="135"/>
      <point x="688" y="-11"/>
    </contour>
  </outline>
</glyph>
<glyph name="whiteSmilingFace" format="2">
  <advance width="857"/>
  <unicode hex="263A"/>
  <outline>
    <contour>
      <point x="448" y="-10" type="curve" smooth="yes"/>
      <point x="666" y="-10"/>
      <point x="827" y="143"/>
      <point x="827" y="367" type="curve" smooth="yes"/>
      <point x="827" y="585"/>
      <point x="666" y="739"/>
      <point x="448" y="739" type="curve" smooth="yes"/>
      <point x="230" y="739"/>
      <point x="69" y="586"/>
      <point x="69" y="367" type="curve" smooth="yes"/>
      <point x="69" y="143"/>
      <point x="230" y="-10"/>
    </contour>
    <contour>
      <point x="448" y="124" type="curve" smooth="yes"/>
      <point x="565" y="124"/>
      <point x="658" y="195"/>
      <point x="677" y="297" type="curve"/>
      <point x="702" y="297" type="line"/>
      <point x="702" y="332" type="line"/>
      <point x="576" y="332" type="line"/>
      <point x="576" y="297" type="line"/>
      <point x="608" y="297" type="line"/>
      <point x="590" y="232"/>
      <point x="529" y="191"/>
      <point x="448" y="191" type="curve" smooth="yes"/>
      <point x="367" y="191"/>
      <point x="306" y="232"/>
      <point x="288" y="297" type="curve"/>
      <point x="320" y="297" type="line"/>
      <point x="320" y="332" type="line"/>
      <point x="194" y="332" type="line"/>
      <point x="194" y="297" type="line"/>
      <point x="219" y="297" type="line"/>
      <point x="238" y="195"/>
      <point x="331" y="124"/>
    </contour>
    <contour>
      <point x="448" y="63" type="curve" smooth="yes"/>
      <point x="267" y="63"/>
      <point x="146" y="185"/>
      <point x="146" y="367" type="curve" smooth="yes"/>
      <point x="146" y="546"/>
      <point x="267" y="666"/>
      <point x="448" y="666" type="curve" smooth="yes"/>
      <point x="629" y="666"/>
      <point x="750" y="546"/>
      <point x="750" y="367" type="curve" smooth="yes"/>
      <point x="750" y="185"/>
      <point x="629" y="63"/>
    </contour>
    <contour>
      <point x="366" y="403" type="curve" smooth="yes"/>
      <point x="396" y="403"/>
      <point x="419" y="424"/>
      <point x="419" y="454" type="curve" smooth="yes"/>
      <point x="419" y="484"/>
      <point x="396" y="505"/>
      <point x="366" y="505" type="curve" smooth="yes"/>
      <point x="336" y="505"/>
      <point x="312" y="484"/>
      <point x="312" y="454" type="curve" smooth="yes"/>
      <point x="312" y="424"/>
      <point x="336" y="403"/>
    </contour>
    <contour>
      <point x="532" y="403" type="curve" smooth="yes"/>
      <point x="562" y="403"/>
      <point x="585" y="424"/>
      <point x="585" y="454" type="curve" smooth="yes"/>
      <point x="585" y="484"/>
      <point x="562" y="505"/>
      <point x="532" y="505" type="curve" smooth="yes"/>
      <point x="502" y="505"/>
      <point x="478" y="484"/>
      <point x="478" y="454" type="curve" smooth="yes"/>
      <point x="478" y="424"/>
      <point x="502" y="403"/>
    </contour>
  </outline>
</glyph>
<glyph name="checkmark" format="2">
  <advance width="919"/>
  <unicode hex="2713"/>
  <outline>
    <contour>
      <point x="348" y="67" type="line"/>
      <point x="855" y="533" type="line"/>
      <point x="755" y="658" type="line"/>
      <point x="369" y="299" type="line"/>
      <point x="235" y="463" type="line"/>
      <point x="115" y="356" type="line"/>
    </contour>
  </outline>
</glyph>
<glyph name="fi" format="2">
  <advance width="741"/>
  <unicode hex="FB01"/>
  <outline>
    <contour>
      <point x="36" y="0" type="line"/>
      <point x="255" y="0" type="line"/>
      <point x="333" y="379" type="line"/>
      <point x="501" y="379" type="line"/>
      <point x="422" y="0" type="line"/>
      <point x="641" y="0" type="line"/>
      <point x="754" y="544" type="line"/>
      <point x="368" y="544" type="line"/>
      <point x="370" y="554" type="line" smooth="yes"/>
      <point x="375" y="578"/>
      <point x="387" y="589"/>
      <point x="430" y="589" type="curve" smooth="yes"/>
      <point x="495" y="589" type="line"/>
      <point x="525" y="729" type="line"/>
      <point x="374" y="729" type="line" smooth="yes"/>
      <point x="244" y="729"/>
      <point x="176" y="677"/>
      <point x="157" y="587" type="curve" smooth="yes"/>
      <point x="148" y="544" type="line"/>
      <point x="61" y="544" type="line"/>
      <point x="26" y="379" type="line"/>
      <point x="114" y="379" type="line"/>
    </contour>
    <contour>
      <point x="663" y="586" type="curve" smooth="yes"/>
      <point x="744" y="586"/>
      <point x="790" y="619"/>
      <point x="790" y="677" type="curve" smooth="yes"/>
      <point x="790" y="725"/>
      <point x="753" y="754"/>
      <point x="677" y="754" type="curve" smooth="yes"/>
      <point x="596" y="754"/>
      <point x="550" y="721"/>
      <point x="550" y="663" type="curve" smooth="yes"/>
      <point x="550" y="615"/>
      <point x="587" y="586"/>
    </contour>
  </outline>
</glyph>
